<?xml version="1.0" encoding="utf-8" ?>
<svg xmlns="http://www.w3.org/2000/svg" xmlns:ev="http://www.w3.org/2001/xml-events" xmlns:xlink="http://www.w3.org/1999/xlink" baseProfile="full" height="768" version="1.1" width="960">
  <defs/>
  <g id="grid">
    <polyline fill="white" points="96.0,672.0 96.0,96.0 864.0,96.0 864.0,672.0 96.0,672.0" stroke="none"/>
    <line fill="none" stroke="grey" stroke-linecap="round" stroke-width="0.48" x1="96.0" x2="864.0" y1="643.1011204162578" y2="643.1011204162578"/>
    <line fill="none" stroke="grey" stroke-linecap="round" stroke-width="0.48" x1="96.0" x2="864.0" y1="626.1963595469124" y2="626.1963595469124"/>
    <line fill="none" stroke="grey" stroke-linecap="round" stroke-width="0.48" x1="96.0" x2="864.0" y1="614.2022408325156" y2="614.2022408325156"/>
    <line fill="none" stroke="grey" stroke-linecap="round" stroke-width="0.48" x1="96.0" x2="864.0" y1="604.8988795837422" y2="604.8988795837422"/>
    <line fill="none" stroke="grey" stroke-linecap="round" stroke-width="0.48" x1="96.0" x2="864.0" y1="597.2974799631702" y2="597.2974799631702"/>
    <line fill="none" stroke="grey" stroke-linecap="round" stroke-width="0.48" x1="96.0" x2="864.0" y1="590.8705881586313" y2="590.8705881586313"/>
    <line fill="none" stroke="grey" stroke-linecap="round" stroke-width="0.48" x1="96.0" x2="864.0" y1="585.3033612487734" y2="585.3033612487734"/>
    <line fill="none" stroke="grey" stroke-linecap="round" stroke-width="0.48" x1="96.0" x2="864.0" y1="580.3927190938248" y2="580.3927190938248"/>
    <line fill="none" stroke="grey" stroke-linecap="round" stroke-width="0.48" x1="96.0" x2="864.0" y1="547.1011204162578" y2="547.1011204162578"/>
    <line fill="none" stroke="grey" stroke-linecap="round" stroke-width="0.48" x1="96.0" x2="864.0" y1="530.1963595469124" y2="530.1963595469124"/>
    <line fill="none" stroke="grey" stroke-linecap="round" stroke-width="0.48" x1="96.0" x2="864.0" y1="518.2022408325156" y2="518.2022408325156"/>
    <line fill="none" stroke="grey" stroke-linecap="round" stroke-width="0.48" x1="96.0" x2="864.0" y1="508.8988795837422" y2="508.8988795837422"/>
    <line fill="none" stroke="grey" stroke-linecap="round" stroke-width="0.48" x1="96.0" x2="864.0" y1="501.2974799631702" y2="501.2974799631702"/>
    <line fill="none" stroke="grey" stroke-linecap="round" stroke-width="0.48" x1="96.0" x2="864.0" y1="494.87058815863134" y2="494.87058815863134"/>
    <line fill="none" stroke="grey" stroke-linecap="round" stroke-width="0.48" x1="96.0" x2="864.0" y1="489.3033612487734" y2="489.3033612487734"/>
    <line fill="none" stroke="grey" stroke-linecap="round" stroke-width="0.48" x1="96.0" x2="864.0" y1="484.3927190938249" y2="484.3927190938249"/>
    <line fill="none" stroke="grey" stroke-linecap="round" stroke-width="0.48" x1="96.0" x2="864.0" y1="451.1011204162578" y2="451.1011204162578"/>
    <line fill="none" stroke="grey" stroke-linecap="round" stroke-width="0.48" x1="96.0" x2="864.0" y1="434.1963595469124" y2="434.1963595469124"/>
    <line fill="none" stroke="grey" stroke-linecap="round" stroke-width="0.48" x1="96.0" x2="864.0" y1="422.2022408325156" y2="422.2022408325156"/>
    <line fill="none" stroke="grey" stroke-linecap="round" stroke-width="0.48" x1="96.0" x2="864.0" y1="412.8988795837422" y2="412.8988795837422"/>
    <line fill="none" stroke="grey" stroke-linecap="round" stroke-width="0.48" x1="96.0" x2="864.0" y1="405.2974799631702" y2="405.2974799631702"/>
    <line fill="none" stroke="grey" stroke-linecap="round" stroke-width="0.48" x1="96.0" x2="864.0" y1="398.87058815863134" y2="398.87058815863134"/>
    <line fill="none" stroke="grey" stroke-linecap="round" stroke-width="0.48" x1="96.0" x2="864.0" y1="393.3033612487734" y2="393.3033612487734"/>
    <line fill="none" stroke="grey" stroke-linecap="round" stroke-width="0.48" x1="96.0" x2="864.0" y1="388.3927190938248" y2="388.3927190938248"/>
    <line fill="none" stroke="grey" stroke-linecap="round" stroke-width="0.48" x1="96.0" x2="864.0" y1="355.1011204162578" y2="355.1011204162578"/>
    <line fill="none" stroke="grey" stroke-linecap="round" stroke-width="0.48" x1="96.0" x2="864.0" y1="338.1963595469124" y2="338.1963595469124"/>
    <line fill="none" stroke="grey" stroke-linecap="round" stroke-width="0.48" x1="96.0" x2="864.0" y1="326.2022408325156" y2="326.2022408325156"/>
    <line fill="none" stroke="grey" stroke-linecap="round" stroke-width="0.48" x1="96.0" x2="864.0" y1="316.8988795837422" y2="316.8988795837422"/>
    <line fill="none" stroke="grey" stroke-linecap="round" stroke-width="0.48" x1="96.0" x2="864.0" y1="309.2974799631702" y2="309.2974799631702"/>
    <line fill="none" stroke="grey" stroke-linecap="round" stroke-width="0.48" x1="96.0" x2="864.0" y1="302.87058815863134" y2="302.87058815863134"/>
    <line fill="none" stroke="grey" stroke-linecap="round" stroke-width="0.48" x1="96.0" x2="864.0" y1="297.3033612487734" y2="297.3033612487734"/>
    <line fill="none" stroke="grey" stroke-linecap="round" stroke-width="0.48" x1="96.0" x2="864.0" y1="292.3927190938248" y2="292.3927190938248"/>
    <line fill="none" stroke="grey" stroke-linecap="round" stroke-width="0.48" x1="96.0" x2="864.0" y1="259.1011204162578" y2="259.1011204162578"/>
    <line fill="none" stroke="grey" stroke-linecap="round" stroke-width="0.48" x1="96.0" x2="864.0" y1="242.1963595469124" y2="242.1963595469124"/>
    <line fill="none" stroke="grey" stroke-linecap="round" stroke-width="0.48" x1="96.0" x2="864.0" y1="230.2022408325156" y2="230.2022408325156"/>
    <line fill="none" stroke="grey" stroke-linecap="round" stroke-width="0.48" x1="96.0" x2="864.0" y1="220.8988795837422" y2="220.8988795837422"/>
    <line fill="none" stroke="grey" stroke-linecap="round" stroke-width="0.48" x1="96.0" x2="864.0" y1="213.2974799631702" y2="213.2974799631702"/>
    <line fill="none" stroke="grey" stroke-linecap="round" stroke-width="0.48" x1="96.0" x2="864.0" y1="206.87058815863134" y2="206.87058815863134"/>
    <line fill="none" stroke="grey" stroke-linecap="round" stroke-width="0.48" x1="96.0" x2="864.0" y1="201.3033612487734" y2="201.3033612487734"/>
    <line fill="none" stroke="grey" stroke-linecap="round" stroke-width="0.48" x1="96.0" x2="864.0" y1="196.39271909382478" y2="196.39271909382478"/>
    <line fill="none" stroke="grey" stroke-linecap="round" stroke-width="0.48" x1="96.0" x2="864.0" y1="163.1011204162578" y2="163.1011204162578"/>
    <line fill="none" stroke="grey" stroke-linecap="round" stroke-width="0.48" x1="96.0" x2="864.0" y1="146.1963595469124" y2="146.1963595469124"/>
    <line fill="none" stroke="grey" stroke-linecap="round" stroke-width="0.48" x1="96.0" x2="864.0" y1="134.2022408325156" y2="134.2022408325156"/>
    <line fill="none" stroke="grey" stroke-linecap="round" stroke-width="0.48" x1="96.0" x2="864.0" y1="124.8988795837422" y2="124.8988795837422"/>
    <line fill="none" stroke="grey" stroke-linecap="round" stroke-width="0.48" x1="96.0" x2="864.0" y1="117.29747996317019" y2="117.29747996317019"/>
    <line fill="none" stroke="grey" stroke-linecap="round" stroke-width="0.48" x1="96.0" x2="864.0" y1="110.87058815863134" y2="110.87058815863134"/>
    <line fill="none" stroke="grey" stroke-linecap="round" stroke-width="0.48" x1="96.0" x2="864.0" y1="105.3033612487734" y2="105.3033612487734"/>
    <line fill="none" stroke="grey" stroke-linecap="round" stroke-width="0.48" x1="96.0" x2="864.0" y1="100.39271909382478" y2="100.39271909382478"/>
    <line fill="none" stroke="grey" stroke-linecap="round" stroke-width="0.48" x1="124.8988795837422" x2="124.8988795837422" y1="672.0" y2="96.0"/>
    <line fill="none" stroke="grey" stroke-linecap="round" stroke-width="0.48" x1="141.80364045308758" x2="141.80364045308758" y1="672.0" y2="96.0"/>
    <line fill="none" stroke="grey" stroke-linecap="round" stroke-width="0.48" x1="153.7977591674844" x2="153.7977591674844" y1="672.0" y2="96.0"/>
    <line fill="none" stroke="grey" stroke-linecap="round" stroke-width="0.48" x1="163.1011204162578" x2="163.1011204162578" y1="672.0" y2="96.0"/>
    <line fill="none" stroke="grey" stroke-linecap="round" stroke-width="0.48" x1="170.70252003682978" x2="170.70252003682978" y1="672.0" y2="96.0"/>
    <line fill="none" stroke="grey" stroke-linecap="round" stroke-width="0.48" x1="177.12941184136866" x2="177.12941184136866" y1="672.0" y2="96.0"/>
    <line fill="none" stroke="grey" stroke-linecap="round" stroke-width="0.48" x1="182.69663875122657" x2="182.69663875122657" y1="672.0" y2="96.0"/>
    <line fill="none" stroke="grey" stroke-linecap="round" stroke-width="0.48" x1="187.60728090617516" x2="187.60728090617516" y1="672.0" y2="96.0"/>
    <line fill="none" stroke="grey" stroke-linecap="round" stroke-width="0.48" x1="220.8988795837422" x2="220.8988795837422" y1="672.0" y2="96.0"/>
    <line fill="none" stroke="grey" stroke-linecap="round" stroke-width="0.48" x1="237.8036404530876" x2="237.8036404530876" y1="672.0" y2="96.0"/>
    <line fill="none" stroke="grey" stroke-linecap="round" stroke-width="0.48" x1="249.7977591674844" x2="249.7977591674844" y1="672.0" y2="96.0"/>
    <line fill="none" stroke="grey" stroke-linecap="round" stroke-width="0.48" x1="259.1011204162578" x2="259.1011204162578" y1="672.0" y2="96.0"/>
    <line fill="none" stroke="grey" stroke-linecap="round" stroke-width="0.48" x1="266.7025200368298" x2="266.7025200368298" y1="672.0" y2="96.0"/>
    <line fill="none" stroke="grey" stroke-linecap="round" stroke-width="0.48" x1="273.12941184136866" x2="273.12941184136866" y1="672.0" y2="96.0"/>
    <line fill="none" stroke="grey" stroke-linecap="round" stroke-width="0.48" x1="278.6966387512266" x2="278.6966387512266" y1="672.0" y2="96.0"/>
    <line fill="none" stroke="grey" stroke-linecap="round" stroke-width="0.48" x1="283.60728090617516" x2="283.60728090617516" y1="672.0" y2="96.0"/>
    <line fill="none" stroke="grey" stroke-linecap="round" stroke-width="0.48" x1="316.8988795837422" x2="316.8988795837422" y1="672.0" y2="96.0"/>
    <line fill="none" stroke="grey" stroke-linecap="round" stroke-width="0.48" x1="333.8036404530876" x2="333.8036404530876" y1="672.0" y2="96.0"/>
    <line fill="none" stroke="grey" stroke-linecap="round" stroke-width="0.48" x1="345.7977591674844" x2="345.7977591674844" y1="672.0" y2="96.0"/>
    <line fill="none" stroke="grey" stroke-linecap="round" stroke-width="0.48" x1="355.1011204162578" x2="355.1011204162578" y1="672.0" y2="96.0"/>
    <line fill="none" stroke="grey" stroke-linecap="round" stroke-width="0.48" x1="362.7025200368298" x2="362.7025200368298" y1="672.0" y2="96.0"/>
    <line fill="none" stroke="grey" stroke-linecap="round" stroke-width="0.48" x1="369.12941184136866" x2="369.12941184136866" y1="672.0" y2="96.0"/>
    <line fill="none" stroke="grey" stroke-linecap="round" stroke-width="0.48" x1="374.6966387512266" x2="374.6966387512266" y1="672.0" y2="96.0"/>
    <line fill="none" stroke="grey" stroke-linecap="round" stroke-width="0.48" x1="379.60728090617516" x2="379.60728090617516" y1="672.0" y2="96.0"/>
    <line fill="none" stroke="grey" stroke-linecap="round" stroke-width="0.48" x1="412.8988795837422" x2="412.8988795837422" y1="672.0" y2="96.0"/>
    <line fill="none" stroke="grey" stroke-linecap="round" stroke-width="0.48" x1="429.8036404530876" x2="429.8036404530876" y1="672.0" y2="96.0"/>
    <line fill="none" stroke="grey" stroke-linecap="round" stroke-width="0.48" x1="441.7977591674844" x2="441.7977591674844" y1="672.0" y2="96.0"/>
    <line fill="none" stroke="grey" stroke-linecap="round" stroke-width="0.48" x1="451.1011204162578" x2="451.1011204162578" y1="672.0" y2="96.0"/>
    <line fill="none" stroke="grey" stroke-linecap="round" stroke-width="0.48" x1="458.7025200368298" x2="458.7025200368298" y1="672.0" y2="96.0"/>
    <line fill="none" stroke="grey" stroke-linecap="round" stroke-width="0.48" x1="465.12941184136866" x2="465.12941184136866" y1="672.0" y2="96.0"/>
    <line fill="none" stroke="grey" stroke-linecap="round" stroke-width="0.48" x1="470.6966387512266" x2="470.6966387512266" y1="672.0" y2="96.0"/>
    <line fill="none" stroke="grey" stroke-linecap="round" stroke-width="0.48" x1="475.6072809061752" x2="475.6072809061752" y1="672.0" y2="96.0"/>
    <line fill="none" stroke="grey" stroke-linecap="round" stroke-width="0.48" x1="508.8988795837422" x2="508.8988795837422" y1="672.0" y2="96.0"/>
    <line fill="none" stroke="grey" stroke-linecap="round" stroke-width="0.48" x1="525.8036404530876" x2="525.8036404530876" y1="672.0" y2="96.0"/>
    <line fill="none" stroke="grey" stroke-linecap="round" stroke-width="0.48" x1="537.7977591674844" x2="537.7977591674844" y1="672.0" y2="96.0"/>
    <line fill="none" stroke="grey" stroke-linecap="round" stroke-width="0.48" x1="547.1011204162578" x2="547.1011204162578" y1="672.0" y2="96.0"/>
    <line fill="none" stroke="grey" stroke-linecap="round" stroke-width="0.48" x1="554.7025200368298" x2="554.7025200368298" y1="672.0" y2="96.0"/>
    <line fill="none" stroke="grey" stroke-linecap="round" stroke-width="0.48" x1="561.1294118413687" x2="561.1294118413687" y1="672.0" y2="96.0"/>
    <line fill="none" stroke="grey" stroke-linecap="round" stroke-width="0.48" x1="566.6966387512266" x2="566.6966387512266" y1="672.0" y2="96.0"/>
    <line fill="none" stroke="grey" stroke-linecap="round" stroke-width="0.48" x1="571.6072809061752" x2="571.6072809061752" y1="672.0" y2="96.0"/>
    <line fill="none" stroke="grey" stroke-linecap="round" stroke-width="0.48" x1="604.8988795837422" x2="604.8988795837422" y1="672.0" y2="96.0"/>
    <line fill="none" stroke="grey" stroke-linecap="round" stroke-width="0.48" x1="621.8036404530876" x2="621.8036404530876" y1="672.0" y2="96.0"/>
    <line fill="none" stroke="grey" stroke-linecap="round" stroke-width="0.48" x1="633.7977591674844" x2="633.7977591674844" y1="672.0" y2="96.0"/>
    <line fill="none" stroke="grey" stroke-linecap="round" stroke-width="0.48" x1="643.1011204162578" x2="643.1011204162578" y1="672.0" y2="96.0"/>
    <line fill="none" stroke="grey" stroke-linecap="round" stroke-width="0.48" x1="650.7025200368298" x2="650.7025200368298" y1="672.0" y2="96.0"/>
    <line fill="none" stroke="grey" stroke-linecap="round" stroke-width="0.48" x1="657.1294118413687" x2="657.1294118413687" y1="672.0" y2="96.0"/>
    <line fill="none" stroke="grey" stroke-linecap="round" stroke-width="0.48" x1="662.6966387512266" x2="662.6966387512266" y1="672.0" y2="96.0"/>
    <line fill="none" stroke="grey" stroke-linecap="round" stroke-width="0.48" x1="667.6072809061752" x2="667.6072809061752" y1="672.0" y2="96.0"/>
    <line fill="none" stroke="grey" stroke-linecap="round" stroke-width="0.48" x1="700.8988795837422" x2="700.8988795837422" y1="672.0" y2="96.0"/>
    <line fill="none" stroke="grey" stroke-linecap="round" stroke-width="0.48" x1="717.8036404530876" x2="717.8036404530876" y1="672.0" y2="96.0"/>
    <line fill="none" stroke="grey" stroke-linecap="round" stroke-width="0.48" x1="729.7977591674844" x2="729.7977591674844" y1="672.0" y2="96.0"/>
    <line fill="none" stroke="grey" stroke-linecap="round" stroke-width="0.48" x1="739.1011204162578" x2="739.1011204162578" y1="672.0" y2="96.0"/>
    <line fill="none" stroke="grey" stroke-linecap="round" stroke-width="0.48" x1="746.7025200368298" x2="746.7025200368298" y1="672.0" y2="96.0"/>
    <line fill="none" stroke="grey" stroke-linecap="round" stroke-width="0.48" x1="753.1294118413687" x2="753.1294118413687" y1="672.0" y2="96.0"/>
    <line fill="none" stroke="grey" stroke-linecap="round" stroke-width="0.48" x1="758.6966387512266" x2="758.6966387512266" y1="672.0" y2="96.0"/>
    <line fill="none" stroke="grey" stroke-linecap="round" stroke-width="0.48" x1="763.6072809061752" x2="763.6072809061752" y1="672.0" y2="96.0"/>
    <line fill="none" stroke="grey" stroke-linecap="round" stroke-width="0.48" x1="796.8988795837422" x2="796.8988795837422" y1="672.0" y2="96.0"/>
    <line fill="none" stroke="grey" stroke-linecap="round" stroke-width="0.48" x1="813.8036404530876" x2="813.8036404530876" y1="672.0" y2="96.0"/>
    <line fill="none" stroke="grey" stroke-linecap="round" stroke-width="0.48" x1="825.7977591674844" x2="825.7977591674844" y1="672.0" y2="96.0"/>
    <line fill="none" stroke="grey" stroke-linecap="round" stroke-width="0.48" x1="835.1011204162578" x2="835.1011204162578" y1="672.0" y2="96.0"/>
    <line fill="none" stroke="grey" stroke-linecap="round" stroke-width="0.48" x1="842.7025200368298" x2="842.7025200368298" y1="672.0" y2="96.0"/>
    <line fill="none" stroke="grey" stroke-linecap="round" stroke-width="0.48" x1="849.1294118413687" x2="849.1294118413687" y1="672.0" y2="96.0"/>
    <line fill="none" stroke="grey" stroke-linecap="round" stroke-width="0.48" x1="854.6966387512266" x2="854.6966387512266" y1="672.0" y2="96.0"/>
    <line fill="none" stroke="grey" stroke-linecap="round" stroke-width="0.48" x1="859.6072809061752" x2="859.6072809061752" y1="672.0" y2="96.0"/>
    <line fill="none" stroke="grey" stroke-linecap="round" stroke-width="0.96" x1="96.0" x2="864.0" y1="672.0" y2="672.0"/>
    <text fill="black" font-family="sans-serif" font-size="12" text-anchor="end" x="81.6" y="676.2">1 Ω</text>
    <line fill="none" stroke="grey" stroke-linecap="round" stroke-width="0.96" x1="96.0" x2="864.0" y1="576.0" y2="576.0"/>
    <text fill="black" font-family="sans-serif" font-size="12" text-anchor="end" x="81.6" y="580.2">10 Ω</text>
    <line fill="none" stroke="grey" stroke-linecap="round" stroke-width="0.96" x1="96.0" x2="864.0" y1="480.0" y2="480.0"/>
    <text fill="black" font-family="sans-serif" font-size="12" text-anchor="end" x="81.6" y="484.2">100 Ω</text>
    <line fill="none" stroke="grey" stroke-linecap="round" stroke-width="0.96" x1="96.0" x2="864.0" y1="384.0" y2="384.0"/>
    <text fill="black" font-family="sans-serif" font-size="12" text-anchor="end" x="81.6" y="388.2">1 kΩ</text>
    <line fill="none" stroke="grey" stroke-linecap="round" stroke-width="0.96" x1="96.0" x2="864.0" y1="288.0" y2="288.0"/>
    <text fill="black" font-family="sans-serif" font-size="12" text-anchor="end" x="81.6" y="292.2">10 kΩ</text>
    <line fill="none" stroke="grey" stroke-linecap="round" stroke-width="0.96" x1="96.0" x2="864.0" y1="192.0" y2="192.0"/>
    <text fill="black" font-family="sans-serif" font-size="12" text-anchor="end" x="81.6" y="196.2">100 kΩ</text>
    <line fill="none" stroke="grey" stroke-linecap="round" stroke-width="0.96" x1="96.0" x2="864.0" y1="96.0" y2="96.0"/>
    <text fill="black" font-family="sans-serif" font-size="12" text-anchor="end" x="81.6" y="100.2">1 MΩ</text>
    <line fill="none" stroke="grey" stroke-linecap="round" stroke-width="0.96" x1="96.0" x2="96.0" y1="672.0" y2="96.0"/>
    <text fill="black" font-family="sans-serif" font-size="12" text-anchor="middle" x="96.0" y="698.4">1 Hz</text>
    <line fill="none" stroke="grey" stroke-linecap="round" stroke-width="0.96" x1="192.0" x2="192.0" y1="672.0" y2="96.0"/>
    <text fill="black" font-family="sans-serif" font-size="12" text-anchor="middle" x="192.0" y="698.4">10 Hz</text>
    <line fill="none" stroke="grey" stroke-linecap="round" stroke-width="0.96" x1="288.0" x2="288.0" y1="672.0" y2="96.0"/>
    <text fill="black" font-family="sans-serif" font-size="12" text-anchor="middle" x="288.0" y="698.4">100 Hz</text>
    <line fill="none" stroke="grey" stroke-linecap="round" stroke-width="0.96" x1="384.0" x2="384.0" y1="672.0" y2="96.0"/>
    <text fill="black" font-family="sans-serif" font-size="12" text-anchor="middle" x="384.0" y="698.4">1 kHz</text>
    <line fill="none" stroke="grey" stroke-linecap="round" stroke-width="0.96" x1="480.0" x2="480.0" y1="672.0" y2="96.0"/>
    <text fill="black" font-family="sans-serif" font-size="12" text-anchor="middle" x="480.0" y="698.4">10 kHz</text>
    <line fill="none" stroke="grey" stroke-linecap="round" stroke-width="0.96" x1="576.0" x2="576.0" y1="672.0" y2="96.0"/>
    <text fill="black" font-family="sans-serif" font-size="12" text-anchor="middle" x="576.0" y="698.4">100 kHz</text>
    <line fill="none" stroke="grey" stroke-linecap="round" stroke-width="0.96" x1="672.0" x2="672.0" y1="672.0" y2="96.0"/>
    <text fill="black" font-family="sans-serif" font-size="12" text-anchor="middle" x="672.0" y="698.4">1 MHz</text>
    <line fill="none" stroke="grey" stroke-linecap="round" stroke-width="0.96" x1="768.0" x2="768.0" y1="672.0" y2="96.0"/>
    <text fill="black" font-family="sans-serif" font-size="12" text-anchor="middle" x="768.0" y="698.4">10 MHz</text>
    <line fill="none" stroke="grey" stroke-linecap="round" stroke-width="0.96" x1="864.0" x2="864.0" y1="672.0" y2="96.0"/>
    <text fill="black" font-family="sans-serif" font-size="12" text-anchor="middle" x="864.0" y="698.4">100 MHz</text>
    <line fill="none" stroke="grey" stroke-linecap="round" stroke-width="0.48" x1="115.37473263762097" x2="96.0" y1="672.0" y2="652.6252673623791"/>
    <line fill="none" stroke="grey" stroke-linecap="round" stroke-width="0.48" x1="211.37473263762098" x2="96.0" y1="672.0" y2="556.6252673623791"/>
    <line fill="none" stroke="grey" stroke-linecap="round" stroke-width="0.48" x1="182.47585305387878" x2="96.0" y1="672.0" y2="585.5241469461213"/>
    <line fill="none" stroke="grey" stroke-linecap="round" stroke-width="0.48" x1="165.57109218453337" x2="96.0" y1="672.0" y2="602.4289078154667"/>
    <line fill="none" stroke="grey" stroke-linecap="round" stroke-width="0.48" x1="153.57697347013658" x2="96.0" y1="672.0" y2="614.4230265298635"/>
    <line fill="none" stroke="grey" stroke-linecap="round" stroke-width="0.48" x1="144.27361222136318" x2="96.0" y1="672.0" y2="623.7263877786369"/>
    <line fill="none" stroke="grey" stroke-linecap="round" stroke-width="0.48" x1="136.67221260079117" x2="96.0" y1="672.0" y2="631.3277873992088"/>
    <line fill="none" stroke="grey" stroke-linecap="round" stroke-width="0.48" x1="130.24532079625232" x2="96.0" y1="672.0" y2="637.7546792037477"/>
    <line fill="none" stroke="grey" stroke-linecap="round" stroke-width="0.48" x1="124.67809388639436" x2="96.0" y1="672.0" y2="643.3219061136057"/>
    <line fill="none" stroke="grey" stroke-linecap="round" stroke-width="0.48" x1="119.76745173144576" x2="96.0" y1="672.0" y2="648.2325482685542"/>
    <line fill="none" stroke="grey" stroke-linecap="round" stroke-width="0.48" x1="307.374732637621" x2="96.0" y1="672.0" y2="460.6252673623791"/>
    <line fill="none" stroke="grey" stroke-linecap="round" stroke-width="0.48" x1="278.4758530538788" x2="96.0" y1="672.0" y2="489.52414694612116"/>
    <line fill="none" stroke="grey" stroke-linecap="round" stroke-width="0.48" x1="261.57109218453337" x2="96.0" y1="672.0" y2="506.4289078154666"/>
    <line fill="none" stroke="grey" stroke-linecap="round" stroke-width="0.48" x1="249.57697347013658" x2="96.0" y1="672.0" y2="518.4230265298634"/>
    <line fill="none" stroke="grey" stroke-linecap="round" stroke-width="0.48" x1="240.27361222136312" x2="96.0" y1="672.0" y2="527.7263877786369"/>
    <line fill="none" stroke="grey" stroke-linecap="round" stroke-width="0.48" x1="232.6722126007912" x2="96.0" y1="672.0" y2="535.3277873992088"/>
    <line fill="none" stroke="grey" stroke-linecap="round" stroke-width="0.48" x1="226.24532079625232" x2="96.0" y1="672.0" y2="541.7546792037476"/>
    <line fill="none" stroke="grey" stroke-linecap="round" stroke-width="0.48" x1="220.67809388639438" x2="96.0" y1="672.0" y2="547.3219061136057"/>
    <line fill="none" stroke="grey" stroke-linecap="round" stroke-width="0.48" x1="215.7674517314458" x2="96.0" y1="672.0" y2="552.2325482685542"/>
    <line fill="none" stroke="grey" stroke-linecap="round" stroke-width="0.48" x1="403.3747326376209" x2="96.0" y1="672.0" y2="364.6252673623791"/>
    <line fill="none" stroke="grey" stroke-linecap="round" stroke-width="0.48" x1="374.4758530538788" x2="96.0" y1="672.0" y2="393.5241469461213"/>
    <line fill="none" stroke="grey" stroke-linecap="round" stroke-width="0.48" x1="357.57109218453337" x2="96.0" y1="672.0" y2="410.4289078154667"/>
    <line fill="none" stroke="grey" stroke-linecap="round" stroke-width="0.48" x1="345.5769734701366" x2="96.0" y1="672.0" y2="422.4230265298635"/>
    <line fill="none" stroke="grey" stroke-linecap="round" stroke-width="0.48" x1="336.2736122213631" x2="96.0" y1="672.0" y2="431.7263877786369"/>
    <line fill="none" stroke="grey" stroke-linecap="round" stroke-width="0.48" x1="328.67221260079117" x2="96.0" y1="672.0" y2="439.3277873992089"/>
    <line fill="none" stroke="grey" stroke-linecap="round" stroke-width="0.48" x1="322.2453207962523" x2="96.0" y1="672.0" y2="445.75467920374774"/>
    <line fill="none" stroke="grey" stroke-linecap="round" stroke-width="0.48" x1="316.6780938863944" x2="96.0" y1="672.0" y2="451.3219061136057"/>
    <line fill="none" stroke="grey" stroke-linecap="round" stroke-width="0.48" x1="311.76745173144576" x2="96.0" y1="672.0" y2="456.2325482685543"/>
    <line fill="none" stroke="grey" stroke-linecap="round" stroke-width="0.48" x1="499.3747326376209" x2="96.0" y1="672.0" y2="268.6252673623791"/>
    <line fill="none" stroke="grey" stroke-linecap="round" stroke-width="0.48" x1="470.4758530538787" x2="96.0" y1="672.0" y2="297.5241469461213"/>
    <line fill="none" stroke="grey" stroke-linecap="round" stroke-width="0.48" x1="453.5710921845333" x2="96.0" y1="672.0" y2="314.4289078154667"/>
    <line fill="none" stroke="grey" stroke-linecap="round" stroke-width="0.48" x1="441.5769734701365" x2="96.0" y1="672.0" y2="326.4230265298635"/>
    <line fill="none" stroke="grey" stroke-linecap="round" stroke-width="0.48" x1="432.2736122213631" x2="96.0" y1="672.0" y2="335.7263877786369"/>
    <line fill="none" stroke="grey" stroke-linecap="round" stroke-width="0.48" x1="424.6722126007911" x2="96.0" y1="672.0" y2="343.3277873992089"/>
    <line fill="none" stroke="grey" stroke-linecap="round" stroke-width="0.48" x1="418.24532079625226" x2="96.0" y1="672.0" y2="349.75467920374774"/>
    <line fill="none" stroke="grey" stroke-linecap="round" stroke-width="0.48" x1="412.6780938863943" x2="96.0" y1="672.0" y2="355.3219061136057"/>
    <line fill="none" stroke="grey" stroke-linecap="round" stroke-width="0.48" x1="407.7674517314457" x2="96.0" y1="672.0" y2="360.2325482685543"/>
    <line fill="none" stroke="grey" stroke-linecap="round" stroke-width="0.48" x1="595.3747326376209" x2="96.0" y1="672.0" y2="172.62526736237908"/>
    <line fill="none" stroke="grey" stroke-linecap="round" stroke-width="0.48" x1="566.4758530538787" x2="96.0" y1="672.0" y2="201.52414694612128"/>
    <line fill="none" stroke="grey" stroke-linecap="round" stroke-width="0.48" x1="549.5710921845334" x2="96.0" y1="672.0" y2="218.4289078154666"/>
    <line fill="none" stroke="grey" stroke-linecap="round" stroke-width="0.48" x1="537.5769734701366" x2="96.0" y1="672.0" y2="230.4230265298634"/>
    <line fill="none" stroke="grey" stroke-linecap="round" stroke-width="0.48" x1="528.2736122213631" x2="96.0" y1="672.0" y2="239.72638777863688"/>
    <line fill="none" stroke="grey" stroke-linecap="round" stroke-width="0.48" x1="520.6722126007912" x2="96.0" y1="672.0" y2="247.3277873992088"/>
    <line fill="none" stroke="grey" stroke-linecap="round" stroke-width="0.48" x1="514.2453207962523" x2="96.0" y1="672.0" y2="253.75467920374774"/>
    <line fill="none" stroke="grey" stroke-linecap="round" stroke-width="0.48" x1="508.67809388639444" x2="96.0" y1="672.0" y2="259.32190611360556"/>
    <line fill="none" stroke="grey" stroke-linecap="round" stroke-width="0.48" x1="503.7674517314458" x2="96.0" y1="672.0" y2="264.2325482685542"/>
    <line fill="none" stroke="grey" stroke-linecap="round" stroke-width="0.48" x1="691.3747326376209" x2="115.37473263762097" y1="672.0" y2="96.0"/>
    <line fill="none" stroke="grey" stroke-linecap="round" stroke-width="0.48" x1="662.4758530538787" x2="96.0" y1="672.0" y2="105.52414694612128"/>
    <line fill="none" stroke="grey" stroke-linecap="round" stroke-width="0.48" x1="645.5710921845334" x2="96.0" y1="672.0" y2="122.4289078154666"/>
    <line fill="none" stroke="grey" stroke-linecap="round" stroke-width="0.48" x1="633.5769734701365" x2="96.0" y1="672.0" y2="134.42302652986348"/>
    <line fill="none" stroke="grey" stroke-linecap="round" stroke-width="0.48" x1="624.2736122213631" x2="96.0" y1="672.0" y2="143.72638777863688"/>
    <line fill="none" stroke="grey" stroke-linecap="round" stroke-width="0.48" x1="616.6722126007912" x2="96.0" y1="672.0" y2="151.3277873992088"/>
    <line fill="none" stroke="grey" stroke-linecap="round" stroke-width="0.48" x1="610.2453207962524" x2="96.0" y1="672.0" y2="157.75467920374766"/>
    <line fill="none" stroke="grey" stroke-linecap="round" stroke-width="0.48" x1="604.6780938863944" x2="96.0" y1="672.0" y2="163.3219061136056"/>
    <line fill="none" stroke="grey" stroke-linecap="round" stroke-width="0.48" x1="599.7674517314458" x2="96.0" y1="672.0" y2="168.2325482685542"/>
    <line fill="none" stroke="grey" stroke-linecap="round" stroke-width="0.48" x1="787.3747326376209" x2="211.37473263762098" y1="672.0" y2="96.0"/>
    <line fill="none" stroke="grey" stroke-linecap="round" stroke-width="0.48" x1="758.4758530538787" x2="182.47585305387878" y1="672.0" y2="96.0"/>
    <line fill="none" stroke="grey" stroke-linecap="round" stroke-width="0.48" x1="741.5710921845334" x2="165.57109218453337" y1="672.0" y2="96.0"/>
    <line fill="none" stroke="grey" stroke-linecap="round" stroke-width="0.48" x1="729.5769734701365" x2="153.57697347013658" y1="672.0" y2="96.0"/>
    <line fill="none" stroke="grey" stroke-linecap="round" stroke-width="0.48" x1="720.2736122213631" x2="144.27361222136318" y1="672.0" y2="96.0"/>
    <line fill="none" stroke="grey" stroke-linecap="round" stroke-width="0.48" x1="712.6722126007912" x2="136.67221260079117" y1="672.0" y2="96.0"/>
    <line fill="none" stroke="grey" stroke-linecap="round" stroke-width="0.48" x1="706.2453207962523" x2="130.24532079625232" y1="672.0" y2="96.0"/>
    <line fill="none" stroke="grey" stroke-linecap="round" stroke-width="0.48" x1="700.6780938863944" x2="124.67809388639436" y1="672.0" y2="96.0"/>
    <line fill="none" stroke="grey" stroke-linecap="round" stroke-width="0.48" x1="695.7674517314458" x2="119.76745173144576" y1="672.0" y2="96.0"/>
    <line fill="none" stroke="grey" stroke-linecap="round" stroke-width="0.48" x1="864.0" x2="307.374732637621" y1="652.6252673623791" y2="96.0"/>
    <line fill="none" stroke="grey" stroke-linecap="round" stroke-width="0.48" x1="854.4758530538787" x2="278.4758530538788" y1="672.0" y2="96.0"/>
    <line fill="none" stroke="grey" stroke-linecap="round" stroke-width="0.48" x1="837.5710921845333" x2="261.57109218453337" y1="672.0" y2="96.0"/>
    <line fill="none" stroke="grey" stroke-linecap="round" stroke-width="0.48" x1="825.5769734701365" x2="249.57697347013658" y1="672.0" y2="96.0"/>
    <line fill="none" stroke="grey" stroke-linecap="round" stroke-width="0.48" x1="816.2736122213631" x2="240.27361222136312" y1="672.0" y2="96.0"/>
    <line fill="none" stroke="grey" stroke-linecap="round" stroke-width="0.48" x1="808.6722126007911" x2="232.6722126007912" y1="672.0" y2="96.0"/>
    <line fill="none" stroke="grey" stroke-linecap="round" stroke-width="0.48" x1="802.2453207962523" x2="226.24532079625232" y1="672.0" y2="96.0"/>
    <line fill="none" stroke="grey" stroke-linecap="round" stroke-width="0.48" x1="796.6780938863943" x2="220.67809388639438" y1="672.0" y2="96.0"/>
    <line fill="none" stroke="grey" stroke-linecap="round" stroke-width="0.48" x1="791.7674517314457" x2="215.7674517314458" y1="672.0" y2="96.0"/>
    <line fill="none" stroke="grey" stroke-linecap="round" stroke-width="0.48" x1="864.0" x2="403.3747326376209" y1="556.6252673623791" y2="96.0"/>
    <line fill="none" stroke="grey" stroke-linecap="round" stroke-width="0.48" x1="864.0" x2="374.4758530538788" y1="585.5241469461213" y2="96.0"/>
    <line fill="none" stroke="grey" stroke-linecap="round" stroke-width="0.48" x1="864.0" x2="357.57109218453337" y1="602.4289078154667" y2="96.0"/>
    <line fill="none" stroke="grey" stroke-linecap="round" stroke-width="0.48" x1="864.0" x2="345.5769734701366" y1="614.4230265298635" y2="96.0"/>
    <line fill="none" stroke="grey" stroke-linecap="round" stroke-width="0.48" x1="864.0" x2="336.2736122213631" y1="623.7263877786369" y2="96.0"/>
    <line fill="none" stroke="grey" stroke-linecap="round" stroke-width="0.48" x1="864.0" x2="328.67221260079117" y1="631.3277873992088" y2="96.0"/>
    <line fill="none" stroke="grey" stroke-linecap="round" stroke-width="0.48" x1="864.0" x2="322.2453207962523" y1="637.7546792037477" y2="96.0"/>
    <line fill="none" stroke="grey" stroke-linecap="round" stroke-width="0.48" x1="864.0" x2="316.6780938863944" y1="643.3219061136056" y2="96.0"/>
    <line fill="none" stroke="grey" stroke-linecap="round" stroke-width="0.48" x1="864.0" x2="311.76745173144576" y1="648.2325482685542" y2="96.0"/>
    <line fill="none" stroke="grey" stroke-linecap="round" stroke-width="0.48" x1="864.0" x2="499.3747326376209" y1="460.6252673623791" y2="96.0"/>
    <line fill="none" stroke="grey" stroke-linecap="round" stroke-width="0.48" x1="864.0" x2="470.4758530538787" y1="489.52414694612116" y2="96.0"/>
    <line fill="none" stroke="grey" stroke-linecap="round" stroke-width="0.48" x1="864.0" x2="453.5710921845333" y1="506.4289078154666" y2="96.0"/>
    <line fill="none" stroke="grey" stroke-linecap="round" stroke-width="0.48" x1="864.0" x2="441.5769734701365" y1="518.4230265298634" y2="96.0"/>
    <line fill="none" stroke="grey" stroke-linecap="round" stroke-width="0.48" x1="864.0" x2="432.2736122213631" y1="527.7263877786368" y2="96.0"/>
    <line fill="none" stroke="grey" stroke-linecap="round" stroke-width="0.48" x1="864.0" x2="424.6722126007911" y1="535.3277873992088" y2="96.0"/>
    <line fill="none" stroke="grey" stroke-linecap="round" stroke-width="0.48" x1="864.0" x2="418.24532079625226" y1="541.7546792037476" y2="96.0"/>
    <line fill="none" stroke="grey" stroke-linecap="round" stroke-width="0.48" x1="864.0" x2="412.6780938863943" y1="547.3219061136057" y2="96.0"/>
    <line fill="none" stroke="grey" stroke-linecap="round" stroke-width="0.48" x1="864.0" x2="407.7674517314458" y1="552.2325482685542" y2="96.0"/>
    <line fill="none" stroke="grey" stroke-linecap="round" stroke-width="0.48" x1="864.0" x2="595.3747326376209" y1="364.6252673623791" y2="96.0"/>
    <line fill="none" stroke="grey" stroke-linecap="round" stroke-width="0.48" x1="864.0" x2="566.4758530538787" y1="393.5241469461213" y2="96.0"/>
    <line fill="none" stroke="grey" stroke-linecap="round" stroke-width="0.48" x1="864.0" x2="549.5710921845334" y1="410.4289078154667" y2="96.0"/>
    <line fill="none" stroke="grey" stroke-linecap="round" stroke-width="0.48" x1="864.0" x2="537.5769734701366" y1="422.4230265298635" y2="96.0"/>
    <line fill="none" stroke="grey" stroke-linecap="round" stroke-width="0.48" x1="864.0" x2="528.2736122213631" y1="431.7263877786369" y2="96.0"/>
    <line fill="none" stroke="grey" stroke-linecap="round" stroke-width="0.48" x1="864.0" x2="520.6722126007912" y1="439.3277873992089" y2="96.0"/>
    <line fill="none" stroke="grey" stroke-linecap="round" stroke-width="0.48" x1="864.0" x2="514.2453207962523" y1="445.75467920374774" y2="96.0"/>
    <line fill="none" stroke="grey" stroke-linecap="round" stroke-width="0.48" x1="864.0" x2="508.67809388639444" y1="451.3219061136057" y2="96.0"/>
    <line fill="none" stroke="grey" stroke-linecap="round" stroke-width="0.48" x1="864.0" x2="503.7674517314458" y1="456.2325482685542" y2="96.0"/>
    <line fill="none" stroke="grey" stroke-linecap="round" stroke-width="0.48" x1="864.0" x2="691.3747326376209" y1="268.6252673623791" y2="96.0"/>
    <line fill="none" stroke="grey" stroke-linecap="round" stroke-width="0.48" x1="864.0" x2="662.4758530538787" y1="297.5241469461213" y2="96.0"/>
    <line fill="none" stroke="grey" stroke-linecap="round" stroke-width="0.48" x1="864.0" x2="645.5710921845333" y1="314.4289078154667" y2="96.0"/>
    <line fill="none" stroke="grey" stroke-linecap="round" stroke-width="0.48" x1="864.0" x2="633.5769734701365" y1="326.4230265298635" y2="96.0"/>
    <line fill="none" stroke="grey" stroke-linecap="round" stroke-width="0.48" x1="864.0" x2="624.2736122213631" y1="335.7263877786369" y2="96.0"/>
    <line fill="none" stroke="grey" stroke-linecap="round" stroke-width="0.48" x1="864.0" x2="616.6722126007912" y1="343.3277873992089" y2="96.0"/>
    <line fill="none" stroke="grey" stroke-linecap="round" stroke-width="0.48" x1="864.0" x2="610.2453207962523" y1="349.75467920374774" y2="96.0"/>
    <line fill="none" stroke="grey" stroke-linecap="round" stroke-width="0.48" x1="864.0" x2="604.6780938863944" y1="355.3219061136057" y2="96.0"/>
    <line fill="none" stroke="grey" stroke-linecap="round" stroke-width="0.48" x1="864.0" x2="599.7674517314458" y1="360.2325482685541" y2="96.0"/>
    <line fill="none" stroke="grey" stroke-linecap="round" stroke-width="0.48" x1="864.0" x2="787.3747326376209" y1="172.62526736237908" y2="96.0"/>
    <line fill="none" stroke="grey" stroke-linecap="round" stroke-width="0.48" x1="864.0" x2="758.4758530538787" y1="201.52414694612128" y2="96.0"/>
    <line fill="none" stroke="grey" stroke-linecap="round" stroke-width="0.48" x1="864.0" x2="741.5710921845334" y1="218.4289078154666" y2="96.0"/>
    <line fill="none" stroke="grey" stroke-linecap="round" stroke-width="0.48" x1="864.0" x2="729.5769734701365" y1="230.4230265298634" y2="96.0"/>
    <line fill="none" stroke="grey" stroke-linecap="round" stroke-width="0.48" x1="864.0" x2="720.2736122213631" y1="239.72638777863688" y2="96.0"/>
    <line fill="none" stroke="grey" stroke-linecap="round" stroke-width="0.48" x1="864.0" x2="712.6722126007912" y1="247.3277873992088" y2="96.0"/>
    <line fill="none" stroke="grey" stroke-linecap="round" stroke-width="0.48" x1="864.0" x2="706.2453207962523" y1="253.75467920374774" y2="96.0"/>
    <line fill="none" stroke="grey" stroke-linecap="round" stroke-width="0.48" x1="864.0" x2="700.6780938863944" y1="259.32190611360556" y2="96.0"/>
    <line fill="none" stroke="grey" stroke-linecap="round" stroke-width="0.48" x1="864.0" x2="695.7674517314458" y1="264.2325482685542" y2="96.0"/>
    <line fill="none" stroke="grey" stroke-linecap="round" stroke-width="0.48" x1="864.0" x2="854.4758530538787" y1="105.52414694612128" y2="96.0"/>
    <line fill="none" stroke="grey" stroke-linecap="round" stroke-width="0.48" x1="864.0" x2="837.5710921845333" y1="122.4289078154666" y2="96.0"/>
    <line fill="none" stroke="grey" stroke-linecap="round" stroke-width="0.48" x1="864.0" x2="825.5769734701365" y1="134.42302652986348" y2="96.0"/>
    <line fill="none" stroke="grey" stroke-linecap="round" stroke-width="0.48" x1="864.0" x2="816.2736122213631" y1="143.72638777863688" y2="96.0"/>
    <line fill="none" stroke="grey" stroke-linecap="round" stroke-width="0.48" x1="864.0" x2="808.6722126007911" y1="151.3277873992088" y2="96.0"/>
    <line fill="none" stroke="grey" stroke-linecap="round" stroke-width="0.48" x1="864.0" x2="802.2453207962523" y1="157.75467920374766" y2="96.0"/>
    <line fill="none" stroke="grey" stroke-linecap="round" stroke-width="0.48" x1="864.0" x2="796.6780938863943" y1="163.3219061136056" y2="96.0"/>
    <line fill="none" stroke="grey" stroke-linecap="round" stroke-width="0.48" x1="864.0" x2="791.7674517314457" y1="168.2325482685542" y2="96.0"/>
    <line fill="none" stroke="grey" stroke-linecap="round" stroke-width="0.96" x1="115.37473263762097" x2="96.0" y1="672.0" y2="652.6252673623791"/>
    <text fill="black" font-family="sans-serif" font-size="12" text-anchor="end" transform="rotate(45, 84.0, 646.6252673623791)" x="84.0" y="646.6252673623791">100 mF</text>
    <line fill="none" stroke="grey" stroke-linecap="round" stroke-width="0.96" x1="211.37473263762098" x2="96.0" y1="672.0" y2="556.6252673623791"/>
    <text fill="black" font-family="sans-serif" font-size="12" text-anchor="end" transform="rotate(45, 84.0, 550.6252673623791)" x="84.0" y="550.6252673623791">10 mF</text>
    <line fill="none" stroke="grey" stroke-linecap="round" stroke-width="0.96" x1="307.374732637621" x2="96.0" y1="672.0" y2="460.6252673623791"/>
    <text fill="black" font-family="sans-serif" font-size="12" text-anchor="end" transform="rotate(45, 84.0, 454.6252673623791)" x="84.0" y="454.6252673623791">1 mF</text>
    <line fill="none" stroke="grey" stroke-linecap="round" stroke-width="0.96" x1="403.3747326376209" x2="96.0" y1="672.0" y2="364.6252673623791"/>
    <text fill="black" font-family="sans-serif" font-size="12" text-anchor="end" transform="rotate(45, 84.0, 358.6252673623791)" x="84.0" y="358.6252673623791">100 µF</text>
    <line fill="none" stroke="grey" stroke-linecap="round" stroke-width="0.96" x1="499.3747326376209" x2="96.0" y1="672.0" y2="268.6252673623791"/>
    <text fill="black" font-family="sans-serif" font-size="12" text-anchor="end" transform="rotate(45, 84.0, 262.6252673623791)" x="84.0" y="262.6252673623791">10 µF</text>
    <line fill="none" stroke="grey" stroke-linecap="round" stroke-width="0.96" x1="595.3747326376209" x2="96.0" y1="672.0" y2="172.62526736237908"/>
    <text fill="black" font-family="sans-serif" font-size="12" text-anchor="end" transform="rotate(45, 84.0, 166.62526736237908)" x="84.0" y="166.62526736237908">1 µF</text>
    <line fill="none" stroke="grey" stroke-linecap="round" stroke-width="0.96" x1="691.3747326376209" x2="115.37473263762097" y1="672.0" y2="96.0"/>
    <text fill="black" font-family="sans-serif" font-size="12" text-anchor="end" transform="rotate(45, 103.37473263762097, 90.0)" x="103.37473263762097" y="90.0">100 nF</text>
    <line fill="none" stroke="grey" stroke-linecap="round" stroke-width="0.96" x1="787.3747326376209" x2="211.37473263762098" y1="672.0" y2="96.0"/>
    <text fill="black" font-family="sans-serif" font-size="12" text-anchor="end" transform="rotate(45, 199.37473263762098, 90.0)" x="199.37473263762098" y="90.0">10 nF</text>
    <line fill="none" stroke="grey" stroke-linecap="round" stroke-width="0.96" x1="864.0" x2="307.374732637621" y1="652.6252673623791" y2="96.0"/>
    <text fill="black" font-family="sans-serif" font-size="12" text-anchor="end" transform="rotate(45, 295.374732637621, 90.0)" x="295.374732637621" y="90.0">1 nF</text>
    <line fill="none" stroke="grey" stroke-linecap="round" stroke-width="0.96" x1="864.0" x2="403.3747326376209" y1="556.6252673623791" y2="96.0"/>
    <text fill="black" font-family="sans-serif" font-size="12" text-anchor="end" transform="rotate(45, 391.3747326376209, 90.0)" x="391.3747326376209" y="90.0">100 pF</text>
    <line fill="none" stroke="grey" stroke-linecap="round" stroke-width="0.96" x1="864.0" x2="499.3747326376209" y1="460.6252673623791" y2="96.0"/>
    <text fill="black" font-family="sans-serif" font-size="12" text-anchor="end" transform="rotate(45, 487.3747326376209, 90.0)" x="487.3747326376209" y="90.0">10 pF</text>
    <line fill="none" stroke="grey" stroke-linecap="round" stroke-width="0.96" x1="864.0" x2="595.3747326376209" y1="364.6252673623791" y2="96.0"/>
    <text fill="black" font-family="sans-serif" font-size="12" text-anchor="end" transform="rotate(45, 583.3747326376209, 90.0)" x="583.3747326376209" y="90.0">1 pF</text>
    <line fill="none" stroke="grey" stroke-linecap="round" stroke-width="0.96" x1="864.0" x2="691.3747326376209" y1="268.6252673623791" y2="96.0"/>
    <text fill="black" font-family="sans-serif" font-size="12" text-anchor="end" transform="rotate(45, 679.3747326376209, 90.0)" x="679.3747326376209" y="90.0">100 fF</text>
    <line fill="none" stroke="grey" stroke-linecap="round" stroke-width="0.96" x1="864.0" x2="787.3747326376209" y1="172.62526736237908" y2="96.0"/>
    <text fill="black" font-family="sans-serif" font-size="12" text-anchor="end" transform="rotate(45, 775.3747326376209, 90.0)" x="775.3747326376209" y="90.0">10 fF</text>
    <line fill="none" stroke="grey" stroke-linecap="round" stroke-width="0.48" x1="96.0" x2="115.37473263762097" y1="115.37473263762092" y2="96.0"/>
    <line fill="none" stroke="grey" stroke-linecap="round" stroke-width="0.48" x1="96.0" x2="211.37473263762098" y1="211.37473263762092" y2="96.0"/>
    <line fill="none" stroke="grey" stroke-linecap="round" stroke-width="0.48" x1="96.0" x2="182.47585305387878" y1="182.47585305387872" y2="96.0"/>
    <line fill="none" stroke="grey" stroke-linecap="round" stroke-width="0.48" x1="96.0" x2="165.57109218453337" y1="165.5710921845334" y2="96.0"/>
    <line fill="none" stroke="grey" stroke-linecap="round" stroke-width="0.48" x1="96.0" x2="153.57697347013658" y1="153.5769734701366" y2="96.0"/>
    <line fill="none" stroke="grey" stroke-linecap="round" stroke-width="0.48" x1="96.0" x2="144.27361222136318" y1="144.27361222136312" y2="96.0"/>
    <line fill="none" stroke="grey" stroke-linecap="round" stroke-width="0.48" x1="96.0" x2="136.67221260079117" y1="136.6722126007912" y2="96.0"/>
    <line fill="none" stroke="grey" stroke-linecap="round" stroke-width="0.48" x1="96.0" x2="130.24532079625232" y1="130.24532079625226" y2="96.0"/>
    <line fill="none" stroke="grey" stroke-linecap="round" stroke-width="0.48" x1="96.0" x2="124.67809388639436" y1="124.67809388639441" y2="96.0"/>
    <line fill="none" stroke="grey" stroke-linecap="round" stroke-width="0.48" x1="96.0" x2="119.76745173144576" y1="119.76745173144579" y2="96.0"/>
    <line fill="none" stroke="grey" stroke-linecap="round" stroke-width="0.48" x1="96.0" x2="307.374732637621" y1="307.3747326376209" y2="96.0"/>
    <line fill="none" stroke="grey" stroke-linecap="round" stroke-width="0.48" x1="96.0" x2="278.4758530538788" y1="278.4758530538787" y2="96.0"/>
    <line fill="none" stroke="grey" stroke-linecap="round" stroke-width="0.48" x1="96.0" x2="261.57109218453337" y1="261.5710921845334" y2="96.0"/>
    <line fill="none" stroke="grey" stroke-linecap="round" stroke-width="0.48" x1="96.0" x2="249.57697347013658" y1="249.5769734701366" y2="96.0"/>
    <line fill="none" stroke="grey" stroke-linecap="round" stroke-width="0.48" x1="96.0" x2="240.27361222136312" y1="240.27361222136312" y2="96.0"/>
    <line fill="none" stroke="grey" stroke-linecap="round" stroke-width="0.48" x1="96.0" x2="232.6722126007912" y1="232.6722126007912" y2="96.0"/>
    <line fill="none" stroke="grey" stroke-linecap="round" stroke-width="0.48" x1="96.0" x2="226.24532079625232" y1="226.24532079625234" y2="96.0"/>
    <line fill="none" stroke="grey" stroke-linecap="round" stroke-width="0.48" x1="96.0" x2="220.67809388639438" y1="220.6780938863944" y2="96.0"/>
    <line fill="none" stroke="grey" stroke-linecap="round" stroke-width="0.48" x1="96.0" x2="215.7674517314458" y1="215.7674517314458" y2="96.0"/>
    <line fill="none" stroke="grey" stroke-linecap="round" stroke-width="0.48" x1="96.0" x2="403.3747326376209" y1="403.3747326376209" y2="96.0"/>
    <line fill="none" stroke="grey" stroke-linecap="round" stroke-width="0.48" x1="96.0" x2="374.4758530538788" y1="374.4758530538787" y2="96.0"/>
    <line fill="none" stroke="grey" stroke-linecap="round" stroke-width="0.48" x1="96.0" x2="357.57109218453337" y1="357.5710921845333" y2="96.0"/>
    <line fill="none" stroke="grey" stroke-linecap="round" stroke-width="0.48" x1="96.0" x2="345.5769734701366" y1="345.5769734701365" y2="96.0"/>
    <line fill="none" stroke="grey" stroke-linecap="round" stroke-width="0.48" x1="96.0" x2="336.2736122213632" y1="336.2736122213631" y2="96.0"/>
    <line fill="none" stroke="grey" stroke-linecap="round" stroke-width="0.48" x1="96.0" x2="328.67221260079117" y1="328.6722126007911" y2="96.0"/>
    <line fill="none" stroke="grey" stroke-linecap="round" stroke-width="0.48" x1="96.0" x2="322.2453207962523" y1="322.24532079625226" y2="96.0"/>
    <line fill="none" stroke="grey" stroke-linecap="round" stroke-width="0.48" x1="96.0" x2="316.6780938863944" y1="316.6780938863943" y2="96.0"/>
    <line fill="none" stroke="grey" stroke-linecap="round" stroke-width="0.48" x1="96.0" x2="311.76745173144576" y1="311.7674517314459" y2="96.0"/>
    <line fill="none" stroke="grey" stroke-linecap="round" stroke-width="0.48" x1="96.0" x2="499.3747326376209" y1="499.37473263762104" y2="96.0"/>
    <line fill="none" stroke="grey" stroke-linecap="round" stroke-width="0.48" x1="96.0" x2="470.4758530538787" y1="470.4758530538787" y2="96.0"/>
    <line fill="none" stroke="grey" stroke-linecap="round" stroke-width="0.48" x1="96.0" x2="453.5710921845333" y1="453.5710921845333" y2="96.0"/>
    <line fill="none" stroke="grey" stroke-linecap="round" stroke-width="0.48" x1="96.0" x2="441.5769734701365" y1="441.5769734701365" y2="96.0"/>
    <line fill="none" stroke="grey" stroke-linecap="round" stroke-width="0.48" x1="96.0" x2="432.2736122213631" y1="432.2736122213631" y2="96.0"/>
    <line fill="none" stroke="grey" stroke-linecap="round" stroke-width="0.48" x1="96.0" x2="424.6722126007911" y1="424.6722126007911" y2="96.0"/>
    <line fill="none" stroke="grey" stroke-linecap="round" stroke-width="0.48" x1="96.0" x2="418.24532079625226" y1="418.24532079625226" y2="96.0"/>
    <line fill="none" stroke="grey" stroke-linecap="round" stroke-width="0.48" x1="96.0" x2="412.6780938863943" y1="412.6780938863943" y2="96.0"/>
    <line fill="none" stroke="grey" stroke-linecap="round" stroke-width="0.48" x1="96.0" x2="407.7674517314457" y1="407.7674517314459" y2="96.0"/>
    <line fill="none" stroke="grey" stroke-linecap="round" stroke-width="0.48" x1="96.0" x2="595.3747326376209" y1="595.3747326376209" y2="96.0"/>
    <line fill="none" stroke="grey" stroke-linecap="round" stroke-width="0.48" x1="96.0" x2="566.4758530538787" y1="566.4758530538787" y2="96.0"/>
    <line fill="none" stroke="grey" stroke-linecap="round" stroke-width="0.48" x1="96.0" x2="549.5710921845334" y1="549.5710921845333" y2="96.0"/>
    <line fill="none" stroke="grey" stroke-linecap="round" stroke-width="0.48" x1="96.0" x2="537.5769734701366" y1="537.5769734701366" y2="96.0"/>
    <line fill="none" stroke="grey" stroke-linecap="round" stroke-width="0.48" x1="96.0" x2="528.2736122213631" y1="528.2736122213631" y2="96.0"/>
    <line fill="none" stroke="grey" stroke-linecap="round" stroke-width="0.48" x1="96.0" x2="520.6722126007912" y1="520.6722126007912" y2="96.0"/>
    <line fill="none" stroke="grey" stroke-linecap="round" stroke-width="0.48" x1="96.0" x2="514.2453207962523" y1="514.2453207962524" y2="96.0"/>
    <line fill="none" stroke="grey" stroke-linecap="round" stroke-width="0.48" x1="96.0" x2="508.67809388639444" y1="508.67809388639444" y2="96.0"/>
    <line fill="none" stroke="grey" stroke-linecap="round" stroke-width="0.48" x1="96.0" x2="503.7674517314458" y1="503.7674517314458" y2="96.0"/>
    <line fill="none" stroke="grey" stroke-linecap="round" stroke-width="0.48" x1="115.37473263762097" x2="691.3747326376209" y1="672.0" y2="96.0"/>
    <line fill="none" stroke="grey" stroke-linecap="round" stroke-width="0.48" x1="96.0" x2="662.4758530538787" y1="662.4758530538787" y2="96.0"/>
    <line fill="none" stroke="grey" stroke-linecap="round" stroke-width="0.48" x1="96.0" x2="645.5710921845333" y1="645.5710921845333" y2="96.0"/>
    <line fill="none" stroke="grey" stroke-linecap="round" stroke-width="0.48" x1="96.0" x2="633.5769734701365" y1="633.5769734701365" y2="96.0"/>
    <line fill="none" stroke="grey" stroke-linecap="round" stroke-width="0.48" x1="96.0" x2="624.2736122213631" y1="624.2736122213631" y2="96.0"/>
    <line fill="none" stroke="grey" stroke-linecap="round" stroke-width="0.48" x1="96.0" x2="616.6722126007912" y1="616.6722126007911" y2="96.0"/>
    <line fill="none" stroke="grey" stroke-linecap="round" stroke-width="0.48" x1="96.0" x2="610.2453207962523" y1="610.2453207962523" y2="96.0"/>
    <line fill="none" stroke="grey" stroke-linecap="round" stroke-width="0.48" x1="96.0" x2="604.6780938863944" y1="604.6780938863943" y2="96.0"/>
    <line fill="none" stroke="grey" stroke-linecap="round" stroke-width="0.48" x1="96.0" x2="599.7674517314458" y1="599.7674517314457" y2="96.0"/>
    <line fill="none" stroke="grey" stroke-linecap="round" stroke-width="0.48" x1="211.37473263762098" x2="787.3747326376209" y1="672.0" y2="96.0"/>
    <line fill="none" stroke="grey" stroke-linecap="round" stroke-width="0.48" x1="182.47585305387878" x2="758.4758530538787" y1="672.0" y2="96.0"/>
    <line fill="none" stroke="grey" stroke-linecap="round" stroke-width="0.48" x1="165.57109218453337" x2="741.5710921845334" y1="672.0" y2="96.0"/>
    <line fill="none" stroke="grey" stroke-linecap="round" stroke-width="0.48" x1="153.57697347013658" x2="729.5769734701365" y1="672.0" y2="96.0"/>
    <line fill="none" stroke="grey" stroke-linecap="round" stroke-width="0.48" x1="144.27361222136318" x2="720.2736122213631" y1="672.0" y2="96.0"/>
    <line fill="none" stroke="grey" stroke-linecap="round" stroke-width="0.48" x1="136.67221260079117" x2="712.6722126007912" y1="672.0" y2="96.0"/>
    <line fill="none" stroke="grey" stroke-linecap="round" stroke-width="0.48" x1="130.24532079625232" x2="706.2453207962523" y1="672.0" y2="96.0"/>
    <line fill="none" stroke="grey" stroke-linecap="round" stroke-width="0.48" x1="124.67809388639436" x2="700.6780938863943" y1="672.0" y2="96.0"/>
    <line fill="none" stroke="grey" stroke-linecap="round" stroke-width="0.48" x1="119.76745173144576" x2="695.7674517314458" y1="672.0" y2="96.0"/>
    <line fill="none" stroke="grey" stroke-linecap="round" stroke-width="0.48" x1="307.374732637621" x2="864.0" y1="672.0" y2="115.37473263762092"/>
    <line fill="none" stroke="grey" stroke-linecap="round" stroke-width="0.48" x1="278.4758530538788" x2="854.4758530538787" y1="672.0" y2="96.0"/>
    <line fill="none" stroke="grey" stroke-linecap="round" stroke-width="0.48" x1="261.57109218453337" x2="837.5710921845333" y1="672.0" y2="96.0"/>
    <line fill="none" stroke="grey" stroke-linecap="round" stroke-width="0.48" x1="249.57697347013658" x2="825.5769734701365" y1="672.0" y2="96.0"/>
    <line fill="none" stroke="grey" stroke-linecap="round" stroke-width="0.48" x1="240.27361222136312" x2="816.2736122213631" y1="672.0" y2="96.0"/>
    <line fill="none" stroke="grey" stroke-linecap="round" stroke-width="0.48" x1="232.6722126007912" x2="808.6722126007911" y1="672.0" y2="96.0"/>
    <line fill="none" stroke="grey" stroke-linecap="round" stroke-width="0.48" x1="226.24532079625232" x2="802.2453207962523" y1="672.0" y2="96.0"/>
    <line fill="none" stroke="grey" stroke-linecap="round" stroke-width="0.48" x1="220.67809388639438" x2="796.6780938863943" y1="672.0" y2="96.0"/>
    <line fill="none" stroke="grey" stroke-linecap="round" stroke-width="0.48" x1="215.7674517314458" x2="791.7674517314457" y1="672.0" y2="96.0"/>
    <line fill="none" stroke="grey" stroke-linecap="round" stroke-width="0.48" x1="403.3747326376209" x2="864.0" y1="672.0" y2="211.37473263762092"/>
    <line fill="none" stroke="grey" stroke-linecap="round" stroke-width="0.48" x1="374.4758530538788" x2="864.0" y1="672.0" y2="182.4758530538788"/>
    <line fill="none" stroke="grey" stroke-linecap="round" stroke-width="0.48" x1="357.57109218453337" x2="864.0" y1="672.0" y2="165.5710921845334"/>
    <line fill="none" stroke="grey" stroke-linecap="round" stroke-width="0.48" x1="345.5769734701366" x2="864.0" y1="672.0" y2="153.5769734701366"/>
    <line fill="none" stroke="grey" stroke-linecap="round" stroke-width="0.48" x1="336.2736122213631" x2="864.0" y1="672.0" y2="144.27361222136312"/>
    <line fill="none" stroke="grey" stroke-linecap="round" stroke-width="0.48" x1="328.67221260079117" x2="864.0" y1="672.0" y2="136.6722126007912"/>
    <line fill="none" stroke="grey" stroke-linecap="round" stroke-width="0.48" x1="322.2453207962523" x2="864.0" y1="672.0" y2="130.24532079625226"/>
    <line fill="none" stroke="grey" stroke-linecap="round" stroke-width="0.48" x1="316.6780938863944" x2="864.0" y1="672.0" y2="124.67809388639441"/>
    <line fill="none" stroke="grey" stroke-linecap="round" stroke-width="0.48" x1="311.76745173144576" x2="864.0" y1="672.0" y2="119.76745173144579"/>
    <line fill="none" stroke="grey" stroke-linecap="round" stroke-width="0.48" x1="499.3747326376209" x2="864.0" y1="672.0" y2="307.3747326376209"/>
    <line fill="none" stroke="grey" stroke-linecap="round" stroke-width="0.48" x1="470.4758530538787" x2="864.0" y1="672.0" y2="278.4758530538787"/>
    <line fill="none" stroke="grey" stroke-linecap="round" stroke-width="0.48" x1="453.5710921845333" x2="864.0" y1="672.0" y2="261.5710921845334"/>
    <line fill="none" stroke="grey" stroke-linecap="round" stroke-width="0.48" x1="441.5769734701365" x2="864.0" y1="672.0" y2="249.5769734701366"/>
    <line fill="none" stroke="grey" stroke-linecap="round" stroke-width="0.48" x1="432.2736122213631" x2="864.0" y1="672.0" y2="240.27361222136312"/>
    <line fill="none" stroke="grey" stroke-linecap="round" stroke-width="0.48" x1="424.6722126007911" x2="864.0" y1="672.0" y2="232.6722126007912"/>
    <line fill="none" stroke="grey" stroke-linecap="round" stroke-width="0.48" x1="418.24532079625226" x2="864.0" y1="672.0" y2="226.24532079625234"/>
    <line fill="none" stroke="grey" stroke-linecap="round" stroke-width="0.48" x1="412.6780938863943" x2="864.0" y1="672.0" y2="220.6780938863944"/>
    <line fill="none" stroke="grey" stroke-linecap="round" stroke-width="0.48" x1="407.7674517314457" x2="864.0" y1="672.0" y2="215.7674517314458"/>
    <line fill="none" stroke="grey" stroke-linecap="round" stroke-width="0.48" x1="595.3747326376209" x2="864.0" y1="672.0" y2="403.3747326376209"/>
    <line fill="none" stroke="grey" stroke-linecap="round" stroke-width="0.48" x1="566.4758530538787" x2="864.0" y1="672.0" y2="374.4758530538787"/>
    <line fill="none" stroke="grey" stroke-linecap="round" stroke-width="0.48" x1="549.5710921845334" x2="864.0" y1="672.0" y2="357.5710921845333"/>
    <line fill="none" stroke="grey" stroke-linecap="round" stroke-width="0.48" x1="537.5769734701366" x2="864.0" y1="672.0" y2="345.5769734701365"/>
    <line fill="none" stroke="grey" stroke-linecap="round" stroke-width="0.48" x1="528.2736122213631" x2="864.0" y1="672.0" y2="336.2736122213631"/>
    <line fill="none" stroke="grey" stroke-linecap="round" stroke-width="0.48" x1="520.6722126007912" x2="864.0" y1="672.0" y2="328.6722126007911"/>
    <line fill="none" stroke="grey" stroke-linecap="round" stroke-width="0.48" x1="514.2453207962523" x2="864.0" y1="672.0" y2="322.24532079625226"/>
    <line fill="none" stroke="grey" stroke-linecap="round" stroke-width="0.48" x1="508.67809388639444" x2="864.0" y1="672.0" y2="316.6780938863943"/>
    <line fill="none" stroke="grey" stroke-linecap="round" stroke-width="0.48" x1="503.7674517314458" x2="864.0" y1="672.0" y2="311.7674517314459"/>
    <line fill="none" stroke="grey" stroke-linecap="round" stroke-width="0.48" x1="691.3747326376209" x2="864.0" y1="672.0" y2="499.37473263762104"/>
    <line fill="none" stroke="grey" stroke-linecap="round" stroke-width="0.48" x1="662.4758530538787" x2="864.0" y1="672.0" y2="470.4758530538787"/>
    <line fill="none" stroke="grey" stroke-linecap="round" stroke-width="0.48" x1="645.5710921845334" x2="864.0" y1="672.0" y2="453.5710921845333"/>
    <line fill="none" stroke="grey" stroke-linecap="round" stroke-width="0.48" x1="633.5769734701365" x2="864.0" y1="672.0" y2="441.5769734701365"/>
    <line fill="none" stroke="grey" stroke-linecap="round" stroke-width="0.48" x1="624.2736122213631" x2="864.0" y1="672.0" y2="432.2736122213631"/>
    <line fill="none" stroke="grey" stroke-linecap="round" stroke-width="0.48" x1="616.6722126007912" x2="864.0" y1="672.0" y2="424.6722126007911"/>
    <line fill="none" stroke="grey" stroke-linecap="round" stroke-width="0.48" x1="610.2453207962524" x2="864.0" y1="672.0" y2="418.24532079625226"/>
    <line fill="none" stroke="grey" stroke-linecap="round" stroke-width="0.48" x1="604.6780938863944" x2="864.0" y1="672.0" y2="412.6780938863943"/>
    <line fill="none" stroke="grey" stroke-linecap="round" stroke-width="0.48" x1="599.7674517314458" x2="864.0" y1="672.0" y2="407.7674517314459"/>
    <line fill="none" stroke="grey" stroke-linecap="round" stroke-width="0.48" x1="787.3747326376209" x2="864.0" y1="672.0" y2="595.3747326376209"/>
    <line fill="none" stroke="grey" stroke-linecap="round" stroke-width="0.48" x1="758.4758530538787" x2="864.0" y1="672.0" y2="566.4758530538787"/>
    <line fill="none" stroke="grey" stroke-linecap="round" stroke-width="0.48" x1="741.5710921845334" x2="864.0" y1="672.0" y2="549.5710921845333"/>
    <line fill="none" stroke="grey" stroke-linecap="round" stroke-width="0.48" x1="729.5769734701365" x2="864.0" y1="672.0" y2="537.5769734701366"/>
    <line fill="none" stroke="grey" stroke-linecap="round" stroke-width="0.48" x1="720.2736122213631" x2="864.0" y1="672.0" y2="528.2736122213632"/>
    <line fill="none" stroke="grey" stroke-linecap="round" stroke-width="0.48" x1="712.6722126007912" x2="864.0" y1="672.0" y2="520.6722126007912"/>
    <line fill="none" stroke="grey" stroke-linecap="round" stroke-width="0.48" x1="706.2453207962523" x2="864.0" y1="672.0" y2="514.2453207962524"/>
    <line fill="none" stroke="grey" stroke-linecap="round" stroke-width="0.48" x1="700.6780938863944" x2="864.0" y1="672.0" y2="508.67809388639444"/>
    <line fill="none" stroke="grey" stroke-linecap="round" stroke-width="0.48" x1="695.7674517314458" x2="864.0" y1="672.0" y2="503.7674517314458"/>
    <line fill="none" stroke="grey" stroke-linecap="round" stroke-width="0.48" x1="854.4758530538787" x2="864.0" y1="672.0" y2="662.4758530538787"/>
    <line fill="none" stroke="grey" stroke-linecap="round" stroke-width="0.48" x1="837.5710921845333" x2="864.0" y1="672.0" y2="645.5710921845333"/>
    <line fill="none" stroke="grey" stroke-linecap="round" stroke-width="0.48" x1="825.5769734701365" x2="864.0" y1="672.0" y2="633.5769734701365"/>
    <line fill="none" stroke="grey" stroke-linecap="round" stroke-width="0.48" x1="816.2736122213631" x2="864.0" y1="672.0" y2="624.2736122213631"/>
    <line fill="none" stroke="grey" stroke-linecap="round" stroke-width="0.48" x1="808.6722126007911" x2="864.0" y1="672.0" y2="616.6722126007912"/>
    <line fill="none" stroke="grey" stroke-linecap="round" stroke-width="0.48" x1="802.2453207962523" x2="864.0" y1="672.0" y2="610.2453207962523"/>
    <line fill="none" stroke="grey" stroke-linecap="round" stroke-width="0.48" x1="796.6780938863943" x2="864.0" y1="672.0" y2="604.6780938863943"/>
    <line fill="none" stroke="grey" stroke-linecap="round" stroke-width="0.48" x1="791.7674517314457" x2="864.0" y1="672.0" y2="599.7674517314457"/>
    <line fill="none" stroke="grey" stroke-linecap="round" stroke-width="0.96" x1="96.0" x2="115.37473263762097" y1="115.37473263762092" y2="96.0"/>
    <text fill="black" font-family="sans-serif" font-size="12" text-anchor="start" transform="rotate(-45, 127.37473263762097, 90.0)" x="127.37473263762097" y="90.0">100 kH</text>
    <line fill="none" stroke="grey" stroke-linecap="round" stroke-width="0.96" x1="96.0" x2="211.37473263762098" y1="211.37473263762092" y2="96.0"/>
    <text fill="black" font-family="sans-serif" font-size="12" text-anchor="start" transform="rotate(-45, 223.37473263762098, 90.0)" x="223.37473263762098" y="90.0">10 kH</text>
    <line fill="none" stroke="grey" stroke-linecap="round" stroke-width="0.96" x1="96.0" x2="307.374732637621" y1="307.3747326376209" y2="96.0"/>
    <text fill="black" font-family="sans-serif" font-size="12" text-anchor="start" transform="rotate(-45, 319.374732637621, 90.0)" x="319.374732637621" y="90.0">1 kH</text>
    <line fill="none" stroke="grey" stroke-linecap="round" stroke-width="0.96" x1="96.0" x2="403.3747326376209" y1="403.3747326376209" y2="96.0"/>
    <text fill="black" font-family="sans-serif" font-size="12" text-anchor="start" transform="rotate(-45, 415.3747326376209, 90.0)" x="415.3747326376209" y="90.0">100 H</text>
    <line fill="none" stroke="grey" stroke-linecap="round" stroke-width="0.96" x1="96.0" x2="499.3747326376209" y1="499.37473263762104" y2="96.0"/>
    <text fill="black" font-family="sans-serif" font-size="12" text-anchor="start" transform="rotate(-45, 511.3747326376209, 90.0)" x="511.3747326376209" y="90.0">10 H</text>
    <line fill="none" stroke="grey" stroke-linecap="round" stroke-width="0.96" x1="96.0" x2="595.3747326376209" y1="595.3747326376209" y2="96.0"/>
    <text fill="black" font-family="sans-serif" font-size="12" text-anchor="start" transform="rotate(-45, 607.3747326376209, 90.0)" x="607.3747326376209" y="90.0">1 H</text>
    <line fill="none" stroke="grey" stroke-linecap="round" stroke-width="0.96" x1="115.37473263762097" x2="691.3747326376209" y1="672.0" y2="96.0"/>
    <text fill="black" font-family="sans-serif" font-size="12" text-anchor="start" transform="rotate(-45, 703.3747326376209, 90.0)" x="703.3747326376209" y="90.0">100 mH</text>
    <line fill="none" stroke="grey" stroke-linecap="round" stroke-width="0.96" x1="211.37473263762098" x2="787.3747326376209" y1="672.0" y2="96.0"/>
    <text fill="black" font-family="sans-serif" font-size="12" text-anchor="start" transform="rotate(-45, 799.3747326376209, 90.0)" x="799.3747326376209" y="90.0">10 mH</text>
    <line fill="none" stroke="grey" stroke-linecap="round" stroke-width="0.96" x1="307.374732637621" x2="864.0" y1="672.0" y2="115.37473263762092"/>
    <text fill="black" font-family="sans-serif" font-size="12" text-anchor="start" transform="rotate(-45, 876.0, 109.37473263762092)" x="876.0" y="109.37473263762092">1 mH</text>
    <line fill="none" stroke="grey" stroke-linecap="round" stroke-width="0.96" x1="403.3747326376209" x2="864.0" y1="672.0" y2="211.37473263762092"/>
    <text fill="black" font-family="sans-serif" font-size="12" text-anchor="start" transform="rotate(-45, 876.0, 205.37473263762092)" x="876.0" y="205.37473263762092">100 µH</text>
    <line fill="none" stroke="grey" stroke-linecap="round" stroke-width="0.96" x1="499.3747326376209" x2="864.0" y1="672.0" y2="307.3747326376209"/>
    <text fill="black" font-family="sans-serif" font-size="12" text-anchor="start" transform="rotate(-45, 876.0, 301.3747326376209)" x="876.0" y="301.3747326376209">10 µH</text>
    <line fill="none" stroke="grey" stroke-linecap="round" stroke-width="0.96" x1="595.3747326376209" x2="864.0" y1="672.0" y2="403.3747326376209"/>
    <text fill="black" font-family="sans-serif" font-size="12" text-anchor="start" transform="rotate(-45, 876.0, 397.3747326376209)" x="876.0" y="397.3747326376209">1 µH</text>
    <line fill="none" stroke="grey" stroke-linecap="round" stroke-width="0.96" x1="691.3747326376209" x2="864.0" y1="672.0" y2="499.37473263762104"/>
    <text fill="black" font-family="sans-serif" font-size="12" text-anchor="start" transform="rotate(-45, 876.0, 493.37473263762104)" x="876.0" y="493.37473263762104">100 nH</text>
    <line fill="none" stroke="grey" stroke-linecap="round" stroke-width="0.96" x1="787.3747326376209" x2="864.0" y1="672.0" y2="595.3747326376209"/>
    <text fill="black" font-family="sans-serif" font-size="12" text-anchor="start" transform="rotate(-45, 876.0, 589.3747326376209)" x="876.0" y="589.3747326376209">10 nH</text>
    <line fill="none" stroke="black" stroke-linecap="round" stroke-width="1.44" x1="96.0" x2="864.0" y1="672.0" y2="672.0"/>
    <line fill="none" stroke="black" stroke-linecap="round" stroke-width="1.44" x1="96.0" x2="864.0" y1="96.0" y2="96.0"/>
    <line fill="none" stroke="black" stroke-linecap="round" stroke-width="1.44" x1="96.0" x2="96.0" y1="672.0" y2="96.0"/>
    <line fill="none" stroke="black" stroke-linecap="round" stroke-width="1.44" x1="864.0" x2="864.0" y1="672.0" y2="96.0"/>
  </g>
  <g id="traces">
    <polyline fill="none" points="96.0,124.89908532747998 97.92,124.89910517715717 99.84,124.89912694187362 101.76,124.8991508063848 103.68,124.89917697326948 105.60000000000001,124.89920566465022 107.52000000000001,124.89923712407827 109.44000000000001,124.89927161860058 111.36000000000001,124.89930944102665 113.28000000000002,124.89935091241318 115.20000000000002,124.89939638478947 117.12000000000002,124.89944624414468 119.04000000000002,124.89950091370329 120.96000000000002,124.89956085751768 122.88000000000002,124.89962658440496 124.80000000000003,124.89969865226558 126.72000000000003,124.8997776728171 128.64000000000004,124.89986431678449 130.56000000000003,124.89995931959177 132.48000000000002,124.90006348760073 134.40000000000003,124.9001777049532 136.32000000000005,124.90030294107044 138.24000000000004,124.90044025887752 140.16000000000003,124.9005908238195 142.08000000000004,124.90075591374531 144.00000000000006,124.9009369297469 145.92000000000004,124.90113540803918 147.84000000000006,124.901353032987 149.76000000000008,124.90159165138581 151.68000000000006,124.90185328811819 153.60000000000008,124.90214016331643 155.52000000000007,124.9024547111787 157.44000000000008,124.90279960059613 159.3600000000001,124.90317775776438 161.2800000000001,124.90359239096964 163.2000000000001,124.9040470177597 165.12000000000012,124.90454549472688 167.0400000000001,124.90509205015294 168.9600000000001,124.90569131979055 170.8800000000001,124.90634838608176 172.80000000000013,124.90706882114023 174.7200000000001,124.9078587338577 176.6400000000001,124.90872482152767 178.56000000000012,124.90967442641784 180.48000000000013,124.9107155977583 182.40000000000012,124.91185715966557 184.32000000000014,124.91310878555944 186.24000000000012,124.91448107969288 188.16000000000014,124.91598566646493 190.08000000000015,124.91763528824853 192.00000000000017,124.91944391253989 193.92000000000013,124.92142684930081 195.84000000000017,124.92360087944874 197.76000000000013,124.92598439553788 199.68000000000018,124.92859755576228 201.60000000000014,124.93146245252012 203.52000000000018,124.93460329687989 205.44000000000014,124.93804662041441 207.36000000000018,124.94182149598916 209.2800000000002,124.94595977923186 211.2000000000002,124.95049637255204 213.12000000000018,124.95546951374016 215.0400000000002,124.96092109133608 216.9600000000002,124.96689698913738 218.8800000000002,124.97344746240063 220.80000000000018,124.98062754848749 222.7200000000002,124.98849751491221 224.64000000000024,124.99712334795308 226.5600000000002,125.00657728522285 228.4800000000002,125.01693839580363 230.4000000000002,125.02829321178612 232.32000000000025,125.04073641527293 234.2400000000002,125.05437158512689 236.16000000000025,125.06931200794835 238.0800000000002,125.085681557958 240.00000000000026,125.10361565061638 241.92000000000021,125.12326227494216 243.84000000000026,125.1447831095567 245.76000000000022,125.1683547274938 247.68000000000026,125.19416989473723 249.60000000000022,125.22243896726229 251.52000000000027,125.2533913910498 253.44000000000023,125.28727730906249 255.36000000000027,125.32436927850924 257.2800000000002,125.36496410081875 259.2000000000003,125.40938476556323 261.12000000000023,125.45798250807039 263.0400000000003,125.51113897856337 264.96000000000026,125.56926851834669 266.8800000000003,125.63282053571018 268.8000000000003,125.70228197082267 270.72000000000025,125.77817983483712 272.64000000000027,125.86108380368458 274.5600000000003,125.95160884153236 276.4800000000003,126.05041782257956 278.4000000000003,126.15822411272757 280.3200000000003,126.27579406471577 282.2400000000003,126.40394937157723 284.1600000000003,126.54356921384397 286.08000000000027,126.69559212597855 288.0000000000003,126.8610174972541 289.9200000000003,127.04090661208485 291.8400000000003,127.23638312505844 293.76000000000033,127.44863285718961 295.6800000000003,127.67890279290393 297.6000000000003,127.92849915273328 299.5200000000003,128.19878441562807 301.4400000000003,128.49117316811058 303.3600000000003,128.80712666626778 305.2800000000003,129.14814601181035 307.20000000000033,129.51576386596517 309.12000000000035,129.91153465550704 311.0400000000003,130.33702326404136 312.9600000000003,130.7937922485694 314.88000000000034,131.28338767558412 316.8000000000003,131.80732373099264 318.7200000000003,132.36706632174992 320.6400000000003,132.96401595122134 322.56000000000034,133.59949021127932 324.48000000000036,134.27470628783337 326.4000000000004,134.99076391854396 328.3200000000004,135.74862926771797 330.24000000000035,136.54912019025792 332.1600000000003,137.39289334148282 334.0800000000004,138.28043355152275 336.00000000000034,139.21204582231988 337.92000000000036,140.187850224366 339.8400000000004,141.20777987316774 341.76000000000033,142.27158205750882 343.68000000000035,143.37882247927806 345.60000000000036,144.52889245477846 347.5200000000004,145.72101882661937 349.4400000000004,146.95427624928513 351.3600000000004,148.2276014447307 353.2800000000004,149.53980897968452 355.2000000000004,150.8896080947607 357.1200000000004,152.27562011632077 359.0400000000004,153.69639600307596 360.9600000000004,155.15043361737847 362.8800000000004,156.6361943619727 364.8000000000004,158.15211888232238 366.7200000000004,159.69664159826473 368.64000000000044,161.2682038928305 370.5600000000004,162.86526584738513 372.4800000000004,164.4863164683088 374.40000000000043,166.12988239954458 376.3200000000004,167.7945351565004 378.2400000000004,169.47889694967336 380.1600000000004,171.1816451911301 382.08000000000044,172.90151579420578 384.00000000000045,174.63730538729877 385.92000000000047,176.38787256740588 387.84000000000043,178.15213831911433 389.7600000000004,179.92908572112648 391.6800000000004,181.7177590560011 393.6000000000005,183.5172624304809 395.52000000000044,185.326758004252 397.4400000000005,187.1454639148459 399.3600000000005,188.97265197611168 401.2800000000005,190.80764521762018 403.20000000000044,192.64981532276607 405.12000000000046,194.4985800143928 407.04000000000053,196.3534004285843 408.9600000000005,198.21377850990004 410.88000000000045,200.0792544547942 412.8000000000005,201.94940422423147 414.72000000000054,203.82383714155668 416.6400000000005,205.70219358743802 418.56000000000046,207.5841428001203 420.4800000000005,209.46938078623367 422.40000000000055,211.35762834493178 424.3200000000005,213.24862920612912 426.24000000000046,215.1421482819917 428.16000000000054,217.0379700295725 430.08000000000055,218.93589692150297 432.0000000000005,220.83574802092647 433.92000000000047,222.73735765633066 435.8400000000005,224.64057419158306 437.76000000000056,226.54525888625827 439.6800000000005,228.45128484124044 441.6000000000005,230.35853602457138 443.52000000000055,232.26690637257204 445.44000000000057,234.17629896137572 447.3600000000005,236.08662524416366 449.2800000000005,237.99780434957793 451.2000000000005,239.9097624369872 453.1200000000006,241.8224321045009 455.04000000000053,243.73575184585113 456.9600000000006,245.64966555248714 458.8800000000006,247.56412205745875 460.8000000000006,249.47907471788253 462.72000000000054,251.39448103300765 464.64000000000055,253.3103022951038 466.5600000000006,255.22650327059742 468.4800000000006,257.14305190907487 470.40000000000055,259.0599190779525 472.3200000000006,260.9770783207873 474.24000000000063,262.89450563736693 476.1600000000006,264.81217928386536 478.08000000000055,266.73007959150334 480.00000000000057,268.6481888022804 481.92000000000064,270.5664909204754 483.8400000000006,272.48497157873265 485.7600000000007,274.40361791765713 487.68000000000063,276.3224184779525 489.60000000000065,278.2413631042272 491.5200000000006,280.160442859692 493.4400000000006,282.0796499510526 495.3600000000006,283.9989776629866 497.28000000000065,285.918420301671 499.2000000000006,287.83797314689707 501.1200000000007,289.7576324123826 503.04000000000065,291.67739521395754 504.96000000000066,293.5972595453635 506.8800000000006,295.5172242614714 508.80000000000064,297.43728906878425 510.7200000000006,299.35745452315007 512.6400000000007,301.27772203467487 514.5600000000006,303.1980938798816 516.4800000000007,305.118573221227 518.4000000000007,307.0391641341466 520.3200000000006,308.9598716418654 522.2400000000007,310.8807017582766 524.1600000000007,312.8016615392608 526.0800000000006,314.7227591428895 528.0000000000007,316.6440038990356 529.9200000000006,318.56540638899327 531.8400000000007,320.48697853579745 533.7600000000007,322.4087337060265 535.6800000000007,324.33068682397254 537.6000000000006,326.2528544991726 539.5200000000007,328.17525516841124 541.4400000000006,330.0979092534353 543.3600000000007,332.02083933576006 545.2800000000007,333.9440703501005 547.2000000000007,335.86762979812914 549.1200000000007,337.7915479844462 551.0400000000006,339.7158582768513 552.9600000000007,341.6405973932299 554.8800000000007,343.56580571761293 556.8000000000008,345.49152764824424 558.7200000000007,347.41781198078917 560.6400000000008,349.3447123301546 562.5600000000007,351.2722875947639 564.4800000000007,353.20060246754105 566.4000000000008,355.1297279983217 568.3200000000007,357.05974221292314 570.2400000000007,358.99073079467826 572.1600000000008,360.92278783488393 574.0800000000007,362.85601665933507 576.0000000000008,364.7905307389277 577.9200000000008,366.72645469322697 579.8400000000008,368.66392539692663 581.7600000000007,370.60309320029427 583.6800000000007,372.5441232760159 585.6000000000007,374.4871971063565 587.5200000000008,376.4325141262644 589.4400000000007,378.38029354000133 591.3600000000008,380.33077633112043 593.2800000000008,382.28422748818593 595.2000000000007,384.2409384715939 597.1200000000008,386.2012299502809 599.0400000000008,388.1654548410813 600.9600000000008,390.1340016881225 602.8800000000008,392.10729842504526 604.8000000000009,394.0858165691753 606.7200000000008,396.0700759042136 608.6400000000008,398.0606497168146 610.5600000000009,400.0581706628573 612.4800000000008,402.0633373516263 614.4000000000008,404.0769217509821 616.3200000000008,406.0997775344361 618.2400000000008,408.13284951257424 620.1600000000009,410.1771843173713 622.0800000000008,412.2339425397474 624.0000000000009,414.3044125596614 625.9200000000008,416.3900263560131 627.8400000000008,418.49237764302916 629.7600000000008,420.6132427538262 631.6800000000009,422.7546047846348 633.6000000000008,424.91868163027846 635.5200000000009,427.10795869033007 637.4400000000009,429.3252272159225 639.3600000000008,431.5736295130917 641.2800000000009,433.8567125385398 643.2000000000008,436.17849184390565 645.1200000000008,438.54352838171934 647.0400000000009,440.957021432466 648.9600000000008,443.42492192300267 650.8800000000009,445.9540717923273 652.8000000000009,448.5523769853926 654.7200000000009,451.2290243670732 656.6400000000009,453.99475672771393 658.5600000000009,456.8622256969885 660.4800000000009,459.8464507530628 662.4000000000009,462.96542518408205 664.320000000001,466.2409294844029 666.2400000000009,469.69964386141095 668.160000000001,473.37470257289044 670.0800000000008,477.3079191530769 672.0000000000009,481.55306327793903 673.9200000000009,486.18084855884865 675.8400000000009,491.28682925314274 677.7600000000009,497.0045124123611 679.680000000001,503.5284523295723 681.6000000000009,511.158096347471 683.5200000000009,520.3896986447903 685.440000000001,532.1374664925826 687.3600000000009,548.3882460940829 689.2800000000009,574.9715313831143 691.200000000001,639.7280027949494 693.1200000000009,582.2394259024403 695.040000000001,552.1514737092825 696.960000000001,534.6706220397718 698.880000000001,522.302991087724 700.8000000000009,512.6998418204223 702.7200000000009,504.8236759806921 704.6400000000009,498.1249028293437 706.560000000001,492.27727266612186 708.4800000000009,487.07129519325736 710.400000000001,482.3644830735916 712.320000000001,478.0555585112301 714.2400000000009,474.0699874937623 716.160000000001,470.35135265089525 718.080000000001,466.8559474175016 720.000000000001,463.54924804624704 721.920000000001,460.4035312871023 723.8400000000009,457.3962183274 725.760000000001,454.50869443047657 727.680000000001,451.7254490902137 729.600000000001,449.033437541607 731.5200000000009,446.4215985087157 733.440000000001,443.88048438093534 735.360000000001,441.4019737044282 737.280000000001,438.9790448873531 739.2000000000011,436.6055960736328 741.120000000001,434.27630028802656 743.0400000000011,431.9864878459 744.960000000001,429.73205006742097 746.880000000001,427.50935980558233 748.800000000001,425.3152053670244 750.720000000001,423.14673519258383 752.640000000001,421.00141125156324 754.5600000000011,418.8769695457246 756.480000000001,416.7713864550482 758.400000000001,414.68284991511536 760.3200000000011,412.60973461546064 762.240000000001,410.5505805638233 764.160000000001,408.5040744835 766.0800000000011,406.46903360775457 768.000000000001,404.4443915123307 769.920000000001,402.42918568892225 771.8400000000009,400.4225466122994 773.7600000000011,398.4236880942397 775.680000000001,396.4318987503895 777.6000000000012,394.4465344332339 779.5200000000011,392.4670115066374 781.4400000000011,390.4928008558721 783.360000000001,388.52342254240494 785.280000000001,386.5584410255409 787.200000000001,384.5974608837854 789.120000000001,382.64012297786115 791.0400000000012,380.686101004992 792.9600000000012,378.7350984005848 794.8800000000011,376.7868455489995 796.8000000000011,374.8410972698575 798.720000000001,372.89763055041976 800.640000000001,370.95624249808924 802.5600000000011,369.01674849013557 804.4800000000012,367.0789805003771 806.4000000000012,365.14278558485375 808.3200000000012,363.208024510526 810.2400000000011,361.27457051278964 812.1600000000011,359.3423081691309 814.0800000000011,357.4111323776027 816.000000000001,355.48094742999126 817.9200000000012,353.55166617060024 819.840000000001,351.6232092325099 821.7600000000012,349.6955043440002 823.6800000000012,347.76848569856145 825.6000000000012,345.8420933825766 827.5200000000011,343.9162728553413 829.4400000000011,341.9909744766178 831.360000000001,340.0661530773849 833.2800000000011,338.1417675698698 835.2000000000012,336.21778059332803 837.1200000000013,334.2941581923766 839.0400000000012,332.3708695249963 840.9600000000012,330.44788659759473 842.8800000000011,328.5251840247747 844.8000000000011,326.60273881167956 846.720000000001,324.680530156994 848.6400000000012,322.75853927486685 850.5600000000011,320.83674923419255 852.4800000000013,318.91514481384473 854.4000000000012,316.99371237259777 856.3200000000012,315.0724397326016 858.2400000000011,313.151316075397 860.1600000000011,311.23033184956705 862.0800000000013,309.30947868922385" stroke="black" stroke-linecap="round" stroke-width="2.4000000000000004"/>
  </g>
</svg>
