<?xml version="1.0" encoding="utf-8" ?>
<svg xmlns="http://www.w3.org/2000/svg" xmlns:ev="http://www.w3.org/2001/xml-events" xmlns:xlink="http://www.w3.org/1999/xlink" baseProfile="full" height="576" version="1.1" width="576">
  <defs>
    <clipPath id="plotting-region">
      <polygon fill="white" points="96.0,480.0 96.0,96.0 480.0,96.0 480.0,480.0" stroke="none"/>
    </clipPath>
  </defs>
  <g id="grid">
    <polygon fill="white" points="96.0,480.0 96.0,96.0 480.0,96.0 480.0,480.0" stroke="none"/>
    <line fill="none" stroke="grey" stroke-linecap="round" stroke-width="0.48" x1="96.0" x2="480.0" y1="451.1011204162578" y2="451.1011204162578"/>
    <line fill="none" stroke="grey" stroke-linecap="round" stroke-width="0.48" x1="96.0" x2="480.0" y1="434.1963595469124" y2="434.1963595469124"/>
    <line fill="none" stroke="grey" stroke-linecap="round" stroke-width="0.48" x1="96.0" x2="480.0" y1="422.2022408325156" y2="422.2022408325156"/>
    <line fill="none" stroke="grey" stroke-linecap="round" stroke-width="0.48" x1="96.0" x2="480.0" y1="412.8988795837422" y2="412.8988795837422"/>
    <line fill="none" stroke="grey" stroke-linecap="round" stroke-width="0.48" x1="96.0" x2="480.0" y1="405.2974799631702" y2="405.2974799631702"/>
    <line fill="none" stroke="grey" stroke-linecap="round" stroke-width="0.48" x1="96.0" x2="480.0" y1="398.87058815863134" y2="398.87058815863134"/>
    <line fill="none" stroke="grey" stroke-linecap="round" stroke-width="0.48" x1="96.0" x2="480.0" y1="393.3033612487734" y2="393.3033612487734"/>
    <line fill="none" stroke="grey" stroke-linecap="round" stroke-width="0.48" x1="96.0" x2="480.0" y1="388.3927190938248" y2="388.3927190938248"/>
    <line fill="none" stroke="grey" stroke-linecap="round" stroke-width="0.48" x1="96.0" x2="480.0" y1="355.1011204162578" y2="355.1011204162578"/>
    <line fill="none" stroke="grey" stroke-linecap="round" stroke-width="0.48" x1="96.0" x2="480.0" y1="338.1963595469124" y2="338.1963595469124"/>
    <line fill="none" stroke="grey" stroke-linecap="round" stroke-width="0.48" x1="96.0" x2="480.0" y1="326.2022408325156" y2="326.2022408325156"/>
    <line fill="none" stroke="grey" stroke-linecap="round" stroke-width="0.48" x1="96.0" x2="480.0" y1="316.8988795837422" y2="316.8988795837422"/>
    <line fill="none" stroke="grey" stroke-linecap="round" stroke-width="0.48" x1="96.0" x2="480.0" y1="309.2974799631702" y2="309.2974799631702"/>
    <line fill="none" stroke="grey" stroke-linecap="round" stroke-width="0.48" x1="96.0" x2="480.0" y1="302.87058815863134" y2="302.87058815863134"/>
    <line fill="none" stroke="grey" stroke-linecap="round" stroke-width="0.48" x1="96.0" x2="480.0" y1="297.3033612487734" y2="297.3033612487734"/>
    <line fill="none" stroke="grey" stroke-linecap="round" stroke-width="0.48" x1="96.0" x2="480.0" y1="292.39271909382484" y2="292.39271909382484"/>
    <line fill="none" stroke="grey" stroke-linecap="round" stroke-width="0.48" x1="96.0" x2="480.0" y1="259.1011204162578" y2="259.1011204162578"/>
    <line fill="none" stroke="grey" stroke-linecap="round" stroke-width="0.48" x1="96.0" x2="480.0" y1="242.1963595469124" y2="242.1963595469124"/>
    <line fill="none" stroke="grey" stroke-linecap="round" stroke-width="0.48" x1="96.0" x2="480.0" y1="230.2022408325156" y2="230.2022408325156"/>
    <line fill="none" stroke="grey" stroke-linecap="round" stroke-width="0.48" x1="96.0" x2="480.0" y1="220.8988795837422" y2="220.8988795837422"/>
    <line fill="none" stroke="grey" stroke-linecap="round" stroke-width="0.48" x1="96.0" x2="480.0" y1="213.2974799631702" y2="213.2974799631702"/>
    <line fill="none" stroke="grey" stroke-linecap="round" stroke-width="0.48" x1="96.0" x2="480.0" y1="206.87058815863134" y2="206.87058815863134"/>
    <line fill="none" stroke="grey" stroke-linecap="round" stroke-width="0.48" x1="96.0" x2="480.0" y1="201.3033612487734" y2="201.3033612487734"/>
    <line fill="none" stroke="grey" stroke-linecap="round" stroke-width="0.48" x1="96.0" x2="480.0" y1="196.39271909382484" y2="196.39271909382484"/>
    <line fill="none" stroke="grey" stroke-linecap="round" stroke-width="0.48" x1="96.0" x2="480.0" y1="163.1011204162578" y2="163.1011204162578"/>
    <line fill="none" stroke="grey" stroke-linecap="round" stroke-width="0.48" x1="96.0" x2="480.0" y1="146.1963595469124" y2="146.1963595469124"/>
    <line fill="none" stroke="grey" stroke-linecap="round" stroke-width="0.48" x1="96.0" x2="480.0" y1="134.2022408325156" y2="134.2022408325156"/>
    <line fill="none" stroke="grey" stroke-linecap="round" stroke-width="0.48" x1="96.0" x2="480.0" y1="124.8988795837422" y2="124.8988795837422"/>
    <line fill="none" stroke="grey" stroke-linecap="round" stroke-width="0.48" x1="96.0" x2="480.0" y1="117.29747996317019" y2="117.29747996317019"/>
    <line fill="none" stroke="grey" stroke-linecap="round" stroke-width="0.48" x1="96.0" x2="480.0" y1="110.87058815863134" y2="110.87058815863134"/>
    <line fill="none" stroke="grey" stroke-linecap="round" stroke-width="0.48" x1="96.0" x2="480.0" y1="105.3033612487734" y2="105.3033612487734"/>
    <line fill="none" stroke="grey" stroke-linecap="round" stroke-width="0.48" x1="96.0" x2="480.0" y1="100.39271909382478" y2="100.39271909382478"/>
    <line fill="none" stroke="grey" stroke-linecap="round" stroke-width="0.48" x1="124.8988795837422" x2="124.8988795837422" y1="480.0" y2="96.0"/>
    <line fill="none" stroke="grey" stroke-linecap="round" stroke-width="0.48" x1="141.8036404530876" x2="141.8036404530876" y1="480.0" y2="96.0"/>
    <line fill="none" stroke="grey" stroke-linecap="round" stroke-width="0.48" x1="153.7977591674844" x2="153.7977591674844" y1="480.0" y2="96.0"/>
    <line fill="none" stroke="grey" stroke-linecap="round" stroke-width="0.48" x1="163.1011204162578" x2="163.1011204162578" y1="480.0" y2="96.0"/>
    <line fill="none" stroke="grey" stroke-linecap="round" stroke-width="0.48" x1="170.7025200368298" x2="170.7025200368298" y1="480.0" y2="96.0"/>
    <line fill="none" stroke="grey" stroke-linecap="round" stroke-width="0.48" x1="177.12941184136866" x2="177.12941184136866" y1="480.0" y2="96.0"/>
    <line fill="none" stroke="grey" stroke-linecap="round" stroke-width="0.48" x1="182.6966387512266" x2="182.6966387512266" y1="480.0" y2="96.0"/>
    <line fill="none" stroke="grey" stroke-linecap="round" stroke-width="0.48" x1="187.60728090617522" x2="187.60728090617522" y1="480.0" y2="96.0"/>
    <line fill="none" stroke="grey" stroke-linecap="round" stroke-width="0.48" x1="220.8988795837422" x2="220.8988795837422" y1="480.0" y2="96.0"/>
    <line fill="none" stroke="grey" stroke-linecap="round" stroke-width="0.48" x1="237.8036404530876" x2="237.8036404530876" y1="480.0" y2="96.0"/>
    <line fill="none" stroke="grey" stroke-linecap="round" stroke-width="0.48" x1="249.7977591674844" x2="249.7977591674844" y1="480.0" y2="96.0"/>
    <line fill="none" stroke="grey" stroke-linecap="round" stroke-width="0.48" x1="259.1011204162578" x2="259.1011204162578" y1="480.0" y2="96.0"/>
    <line fill="none" stroke="grey" stroke-linecap="round" stroke-width="0.48" x1="266.7025200368298" x2="266.7025200368298" y1="480.0" y2="96.0"/>
    <line fill="none" stroke="grey" stroke-linecap="round" stroke-width="0.48" x1="273.12941184136866" x2="273.12941184136866" y1="480.0" y2="96.0"/>
    <line fill="none" stroke="grey" stroke-linecap="round" stroke-width="0.48" x1="278.6966387512266" x2="278.6966387512266" y1="480.0" y2="96.0"/>
    <line fill="none" stroke="grey" stroke-linecap="round" stroke-width="0.48" x1="283.6072809061752" x2="283.6072809061752" y1="480.0" y2="96.0"/>
    <line fill="none" stroke="grey" stroke-linecap="round" stroke-width="0.48" x1="316.8988795837422" x2="316.8988795837422" y1="480.0" y2="96.0"/>
    <line fill="none" stroke="grey" stroke-linecap="round" stroke-width="0.48" x1="333.8036404530876" x2="333.8036404530876" y1="480.0" y2="96.0"/>
    <line fill="none" stroke="grey" stroke-linecap="round" stroke-width="0.48" x1="345.7977591674844" x2="345.7977591674844" y1="480.0" y2="96.0"/>
    <line fill="none" stroke="grey" stroke-linecap="round" stroke-width="0.48" x1="355.1011204162578" x2="355.1011204162578" y1="480.0" y2="96.0"/>
    <line fill="none" stroke="grey" stroke-linecap="round" stroke-width="0.48" x1="362.7025200368298" x2="362.7025200368298" y1="480.0" y2="96.0"/>
    <line fill="none" stroke="grey" stroke-linecap="round" stroke-width="0.48" x1="369.12941184136866" x2="369.12941184136866" y1="480.0" y2="96.0"/>
    <line fill="none" stroke="grey" stroke-linecap="round" stroke-width="0.48" x1="374.6966387512266" x2="374.6966387512266" y1="480.0" y2="96.0"/>
    <line fill="none" stroke="grey" stroke-linecap="round" stroke-width="0.48" x1="379.6072809061752" x2="379.6072809061752" y1="480.0" y2="96.0"/>
    <line fill="none" stroke="grey" stroke-linecap="round" stroke-width="0.48" x1="412.8988795837422" x2="412.8988795837422" y1="480.0" y2="96.0"/>
    <line fill="none" stroke="grey" stroke-linecap="round" stroke-width="0.48" x1="429.8036404530876" x2="429.8036404530876" y1="480.0" y2="96.0"/>
    <line fill="none" stroke="grey" stroke-linecap="round" stroke-width="0.48" x1="441.7977591674844" x2="441.7977591674844" y1="480.0" y2="96.0"/>
    <line fill="none" stroke="grey" stroke-linecap="round" stroke-width="0.48" x1="451.1011204162578" x2="451.1011204162578" y1="480.0" y2="96.0"/>
    <line fill="none" stroke="grey" stroke-linecap="round" stroke-width="0.48" x1="458.7025200368298" x2="458.7025200368298" y1="480.0" y2="96.0"/>
    <line fill="none" stroke="grey" stroke-linecap="round" stroke-width="0.48" x1="465.12941184136866" x2="465.12941184136866" y1="480.0" y2="96.0"/>
    <line fill="none" stroke="grey" stroke-linecap="round" stroke-width="0.48" x1="470.6966387512266" x2="470.6966387512266" y1="480.0" y2="96.0"/>
    <line fill="none" stroke="grey" stroke-linecap="round" stroke-width="0.48" x1="475.6072809061752" x2="475.6072809061752" y1="480.0" y2="96.0"/>
    <line fill="none" stroke="grey" stroke-linecap="round" stroke-width="0.96" x1="96.0" x2="480.0" y1="480.0" y2="480.0"/>
    <text fill="black" font-family="sans-serif" font-size="12" text-anchor="end" x="81.6" y="484.2">100 mΩ</text>
    <line fill="none" stroke="grey" stroke-linecap="round" stroke-width="0.96" x1="96.0" x2="480.0" y1="384.0" y2="384.0"/>
    <text fill="black" font-family="sans-serif" font-size="12" text-anchor="end" x="81.6" y="388.2">1 Ω</text>
    <line fill="none" stroke="grey" stroke-linecap="round" stroke-width="0.96" x1="96.0" x2="480.0" y1="288.0" y2="288.0"/>
    <text fill="black" font-family="sans-serif" font-size="12" text-anchor="end" x="81.6" y="292.2">10 Ω</text>
    <line fill="none" stroke="grey" stroke-linecap="round" stroke-width="0.96" x1="96.0" x2="480.0" y1="192.0" y2="192.0"/>
    <text fill="black" font-family="sans-serif" font-size="12" text-anchor="end" x="81.6" y="196.2">100 Ω</text>
    <line fill="none" stroke="grey" stroke-linecap="round" stroke-width="0.96" x1="96.0" x2="480.0" y1="96.0" y2="96.0"/>
    <text fill="black" font-family="sans-serif" font-size="12" text-anchor="end" x="81.6" y="100.2">1 kΩ</text>
    <line fill="none" stroke="grey" stroke-linecap="round" stroke-width="0.96" x1="96.0" x2="96.0" y1="480.0" y2="96.0"/>
    <text fill="black" font-family="sans-serif" font-size="12" text-anchor="middle" x="96.0" y="506.4">100 kHz</text>
    <line fill="none" stroke="grey" stroke-linecap="round" stroke-width="0.96" x1="192.0" x2="192.0" y1="480.0" y2="96.0"/>
    <text fill="black" font-family="sans-serif" font-size="12" text-anchor="middle" x="192.0" y="506.4">1 MHz</text>
    <line fill="none" stroke="grey" stroke-linecap="round" stroke-width="0.96" x1="288.0" x2="288.0" y1="480.0" y2="96.0"/>
    <text fill="black" font-family="sans-serif" font-size="12" text-anchor="middle" x="288.0" y="506.4">10 MHz</text>
    <line fill="none" stroke="grey" stroke-linecap="round" stroke-width="0.96" x1="384.0" x2="384.0" y1="480.0" y2="96.0"/>
    <text fill="black" font-family="sans-serif" font-size="12" text-anchor="middle" x="384.0" y="506.4">100 MHz</text>
    <line fill="none" stroke="grey" stroke-linecap="round" stroke-width="0.96" x1="480.0" x2="480.0" y1="480.0" y2="96.0"/>
    <text fill="black" font-family="sans-serif" font-size="12" text-anchor="middle" x="480.0" y="506.4">1 GHz</text>
    <line fill="none" stroke="grey" stroke-linecap="round" stroke-width="0.48" x1="115.37473263762092" x2="96.0" y1="480.0" y2="460.6252673623791"/>
    <line fill="none" stroke="grey" stroke-linecap="round" stroke-width="0.48" x1="211.37473263762092" x2="96.0" y1="480.0" y2="364.625267362379"/>
    <line fill="none" stroke="grey" stroke-linecap="round" stroke-width="0.48" x1="182.47585305387872" x2="96.0" y1="480.0" y2="393.5241469461213"/>
    <line fill="none" stroke="grey" stroke-linecap="round" stroke-width="0.48" x1="165.5710921845334" x2="96.0" y1="480.0" y2="410.4289078154667"/>
    <line fill="none" stroke="grey" stroke-linecap="round" stroke-width="0.48" x1="153.57697347013652" x2="96.0" y1="480.0" y2="422.4230265298635"/>
    <line fill="none" stroke="grey" stroke-linecap="round" stroke-width="0.48" x1="144.27361222136312" x2="96.0" y1="480.0" y2="431.7263877786369"/>
    <line fill="none" stroke="grey" stroke-linecap="round" stroke-width="0.48" x1="136.6722126007912" x2="96.0" y1="480.0" y2="439.3277873992089"/>
    <line fill="none" stroke="grey" stroke-linecap="round" stroke-width="0.48" x1="130.24532079625234" x2="96.0" y1="480.0" y2="445.75467920374774"/>
    <line fill="none" stroke="grey" stroke-linecap="round" stroke-width="0.48" x1="124.67809388639441" x2="96.0" y1="480.0" y2="451.32190611360556"/>
    <line fill="none" stroke="grey" stroke-linecap="round" stroke-width="0.48" x1="119.76745173144579" x2="96.0" y1="480.0" y2="456.2325482685542"/>
    <line fill="none" stroke="grey" stroke-linecap="round" stroke-width="0.48" x1="307.3747326376209" x2="96.0" y1="480.0" y2="268.625267362379"/>
    <line fill="none" stroke="grey" stroke-linecap="round" stroke-width="0.48" x1="278.4758530538787" x2="96.0" y1="480.0" y2="297.5241469461212"/>
    <line fill="none" stroke="grey" stroke-linecap="round" stroke-width="0.48" x1="261.5710921845334" x2="96.0" y1="480.0" y2="314.42890781546663"/>
    <line fill="none" stroke="grey" stroke-linecap="round" stroke-width="0.48" x1="249.57697347013652" x2="96.0" y1="480.0" y2="326.4230265298634"/>
    <line fill="none" stroke="grey" stroke-linecap="round" stroke-width="0.48" x1="240.27361222136312" x2="96.0" y1="480.0" y2="335.7263877786368"/>
    <line fill="none" stroke="grey" stroke-linecap="round" stroke-width="0.48" x1="232.6722126007912" x2="96.0" y1="480.0" y2="343.32778739920883"/>
    <line fill="none" stroke="grey" stroke-linecap="round" stroke-width="0.48" x1="226.24532079625234" x2="96.0" y1="480.0" y2="349.7546792037477"/>
    <line fill="none" stroke="grey" stroke-linecap="round" stroke-width="0.48" x1="220.6780938863944" x2="96.0" y1="480.0" y2="355.32190611360556"/>
    <line fill="none" stroke="grey" stroke-linecap="round" stroke-width="0.48" x1="215.7674517314458" x2="96.0" y1="480.0" y2="360.2325482685542"/>
    <line fill="none" stroke="grey" stroke-linecap="round" stroke-width="0.48" x1="403.3747326376209" x2="96.0" y1="480.0" y2="172.62526736237908"/>
    <line fill="none" stroke="grey" stroke-linecap="round" stroke-width="0.48" x1="374.4758530538787" x2="96.0" y1="480.0" y2="201.52414694612122"/>
    <line fill="none" stroke="grey" stroke-linecap="round" stroke-width="0.48" x1="357.5710921845334" x2="96.0" y1="480.0" y2="218.42890781546663"/>
    <line fill="none" stroke="grey" stroke-linecap="round" stroke-width="0.48" x1="345.57697347013664" x2="96.0" y1="480.0" y2="230.42302652986342"/>
    <line fill="none" stroke="grey" stroke-linecap="round" stroke-width="0.48" x1="336.2736122213631" x2="96.0" y1="480.0" y2="239.72638777863688"/>
    <line fill="none" stroke="grey" stroke-linecap="round" stroke-width="0.48" x1="328.6722126007912" x2="96.0" y1="480.0" y2="247.3277873992088"/>
    <line fill="none" stroke="grey" stroke-linecap="round" stroke-width="0.48" x1="322.24532079625226" x2="96.0" y1="480.0" y2="253.75467920374768"/>
    <line fill="none" stroke="grey" stroke-linecap="round" stroke-width="0.48" x1="316.67809388639444" x2="96.0" y1="480.0" y2="259.3219061136056"/>
    <line fill="none" stroke="grey" stroke-linecap="round" stroke-width="0.48" x1="311.7674517314458" x2="96.0" y1="480.0" y2="264.2325482685542"/>
    <line fill="none" stroke="grey" stroke-linecap="round" stroke-width="0.48" x1="480.0" x2="115.37473263762092" y1="460.6252673623791" y2="96.0"/>
    <line fill="none" stroke="grey" stroke-linecap="round" stroke-width="0.48" x1="470.4758530538787" x2="96.0" y1="480.0" y2="105.52414694612128"/>
    <line fill="none" stroke="grey" stroke-linecap="round" stroke-width="0.48" x1="453.5710921845333" x2="96.0" y1="480.0" y2="122.42890781546669"/>
    <line fill="none" stroke="grey" stroke-linecap="round" stroke-width="0.48" x1="441.5769734701365" x2="96.0" y1="480.0" y2="134.42302652986348"/>
    <line fill="none" stroke="grey" stroke-linecap="round" stroke-width="0.48" x1="432.2736122213631" x2="96.0" y1="480.0" y2="143.72638777863688"/>
    <line fill="none" stroke="grey" stroke-linecap="round" stroke-width="0.48" x1="424.6722126007911" x2="96.0" y1="480.0" y2="151.3277873992089"/>
    <line fill="none" stroke="grey" stroke-linecap="round" stroke-width="0.48" x1="418.24532079625226" x2="96.0" y1="480.0" y2="157.75467920374774"/>
    <line fill="none" stroke="grey" stroke-linecap="round" stroke-width="0.48" x1="412.6780938863943" x2="96.0" y1="480.0" y2="163.32190611360568"/>
    <line fill="none" stroke="grey" stroke-linecap="round" stroke-width="0.48" x1="407.7674517314457" x2="96.0" y1="480.0" y2="168.2325482685543"/>
    <line fill="none" stroke="grey" stroke-linecap="round" stroke-width="0.48" x1="480.0" x2="211.37473263762092" y1="364.625267362379" y2="96.0"/>
    <line fill="none" stroke="grey" stroke-linecap="round" stroke-width="0.48" x1="480.0" x2="182.4758530538788" y1="393.5241469461213" y2="96.0"/>
    <line fill="none" stroke="grey" stroke-linecap="round" stroke-width="0.48" x1="480.0" x2="165.5710921845334" y1="410.4289078154667" y2="96.0"/>
    <line fill="none" stroke="grey" stroke-linecap="round" stroke-width="0.48" x1="480.0" x2="153.5769734701366" y1="422.4230265298635" y2="96.0"/>
    <line fill="none" stroke="grey" stroke-linecap="round" stroke-width="0.48" x1="480.0" x2="144.27361222136312" y1="431.7263877786369" y2="96.0"/>
    <line fill="none" stroke="grey" stroke-linecap="round" stroke-width="0.48" x1="480.0" x2="136.6722126007912" y1="439.3277873992089" y2="96.0"/>
    <line fill="none" stroke="grey" stroke-linecap="round" stroke-width="0.48" x1="480.0" x2="130.24532079625234" y1="445.75467920374774" y2="96.0"/>
    <line fill="none" stroke="grey" stroke-linecap="round" stroke-width="0.48" x1="480.0" x2="124.67809388639441" y1="451.3219061136057" y2="96.0"/>
    <line fill="none" stroke="grey" stroke-linecap="round" stroke-width="0.48" x1="480.0" x2="119.76745173144579" y1="456.2325482685542" y2="96.0"/>
    <line fill="none" stroke="grey" stroke-linecap="round" stroke-width="0.48" x1="480.0" x2="307.3747326376209" y1="268.625267362379" y2="96.0"/>
    <line fill="none" stroke="grey" stroke-linecap="round" stroke-width="0.48" x1="480.0" x2="278.47585305387884" y1="297.5241469461212" y2="96.0"/>
    <line fill="none" stroke="grey" stroke-linecap="round" stroke-width="0.48" x1="480.0" x2="261.5710921845334" y1="314.42890781546663" y2="96.0"/>
    <line fill="none" stroke="grey" stroke-linecap="round" stroke-width="0.48" x1="480.0" x2="249.5769734701366" y1="326.4230265298634" y2="96.0"/>
    <line fill="none" stroke="grey" stroke-linecap="round" stroke-width="0.48" x1="480.0" x2="240.27361222136312" y1="335.7263877786368" y2="96.0"/>
    <line fill="none" stroke="grey" stroke-linecap="round" stroke-width="0.48" x1="480.0" x2="232.6722126007912" y1="343.32778739920883" y2="96.0"/>
    <line fill="none" stroke="grey" stroke-linecap="round" stroke-width="0.48" x1="480.0" x2="226.24532079625234" y1="349.7546792037477" y2="96.0"/>
    <line fill="none" stroke="grey" stroke-linecap="round" stroke-width="0.48" x1="480.0" x2="220.6780938863944" y1="355.32190611360556" y2="96.0"/>
    <line fill="none" stroke="grey" stroke-linecap="round" stroke-width="0.48" x1="480.0" x2="215.7674517314458" y1="360.2325482685542" y2="96.0"/>
    <line fill="none" stroke="grey" stroke-linecap="round" stroke-width="0.48" x1="480.0" x2="403.3747326376209" y1="172.62526736237908" y2="96.0"/>
    <line fill="none" stroke="grey" stroke-linecap="round" stroke-width="0.48" x1="480.0" x2="374.47585305387884" y1="201.52414694612122" y2="96.0"/>
    <line fill="none" stroke="grey" stroke-linecap="round" stroke-width="0.48" x1="480.0" x2="357.5710921845334" y1="218.42890781546663" y2="96.0"/>
    <line fill="none" stroke="grey" stroke-linecap="round" stroke-width="0.48" x1="480.0" x2="345.57697347013664" y1="230.42302652986342" y2="96.0"/>
    <line fill="none" stroke="grey" stroke-linecap="round" stroke-width="0.48" x1="480.0" x2="336.2736122213631" y1="239.72638777863688" y2="96.0"/>
    <line fill="none" stroke="grey" stroke-linecap="round" stroke-width="0.48" x1="480.0" x2="328.6722126007912" y1="247.3277873992088" y2="96.0"/>
    <line fill="none" stroke="grey" stroke-linecap="round" stroke-width="0.48" x1="480.0" x2="322.2453207962524" y1="253.75467920374768" y2="96.0"/>
    <line fill="none" stroke="grey" stroke-linecap="round" stroke-width="0.48" x1="480.0" x2="316.67809388639444" y1="259.3219061136056" y2="96.0"/>
    <line fill="none" stroke="grey" stroke-linecap="round" stroke-width="0.48" x1="480.0" x2="311.7674517314458" y1="264.2325482685542" y2="96.0"/>
    <line fill="none" stroke="grey" stroke-linecap="round" stroke-width="0.48" x1="480.0" x2="470.4758530538787" y1="105.52414694612128" y2="96.0"/>
    <line fill="none" stroke="grey" stroke-linecap="round" stroke-width="0.48" x1="480.0" x2="453.5710921845333" y1="122.42890781546669" y2="96.0"/>
    <line fill="none" stroke="grey" stroke-linecap="round" stroke-width="0.48" x1="480.0" x2="441.5769734701365" y1="134.42302652986348" y2="96.0"/>
    <line fill="none" stroke="grey" stroke-linecap="round" stroke-width="0.48" x1="480.0" x2="432.2736122213631" y1="143.72638777863688" y2="96.0"/>
    <line fill="none" stroke="grey" stroke-linecap="round" stroke-width="0.48" x1="480.0" x2="424.6722126007911" y1="151.3277873992089" y2="96.0"/>
    <line fill="none" stroke="grey" stroke-linecap="round" stroke-width="0.48" x1="480.0" x2="418.24532079625226" y1="157.75467920374774" y2="96.0"/>
    <line fill="none" stroke="grey" stroke-linecap="round" stroke-width="0.48" x1="480.0" x2="412.6780938863943" y1="163.32190611360568" y2="96.0"/>
    <line fill="none" stroke="grey" stroke-linecap="round" stroke-width="0.48" x1="480.0" x2="407.7674517314457" y1="168.2325482685543" y2="96.0"/>
    <line fill="none" stroke="grey" stroke-linecap="round" stroke-width="0.96" x1="115.37473263762092" x2="96.0" y1="480.0" y2="460.6252673623791"/>
    <text fill="black" font-family="sans-serif" font-size="12" text-anchor="end" transform="rotate(45, 84.0, 454.6252673623791)" x="84.0" y="454.6252673623791">10 µF</text>
    <line fill="none" stroke="grey" stroke-linecap="round" stroke-width="0.96" x1="211.37473263762092" x2="96.0" y1="480.0" y2="364.625267362379"/>
    <text fill="black" font-family="sans-serif" font-size="12" text-anchor="end" transform="rotate(45, 84.0, 358.625267362379)" x="84.0" y="358.625267362379">1 µF</text>
    <line fill="none" stroke="grey" stroke-linecap="round" stroke-width="0.96" x1="307.3747326376209" x2="96.0" y1="480.0" y2="268.625267362379"/>
    <text fill="black" font-family="sans-serif" font-size="12" text-anchor="end" transform="rotate(45, 84.0, 262.625267362379)" x="84.0" y="262.625267362379">100 nF</text>
    <line fill="none" stroke="grey" stroke-linecap="round" stroke-width="0.96" x1="403.3747326376209" x2="96.0" y1="480.0" y2="172.62526736237908"/>
    <text fill="black" font-family="sans-serif" font-size="12" text-anchor="end" transform="rotate(45, 84.0, 166.62526736237908)" x="84.0" y="166.62526736237908">10 nF</text>
    <line fill="none" stroke="grey" stroke-linecap="round" stroke-width="0.96" x1="480.0" x2="115.37473263762092" y1="460.6252673623791" y2="96.0"/>
    <text fill="black" font-family="sans-serif" font-size="12" text-anchor="end" transform="rotate(45, 103.37473263762092, 90.0)" x="103.37473263762092" y="90.0">1 nF</text>
    <line fill="none" stroke="grey" stroke-linecap="round" stroke-width="0.96" x1="480.0" x2="211.37473263762092" y1="364.625267362379" y2="96.0"/>
    <text fill="black" font-family="sans-serif" font-size="12" text-anchor="end" transform="rotate(45, 199.37473263762092, 90.0)" x="199.37473263762092" y="90.0">100 pF</text>
    <line fill="none" stroke="grey" stroke-linecap="round" stroke-width="0.96" x1="480.0" x2="307.3747326376209" y1="268.625267362379" y2="96.0"/>
    <text fill="black" font-family="sans-serif" font-size="12" text-anchor="end" transform="rotate(45, 295.3747326376209, 90.0)" x="295.3747326376209" y="90.0">10 pF</text>
    <line fill="none" stroke="grey" stroke-linecap="round" stroke-width="0.96" x1="480.0" x2="403.3747326376209" y1="172.62526736237908" y2="96.0"/>
    <text fill="black" font-family="sans-serif" font-size="12" text-anchor="end" transform="rotate(45, 391.3747326376209, 90.0)" x="391.3747326376209" y="90.0">1 pF</text>
    <line fill="none" stroke="grey" stroke-linecap="round" stroke-width="0.48" x1="96.0" x2="115.37473263762092" y1="115.37473263762092" y2="96.0"/>
    <line fill="none" stroke="grey" stroke-linecap="round" stroke-width="0.48" x1="96.0" x2="211.37473263762092" y1="211.37473263762098" y2="96.0"/>
    <line fill="none" stroke="grey" stroke-linecap="round" stroke-width="0.48" x1="96.0" x2="182.47585305387872" y1="182.47585305387872" y2="96.0"/>
    <line fill="none" stroke="grey" stroke-linecap="round" stroke-width="0.48" x1="96.0" x2="165.5710921845333" y1="165.5710921845333" y2="96.0"/>
    <line fill="none" stroke="grey" stroke-linecap="round" stroke-width="0.48" x1="96.0" x2="153.57697347013652" y1="153.57697347013652" y2="96.0"/>
    <line fill="none" stroke="grey" stroke-linecap="round" stroke-width="0.48" x1="96.0" x2="144.27361222136312" y1="144.27361222136312" y2="96.0"/>
    <line fill="none" stroke="grey" stroke-linecap="round" stroke-width="0.48" x1="96.0" x2="136.6722126007912" y1="136.6722126007911" y2="96.0"/>
    <line fill="none" stroke="grey" stroke-linecap="round" stroke-width="0.48" x1="96.0" x2="130.24532079625226" y1="130.24532079625226" y2="96.0"/>
    <line fill="none" stroke="grey" stroke-linecap="round" stroke-width="0.48" x1="96.0" x2="124.67809388639441" y1="124.67809388639432" y2="96.0"/>
    <line fill="none" stroke="grey" stroke-linecap="round" stroke-width="0.48" x1="96.0" x2="119.76745173144579" y1="119.76745173144579" y2="96.0"/>
    <line fill="none" stroke="grey" stroke-linecap="round" stroke-width="0.48" x1="96.0" x2="307.3747326376209" y1="307.374732637621" y2="96.0"/>
    <line fill="none" stroke="grey" stroke-linecap="round" stroke-width="0.48" x1="96.0" x2="278.4758530538787" y1="278.4758530538788" y2="96.0"/>
    <line fill="none" stroke="grey" stroke-linecap="round" stroke-width="0.48" x1="96.0" x2="261.5710921845333" y1="261.57109218453337" y2="96.0"/>
    <line fill="none" stroke="grey" stroke-linecap="round" stroke-width="0.48" x1="96.0" x2="249.57697347013652" y1="249.57697347013658" y2="96.0"/>
    <line fill="none" stroke="grey" stroke-linecap="round" stroke-width="0.48" x1="96.0" x2="240.27361222136312" y1="240.27361222136312" y2="96.0"/>
    <line fill="none" stroke="grey" stroke-linecap="round" stroke-width="0.48" x1="96.0" x2="232.6722126007912" y1="232.67221260079117" y2="96.0"/>
    <line fill="none" stroke="grey" stroke-linecap="round" stroke-width="0.48" x1="96.0" x2="226.24532079625226" y1="226.24532079625232" y2="96.0"/>
    <line fill="none" stroke="grey" stroke-linecap="round" stroke-width="0.48" x1="96.0" x2="220.67809388639432" y1="220.67809388639438" y2="96.0"/>
    <line fill="none" stroke="grey" stroke-linecap="round" stroke-width="0.48" x1="96.0" x2="215.7674517314458" y1="215.7674517314458" y2="96.0"/>
    <line fill="none" stroke="grey" stroke-linecap="round" stroke-width="0.48" x1="96.0" x2="403.3747326376209" y1="403.3747326376209" y2="96.0"/>
    <line fill="none" stroke="grey" stroke-linecap="round" stroke-width="0.48" x1="96.0" x2="374.4758530538787" y1="374.4758530538788" y2="96.0"/>
    <line fill="none" stroke="grey" stroke-linecap="round" stroke-width="0.48" x1="96.0" x2="357.5710921845333" y1="357.57109218453337" y2="96.0"/>
    <line fill="none" stroke="grey" stroke-linecap="round" stroke-width="0.48" x1="96.0" x2="345.5769734701365" y1="345.5769734701366" y2="96.0"/>
    <line fill="none" stroke="grey" stroke-linecap="round" stroke-width="0.48" x1="96.0" x2="336.2736122213631" y1="336.2736122213632" y2="96.0"/>
    <line fill="none" stroke="grey" stroke-linecap="round" stroke-width="0.48" x1="96.0" x2="328.6722126007912" y1="328.67221260079117" y2="96.0"/>
    <line fill="none" stroke="grey" stroke-linecap="round" stroke-width="0.48" x1="96.0" x2="322.24532079625226" y1="322.2453207962523" y2="96.0"/>
    <line fill="none" stroke="grey" stroke-linecap="round" stroke-width="0.48" x1="96.0" x2="316.6780938863943" y1="316.6780938863944" y2="96.0"/>
    <line fill="none" stroke="grey" stroke-linecap="round" stroke-width="0.48" x1="96.0" x2="311.7674517314458" y1="311.7674517314458" y2="96.0"/>
    <line fill="none" stroke="grey" stroke-linecap="round" stroke-width="0.48" x1="115.37473263762092" x2="480.0" y1="480.0" y2="115.37473263762092"/>
    <line fill="none" stroke="grey" stroke-linecap="round" stroke-width="0.48" x1="96.0" x2="470.4758530538787" y1="470.4758530538787" y2="96.0"/>
    <line fill="none" stroke="grey" stroke-linecap="round" stroke-width="0.48" x1="96.0" x2="453.5710921845333" y1="453.5710921845333" y2="96.0"/>
    <line fill="none" stroke="grey" stroke-linecap="round" stroke-width="0.48" x1="96.0" x2="441.5769734701365" y1="441.5769734701365" y2="96.0"/>
    <line fill="none" stroke="grey" stroke-linecap="round" stroke-width="0.48" x1="96.0" x2="432.2736122213631" y1="432.2736122213631" y2="96.0"/>
    <line fill="none" stroke="grey" stroke-linecap="round" stroke-width="0.48" x1="96.0" x2="424.6722126007911" y1="424.6722126007911" y2="96.0"/>
    <line fill="none" stroke="grey" stroke-linecap="round" stroke-width="0.48" x1="96.0" x2="418.24532079625226" y1="418.24532079625226" y2="96.0"/>
    <line fill="none" stroke="grey" stroke-linecap="round" stroke-width="0.48" x1="96.0" x2="412.6780938863943" y1="412.67809388639444" y2="96.0"/>
    <line fill="none" stroke="grey" stroke-linecap="round" stroke-width="0.48" x1="96.0" x2="407.7674517314457" y1="407.7674517314458" y2="96.0"/>
    <line fill="none" stroke="grey" stroke-linecap="round" stroke-width="0.48" x1="211.37473263762092" x2="480.0" y1="480.0" y2="211.37473263762098"/>
    <line fill="none" stroke="grey" stroke-linecap="round" stroke-width="0.48" x1="182.4758530538788" x2="480.0" y1="480.0" y2="182.47585305387872"/>
    <line fill="none" stroke="grey" stroke-linecap="round" stroke-width="0.48" x1="165.5710921845334" x2="480.0" y1="480.0" y2="165.5710921845333"/>
    <line fill="none" stroke="grey" stroke-linecap="round" stroke-width="0.48" x1="153.5769734701366" x2="480.0" y1="480.0" y2="153.57697347013652"/>
    <line fill="none" stroke="grey" stroke-linecap="round" stroke-width="0.48" x1="144.27361222136312" x2="480.0" y1="480.0" y2="144.27361222136312"/>
    <line fill="none" stroke="grey" stroke-linecap="round" stroke-width="0.48" x1="136.6722126007912" x2="480.0" y1="480.0" y2="136.6722126007911"/>
    <line fill="none" stroke="grey" stroke-linecap="round" stroke-width="0.48" x1="130.24532079625226" x2="480.0" y1="480.0" y2="130.24532079625226"/>
    <line fill="none" stroke="grey" stroke-linecap="round" stroke-width="0.48" x1="124.67809388639441" x2="480.0" y1="480.0" y2="124.67809388639432"/>
    <line fill="none" stroke="grey" stroke-linecap="round" stroke-width="0.48" x1="119.76745173144579" x2="480.0" y1="480.0" y2="119.76745173144579"/>
    <line fill="none" stroke="grey" stroke-linecap="round" stroke-width="0.48" x1="307.3747326376209" x2="480.0" y1="480.0" y2="307.3747326376209"/>
    <line fill="none" stroke="grey" stroke-linecap="round" stroke-width="0.48" x1="278.4758530538787" x2="480.0" y1="480.0" y2="278.4758530538788"/>
    <line fill="none" stroke="grey" stroke-linecap="round" stroke-width="0.48" x1="261.5710921845334" x2="480.0" y1="480.0" y2="261.57109218453337"/>
    <line fill="none" stroke="grey" stroke-linecap="round" stroke-width="0.48" x1="249.5769734701366" x2="480.0" y1="480.0" y2="249.57697347013658"/>
    <line fill="none" stroke="grey" stroke-linecap="round" stroke-width="0.48" x1="240.27361222136312" x2="480.0" y1="480.0" y2="240.27361222136312"/>
    <line fill="none" stroke="grey" stroke-linecap="round" stroke-width="0.48" x1="232.6722126007912" x2="480.0" y1="480.0" y2="232.67221260079117"/>
    <line fill="none" stroke="grey" stroke-linecap="round" stroke-width="0.48" x1="226.24532079625234" x2="480.0" y1="480.0" y2="226.24532079625232"/>
    <line fill="none" stroke="grey" stroke-linecap="round" stroke-width="0.48" x1="220.6780938863944" x2="480.0" y1="480.0" y2="220.67809388639438"/>
    <line fill="none" stroke="grey" stroke-linecap="round" stroke-width="0.48" x1="215.7674517314458" x2="480.0" y1="480.0" y2="215.7674517314458"/>
    <line fill="none" stroke="grey" stroke-linecap="round" stroke-width="0.48" x1="403.3747326376209" x2="480.0" y1="480.0" y2="403.3747326376209"/>
    <line fill="none" stroke="grey" stroke-linecap="round" stroke-width="0.48" x1="374.4758530538787" x2="480.0" y1="480.0" y2="374.4758530538788"/>
    <line fill="none" stroke="grey" stroke-linecap="round" stroke-width="0.48" x1="357.5710921845333" x2="480.0" y1="480.0" y2="357.57109218453337"/>
    <line fill="none" stroke="grey" stroke-linecap="round" stroke-width="0.48" x1="345.57697347013664" x2="480.0" y1="480.0" y2="345.5769734701366"/>
    <line fill="none" stroke="grey" stroke-linecap="round" stroke-width="0.48" x1="336.2736122213631" x2="480.0" y1="480.0" y2="336.2736122213631"/>
    <line fill="none" stroke="grey" stroke-linecap="round" stroke-width="0.48" x1="328.6722126007912" x2="480.0" y1="480.0" y2="328.67221260079117"/>
    <line fill="none" stroke="grey" stroke-linecap="round" stroke-width="0.48" x1="322.24532079625226" x2="480.0" y1="480.0" y2="322.2453207962523"/>
    <line fill="none" stroke="grey" stroke-linecap="round" stroke-width="0.48" x1="316.67809388639444" x2="480.0" y1="480.0" y2="316.6780938863944"/>
    <line fill="none" stroke="grey" stroke-linecap="round" stroke-width="0.48" x1="311.7674517314458" x2="480.0" y1="480.0" y2="311.7674517314458"/>
    <line fill="none" stroke="grey" stroke-linecap="round" stroke-width="0.48" x1="470.4758530538787" x2="480.0" y1="480.0" y2="470.4758530538787"/>
    <line fill="none" stroke="grey" stroke-linecap="round" stroke-width="0.48" x1="453.5710921845333" x2="480.0" y1="480.0" y2="453.5710921845333"/>
    <line fill="none" stroke="grey" stroke-linecap="round" stroke-width="0.48" x1="441.5769734701365" x2="480.0" y1="480.0" y2="441.5769734701365"/>
    <line fill="none" stroke="grey" stroke-linecap="round" stroke-width="0.48" x1="432.2736122213631" x2="480.0" y1="480.0" y2="432.2736122213631"/>
    <line fill="none" stroke="grey" stroke-linecap="round" stroke-width="0.48" x1="424.6722126007911" x2="480.0" y1="480.0" y2="424.6722126007911"/>
    <line fill="none" stroke="grey" stroke-linecap="round" stroke-width="0.48" x1="418.24532079625226" x2="480.0" y1="480.0" y2="418.24532079625226"/>
    <line fill="none" stroke="grey" stroke-linecap="round" stroke-width="0.48" x1="412.6780938863943" x2="480.0" y1="480.0" y2="412.6780938863943"/>
    <line fill="none" stroke="grey" stroke-linecap="round" stroke-width="0.48" x1="407.7674517314457" x2="480.0" y1="480.0" y2="407.7674517314458"/>
    <line fill="none" stroke="grey" stroke-linecap="round" stroke-width="0.96" x1="96.0" x2="115.37473263762092" y1="115.37473263762092" y2="96.0"/>
    <text fill="black" font-family="sans-serif" font-size="12" text-anchor="start" transform="rotate(-45, 127.37473263762092, 90.0)" x="127.37473263762092" y="90.0">1 mH</text>
    <line fill="none" stroke="grey" stroke-linecap="round" stroke-width="0.96" x1="96.0" x2="211.37473263762092" y1="211.37473263762098" y2="96.0"/>
    <text fill="black" font-family="sans-serif" font-size="12" text-anchor="start" transform="rotate(-45, 223.37473263762092, 90.0)" x="223.37473263762092" y="90.0">100 µH</text>
    <line fill="none" stroke="grey" stroke-linecap="round" stroke-width="0.96" x1="96.0" x2="307.3747326376209" y1="307.374732637621" y2="96.0"/>
    <text fill="black" font-family="sans-serif" font-size="12" text-anchor="start" transform="rotate(-45, 319.3747326376209, 90.0)" x="319.3747326376209" y="90.0">10 µH</text>
    <line fill="none" stroke="grey" stroke-linecap="round" stroke-width="0.96" x1="96.0" x2="403.3747326376209" y1="403.3747326376209" y2="96.0"/>
    <text fill="black" font-family="sans-serif" font-size="12" text-anchor="start" transform="rotate(-45, 415.3747326376209, 90.0)" x="415.3747326376209" y="90.0">1 µH</text>
    <line fill="none" stroke="grey" stroke-linecap="round" stroke-width="0.96" x1="115.37473263762092" x2="480.0" y1="480.0" y2="115.37473263762092"/>
    <text fill="black" font-family="sans-serif" font-size="12" text-anchor="start" transform="rotate(-45, 492.0, 109.37473263762092)" x="492.0" y="109.37473263762092">100 nH</text>
    <line fill="none" stroke="grey" stroke-linecap="round" stroke-width="0.96" x1="211.37473263762092" x2="480.0" y1="480.0" y2="211.37473263762098"/>
    <text fill="black" font-family="sans-serif" font-size="12" text-anchor="start" transform="rotate(-45, 492.0, 205.37473263762098)" x="492.0" y="205.37473263762098">10 nH</text>
    <line fill="none" stroke="grey" stroke-linecap="round" stroke-width="0.96" x1="307.3747326376209" x2="480.0" y1="480.0" y2="307.3747326376209"/>
    <text fill="black" font-family="sans-serif" font-size="12" text-anchor="start" transform="rotate(-45, 492.0, 301.3747326376209)" x="492.0" y="301.3747326376209">1 nH</text>
    <line fill="none" stroke="grey" stroke-linecap="round" stroke-width="0.96" x1="403.3747326376209" x2="480.0" y1="480.0" y2="403.3747326376209"/>
    <text fill="black" font-family="sans-serif" font-size="12" text-anchor="start" transform="rotate(-45, 492.0, 397.3747326376209)" x="492.0" y="397.3747326376209">100 pH</text>
    <line fill="none" stroke="black" stroke-linecap="round" stroke-width="1.44" x1="96.0" x2="480.0" y1="480.0" y2="480.0"/>
    <line fill="none" stroke="black" stroke-linecap="round" stroke-width="1.44" x1="96.0" x2="480.0" y1="96.0" y2="96.0"/>
    <line fill="none" stroke="black" stroke-linecap="round" stroke-width="1.44" x1="96.0" x2="96.0" y1="480.0" y2="96.0"/>
    <line fill="none" stroke="black" stroke-linecap="round" stroke-width="1.44" x1="480.0" x2="480.0" y1="480.0" y2="96.0"/>
  </g>
  <g id="traces">
    <polyline clip-path="url(#plotting-region)" fill="none" points="141.8036404530876,393.9666936566399 142.43588023885164,393.58025117318647 143.05881035992851,392.80696826533904 143.6724371602369,391.7508898185589 144.2771634412889,391.59188081080754 144.87324371590637,390.6511013056218 145.46104903632434,390.93310191591195 146.040556625407,389.5599332189739 146.61211956861672,389.084501978555 147.1759527544371,388.6457207694894 147.73238302180337,388.539155813506 148.28136582517195,387.6920928004459 148.82321374643757,387.2410189131231 149.35810986641997,386.50679016622166 149.8863447910887,386.2335077319351 150.4078576456024,385.71015944713315 150.9229276016949,385.15684852606665 151.43182222961573,384.47129241145205 151.93447113961824,383.7564715713658 152.4311321506146,383.421062276166 152.92194624865982,382.85313435189204 153.40715471028963,382.3965342950411 153.8866772781519,381.9748057655993 154.3607472826975,381.5494140496422 154.829487331285,381.4292831563737 155.37228141527657,380.2720172061804 156.00459676744072,379.90222472588687 156.62736796979945,379.54785504176823 157.24106934612715,378.64086914582356 157.84577346900429,378.14134447657705 158.44192545818393,377.42600141137495 159.02967318300244,376.96407911414144 159.60915964252266,376.2891608188195 160.18079146624984,375.9482440487332 160.74460344876172,375.20955777802425 161.30097958589374,374.535490432483 161.85002865089257,374.1498708216453 162.39185630739323,373.45001740706607 162.92681641322076,372.93633024822134 163.45491655022363,372.43965482010213 163.97649267985312,371.73530301122463 164.49162435717403,371.15190056347586 165.00038922112228,370.6917351781086 165.5030991883926,370.4329384167096 165.9997420263471,369.71901981287306 166.49061525057374,369.27507504134024 166.97577625846435,368.8056538854139 167.45528135112372,368.32011066890163 167.92940854182845,367.75063733517936 168.39813106200702,367.3662906192376 168.94094508370597,366.9171710441524 169.5732059624231,366.1006220041769 170.19602169805242,365.426461415202 170.80967033797194,365.06347017225374 171.4144178296504,364.4652175141632 172.01058605360294,363.83384961384024 172.59828316045045,363.16372001436474 173.17781106869023,362.58571703834446 173.74939377773484,362.20975333384354 174.31324619836596,361.58499021097236 174.8696375156403,360.93067641101834 175.41863930844465,360.31689280028615 175.960505728744,359.87358441477164 176.495419876113,359.29565188962727 177.0236176033379,358.59577159254326 177.5451482753083,358.1737431493335 178.06023561132162,357.82146720976516 178.56903688083753,357.152894602706 179.071703664702,356.7033153292616 179.56843830229232,356.0779777852183 180.05926878494165,355.76948929724483 180.54438804019009,355.1262885140294 181.02392745066848,354.7825867597882 181.49801391696855,354.2763714698065 181.96682309489566,353.78440691365665 182.5095424359721,353.2761353666115 183.14182001450612,352.606751526366 183.76465195471698,352.00571752688745 184.37831632569038,351.40807162578926 184.98307909535214,350.76168114320996 185.57919482260652,350.1688255225304 186.1669073006861,349.57847912353714 186.7464501557846,348.9929682129515 187.31804740464943,348.46617768718886 187.88191397446602,348.0048695875015 188.43825618805238,347.2692483376076 188.9872722171059,346.7746154787385 189.52915250599247,346.2148416610422 190.06408016834789,345.74287321446917 190.5922313585564,345.19177679994067 191.11377561999274,344.6638158214264 191.6288762117512,344.1685699964758 192.13769041543532,343.5712293005533 192.6403698234526,343.1404402969338 193.13706061013517,342.6593349608179 193.62790378689957,342.1812051717862 194.11303544256137,341.6895560601022 194.59258696982755,341.19093021517125 195.0666852789108,340.7362617745502 195.5354529991343,340.225549130309 196.07817645297862,339.6245621246378 196.71044704217235,339.1094014248603 197.33330888632045,338.54219813434526 197.9469661373938,337.90540333661045 198.55172199221735,337.2832192278777 199.14783100096204,336.58228344563213 199.7355369486163,336.08805430493464 200.31507345358457,335.55420511497164 200.88669821408104,334.9280655218903 201.450558320107,334.38215218287354 202.00689424126188,333.7391586562694 202.55590414251765,333.25511867766033 203.09777846186273,332.74457018632165 203.63270030688028,332.1544962758162 204.16084582620675,331.69216638394954 204.6824153149844,331.1799881831261 205.1975101349967,330.62756958267346 205.70631870695507,330.17401284438085 206.20899261823274,329.6532870211155 206.70567803836607,329.15843101565537 207.19651597420048,328.60150827968187 207.68167113251977,328.2039230147563 208.16121732988555,327.71582820108364 208.63531042959772,327.26067894110696 209.10407305693664,326.73202669252044 209.6468274086204,326.20648964530614 210.27910491637635,325.60523769084926 210.9019367879081,324.9915390096174 211.51560109220947,324.37670075296955 212.12036379711944,323.8024107522443 212.71647946146035,323.18989950087587 213.30419187838785,322.57242626732994 213.8837100079444,322.0200399928966 214.45530753482691,321.5091393029537 215.0191743751918,320.9149108676462 215.57551685215404,320.37466395251505 216.1245331376924,319.83603765982275 216.66641367643982,319.2711457247335 217.2013415822855,318.7726852870863 217.72949300985414,318.22078384934844 218.25103750274914,317.68260207087195 218.76613832028215,317.23298268385713 219.27495274426366,316.71577718922657 219.77763236729803,316.2226024875381 220.27432336390487,315.73454615631965 220.76516674567972,315.22148786308605 221.2502986016086,314.74545493841094 221.72985032456123,314.26101972574446 222.20394882490567,313.79210996121543 222.67271673211354,313.3331193286636 223.21546211876276,312.80658445948063 223.8477389738174,312.21517127325694 224.47057021200396,311.5784023063454 225.08423390146777,310.9729562947426 225.6889960092484,310.38206773099 226.285111093414,309.77006349915547 226.87282294640826,309.1727733764769 227.45236519367904,308.6324929027274 228.023961851269,308.065269437598 228.58782784569647,307.48686976416207 229.14416949914772,306.96020728983274 229.69318498272142,306.4422919153934 230.23506474021576,305.87814386608653 230.7699754333776,305.35425543658056 231.29812632586834,304.8359013861477 231.8196702969891,304.3399097067645 232.33477060556143,303.8259194696625 232.8435845329295,303.3218460082701 233.34626367125378,302.84038943923684 233.8429541946309,302.3122066358904 234.3337971142534,301.84647935782147 234.81892851872286,301.41357391159903 235.29847980054203,300.9240731404443 235.77257786972885,300.4616435578622 236.2413453554202,299.99960687111775 236.78408728076258,299.4589369095398 237.4163745825589,298.84457267529984 238.03920213855955,298.2272799510298 238.65286225343863,297.6285429903978 239.25762088958714,297.05433969753756 239.85374583127512,296.45069111948635 240.44145422043954,295.870125737075 241.02099309951197,295.29835028787994 241.5925864806283,294.7518557206472 242.1564618062684,294.2044401144399 242.7128001898504,293.65785392292986 243.26181248910717,293.11766487433374 243.8036891445227,292.5866778680869 244.33862514728412,292.06234235322825 244.8667727362472,291.54300198724223 245.38831348597537,291.04738487954546 245.9034106522645,290.53870398587924 246.41222151358016,290.0436237759121 246.9149088286252,289.5360281886508 247.4115962980467,289.0552715765001 247.90243623520016,288.5842773878198 248.38756472620614,288.1226694151528 248.86712381954374,287.64935114050854 249.34121898577013,287.1659938949053 249.80998363341416,286.7247062667336 250.35272556313097,286.1734890254561 250.98500578963973,285.5609939712705 251.6078402992981,284.9721216082378 252.22149733022582,284.3865061680784 252.82626266403167,283.79995595166986 253.42238088262738,283.2061896426659 254.010086360867,282.64763250042836 254.58963170076137,282.06603649768147 255.1612313667542,281.51506597721425 255.7250912470086,280.9587173709448 256.2814358702761,280.4221481922275 256.8304454407813,279.8895415173628 257.37232812939976,279.3633503371288 257.90725813030144,278.8253118151509 258.43540312751566,278.3411572150287 258.95694971727164,277.83049967279635 259.4720525801717,277.32688210769703 259.9808608355514,276.8250801601421 260.48354250434244,276.34566404760943 260.98023549825183,275.86169072060704 261.47107295289345,275.37877674199143 261.9562068053757,274.90417358387504 262.4357527817144,274.4420599040842 262.9098532758643,273.9930421516383 263.3786231322938,273.5304300649715 263.9213647425887,273.0061890214814 264.55364225270205,272.39381513014166 265.1764741265214,271.7834862858657 265.79013843304335,271.18240579876135 266.39490114011,270.61292104532447 266.9910168065464,270.03505922560845 267.5787224213094,269.46075058220447 268.158265312852,268.8960769036159 268.72986259716845,268.32832815884973 269.2937292014842,267.7850755191683 269.85007144865517,267.25613986519045 270.3990875104146,266.70956858308796 270.94096783116237,266.19723214254907 271.47588932756435,265.67815407132315 272.0040406260474,265.1636783014061 272.52558499306645,264.6641468828826 273.04068568781474,264.1706336526067 273.54949999199016,263.6771648994356 274.05217949809014,263.18704306823554 274.5488703805322,262.7025661253897 275.0397079615183,262.2360043870044 275.52483977435145,261.7642972201633 276.004391455194,261.283352807463 276.4784899143807,260.8433575984833 276.94725778135114,260.3806826622164 277.490005388,259.8599979988784 278.1222773767924,259.2485981602516 278.7451090985064,258.63686799144216 279.3587732573679,258.05262330040273 279.963535821027,257.4684079688591 280.55965134812743,256.89115007430956 281.1473636316565,256.3269739407317 281.72690145138733,255.76081320697529 282.2984985822121,255.20663511082893 282.86236503716015,254.66489406019656 283.41870713892325,254.122962060249 283.96772305907905,253.59863564752993 284.5096032418804,253.07369480769407 285.044526325354,252.55798645491424 285.57267747112223,252.04790447817157 286.0942216892231,251.54063629079832 286.6093222387104,251.0424279144005 287.1181364011488,250.55500559977565 287.6208157689091,250.06906612515087 288.11750235879487,249.58749829703214 288.60834554583494,249.11751809077907 289.09347721153455,248.64705114790712 289.57302874860903,248.1831301018619 290.0471270672787,247.7256479154995 290.5158947968743,247.27080815518283 291.0586391069676,246.74714257250756 291.69091635885843,246.13856993690234 292.313747982113,245.53425562130053 292.92740834090284,244.94583636630773 293.53217086507976,244.3599406040861 294.12828635381914,243.78370703095482 294.7159986000609,243.2175584370821 295.2955412297224,242.65627327522213 295.8671348070079,242.10639735197913 296.43100120979454,241.5611241732896 296.9873432607792,241.02086854485938 297.53635913148514,240.49254788198687 298.0782392661137,239.97186200443736 298.6131635459181,239.45648152633285 299.1413146302733,238.94452625496638 299.66285878848817,238.44167048661893 300.17795927956,237.94392039503597 300.68677030959975,237.44789466430808 301.189449658585,236.96757984478242 301.6861403876337,236.4855516061278 302.1769835081134,236.0113410892581 302.66211510879276,235.54050942510355 303.14166368278893,235.07762163328235 303.61576197214737,234.6187417754002 304.084529673087,234.1644191052635 304.62727521748593,233.63968081742027 305.25955190674324,233.02670096490834 305.8823829840493,232.42266304646157 306.49604651733387,231.82840149424277 307.1008084734334,231.24311261133224 307.6969234102246,230.66446935346764 308.28463511997006,230.09368257783757 308.86417470027703,229.53279670966856 309.43577125678416,228.97709818966072 309.99963715284446,228.42989628566806 310.55597871053646,227.88938050191084 311.1049941008563,227.35481922746283 311.6468737675052,226.82551166797114 312.18180082348806,226.30505768626563 312.7099514225898,225.79124433048992 313.2314951076162,225.28427185489488 313.7465951371198,224.78321555068146 314.2554087921893,224.28570487652746 314.75808766474177,223.7953834393665 315.25477792864206,223.31060059724894 315.74561845177993,222.83415946040526 316.23074963350166,222.3619701791693 316.71030069766783,221.8904762815215 317.18439855412373,221.42429310277382 317.65316583184097,220.96764408627206 318.19591101521814,220.4344080337228 318.8281875583907,219.8161984972593 319.45101849394433,219.20513784078662 320.0646818896188,218.6034394381307 320.6694437120716,218.00855785372872 321.2655585190106,217.4230425146347 321.8532701025391,216.84515777665302 322.4328120877838,216.27444252740247 323.00440849048334,215.70867855282253 323.5682742368684,215.15269136549702 324.124615648853,214.60586510973283 324.6736308972779,214.06049543947447 325.2155104256964,213.5242937929115 325.7504373469733,212.99475077541842 326.27858781476044,212.47112943431932 326.80013137173694,211.95231948456058 327.31523127633545,211.44430456582626 327.82404480952994,210.93634949182163 328.32672356312867,210.43793514342053 328.8234137108925,209.94033982586302 329.31425626369395,209.4492868124232 329.7993873098296,208.96627686372452 330.27893824151096,208.48557963981946 330.75303447323614,208.010818248798 331.2218016410777,207.543035477893 331.76454755571217,206.99638239410564 332.3968248428272,206.36199849568658 333.0196550841388,205.73375435662024 333.6333178058585,205.1145515034279 334.23808034910354,204.503575572474 334.83419450055806,203.90153645793552 335.4219067837861,203.30548963118994 336.00144813103304,202.71774380102363 336.57304521353717,202.13525233912495 337.13691033850387,201.56074105467667 337.6932511455445,200.99129536050563 338.2422670542445,200.42800533402954 338.7841459926276,199.87180991190093 339.31907355644927,199.32327195715044 339.84722344839486,198.7781467953743 340.3687676311115,198.23883747262022 340.8838669733969,197.70686609564802 341.3926799579199,197.1782254670268 341.8953593205765,196.65347303778316 342.39204893194903,196.13921355693444 342.88289207870133,195.6240141433052 343.3680226001903,195.1184188000864 343.8475741114447,194.61443553739667 344.3216713250083,194.11396979881874 344.7904390420056,193.62149386779964 345.33318417015613,193.0483382769915 345.96977634028167,192.3738815719987 346.596794493861,191.70357581251676 347.2145223457388,191.04170842445228 347.82323118333295,190.38794479166273 348.42318058200505,189.74319362628444 349.01461906968734,189.10482154296452 349.59778474502207,188.47328950618268 350.1729058528645,187.84515193907163 350.7402013206279,187.22561654978523 351.299881258627,186.61110163131664 351.85214742727965,186.00342372275168 352.3971936737686,185.40090276599503 352.9352063405257,184.80422165692437 353.46636464769506,184.21338508524022 353.99084105153725,183.62791269563365 354.5088015805694,183.04614198311498 355.02040615108035,182.47097037555977 355.52580886352035,181.89760349770216 356.0251582811409,181.3314682281355 356.5185976921441,180.76745662193954 357.0062653565002,180.2102298612607 357.48829473849537,179.65629982444142 357.9648147259904,179.10610341952298 358.43594983728894,178.55881979265666 358.90182041644886,178.01574153540173 359.44456549589506,177.382573069908 360.07684211931985,176.6357016460092 360.6996731327456,175.90086137683585 361.3133366040166,175.1682610780684 361.9180977918202,174.4412621084163 362.5142126801458,173.72065217673708 363.1019243427825,173.00842098735657 363.6814664049514,172.29921565571044 364.25306288248026,171.5937505501953 364.8169280411746,170.89270089754638 365.37326953280296,170.19813768478343 365.92228485878763,169.50314932544342 366.464164462763,168.81522698820558 366.9990914576703,168.13182102543988 367.5272413782967,167.45184376342544 368.0487850129596,166.77277777069276 368.5638849933367,166.09639569785736 369.07269860047154,165.42401572528644 369.5753774262381,164.75771411059895 370.0720670621721,164.0927582339104 370.5629096905981,163.43162650430142 371.0480408106084,162.77058439673272 371.5275918144749,162.11243595543914 372.0016896119945,161.454930670921 372.47045628235645,160.80005657998697 373.01320218088165,160.03697559785803 373.64547855741273,159.13582783013533 374.2683093312666,158.2401695570698 374.8819725699665,157.34672070072713 375.48673423996587,156.45391715432032 376.0828488987799,155.56339607174252 376.6705603383303,154.6774447271905 377.2501026737647,153.7915677137053 377.8216989335991,152.90653437672918 378.3855645409575,152.02520793757895 378.94190581760114,151.14168555126062 379.49092093422587,150.2552780973054 380.0328003342483,149.37444837314604 380.56772758310046,148.49066282348664 381.0958779232168,147.60709757018594 381.6174213556967,146.72397100486478 382.13252113885585,145.83806242200052 382.64133455355716,144.95361284349312 383.1440131915028,144.06384192763426 383.64070364688405,143.17894287945882 384.13154608449287,142.2903724101521 384.6166770181011,141.40520342225136 385.09622783982894,140.5126495325612 385.57032545932884,139.61709372040045 386.0390925053887,138.72667956645083 386.58183809798993,137.67766331054383 387.21411445121606,136.4350570531629 387.83694558272214,135.1922006284379 388.45060879391303,133.9469691875582 389.0553704371957,132.69960023207386 389.65148543412243,131.4492410634261 390.2391968433454,130.194878846821 390.81873865909677,128.9438825654567 391.39033524611756,127.68749435946292 391.95420082736393,126.43105623526232 392.5105420785878,125.17899314134934 393.0595571704578,123.9217149995743 393.6014368775268,122.67949328506558 394.136363645959,121.4328272102242 394.6645139647494,120.20646038875267 395.1860576952453,118.98827760112255 395.70115745420503,117.78829422178015 396.2099708452938,116.60193661963916 396.712649767542,115.44222113701389 397.20933977625174,114.30933844985398 397.7001821932538,113.20372329540012 398.1853131067323,112.13183412070265 398.66486420208,111.10268713328882 399.13896179903907,110.1084074366956 399.60772882306213,109.17543379404039 400.1504743192074,108.14812871167412 400.78275075303054,107.0447460168597 401.4055815824774,106.08333961008206 402.01924514576297,105.26235474381018 402.6240068642793,104.60894427437431 403.22012157023283,104.11546890409358 403.80783305560317,103.79705134501081 404.3873749453995,103.65336964336586 404.9589712552501,103.68167309141138 405.5228369112808,103.86982767384708 406.07917848081354,104.21029402849993 406.6281936403689,104.68581788803309 407.1700730822132,105.29193561935686 407.7049999191232,106.00847384975994 408.2331503046675,106.8163433428286 408.75469378144595,107.70064348655536 409.26979360781576,108.65303824504223 409.7786070646794,109.65693916557204 410.2812859657459,110.70478369663013 410.77797603814423,111.78450338403903 411.26881851734464,112.87580288199219 411.75394949158186,113.9816646976469 412.2335003530095,115.10101629725015 412.7075980113115,116.21928456870758 413.17636509530564,117.33687615378724 413.71911067788346,118.63231983190589 414.35138702663863,120.14550496694885 414.97421797187894,121.63383641736739 415.5878811815163,123.09967037530723 416.1926430159165,124.52311652082255 416.78875783446347,125.92312143752692 417.3764692420415,127.28210466799077 417.95601124084243,128.61049502546 418.5276074745941,129.90272699731167 419.09147323625876,131.1625187365708 419.64781466311786,132.38899904210973 420.19682975104115,133.58360879347595 420.7387092958303,134.74403928377396 421.2736360625354,135.87657939876505 421.8017865480208,136.9779124658251 422.3233301222556,138.04772092488713 422.83842987944485,139.094112266513 423.3472434310575,140.1100097693766 423.84992204232606,141.0978674762681 424.3466122095394,142.064857414752 424.83745478133517,143.00727900094375 425.32258569128214,143.929149758685 425.8021366428635,144.82621248356637 426.2762342380366,145.70575822370114 426.7450014098664,146.56076420930475 427.2877467897414,147.5452026512479 427.9200233277652,148.6741290142287 428.5428542583225,149.76858306098404 429.1565175079985,150.83193845669595 429.7612793277733,151.86792506348593 430.35739399496975,152.87376667354803 430.94510557788885,153.8517939294569 431.5246474291866,154.80839521057334 432.0962438331254,155.73954277730047 432.6601094509449,156.6479518414426 433.2164508658239,157.53470804250202 433.76546599069104,158.40051226031608 434.30734552348713,159.24533821209806 434.84227232587585,160.07400050937943 435.37042279937197,160.88574040067363 435.89196624182335,161.68026420731172 436.40706615332664,162.46035990355367 436.9158796932583,163.2221818954369 437.4185583376585,163.96967703876737 437.91524849321337,164.7059258372579 438.4060909405594,165.42642061790656 438.8912219954356,166.13502986107915 439.3707728251796,166.83196144296022 439.8448705617434,167.51440220776493 440.3136376142416,168.18521624822682 440.85638309026854,168.95698021693897 441.4886595682727,169.85222302973455 442.11149044059067,170.43013514413138 442.7251537748773,171.27791192246107 443.32991553771035,172.10895811070807 443.92603028672227,172.92038165542135 444.5137418139455,173.71427829030057 445.0932836481302,174.49687091999715 445.6648799988813,175.26371587634173 446.2287456947136,176.01596544882906 446.7850870574857,176.75443690756907 447.3341022579856,177.48292896522497 447.8759817397169,178.19400751175078 448.41090861549674,178.8950797014586 448.9390590389325,179.58348011162946 449.46060255266025,180.26085792280256 449.97570241507213,180.927565306231 450.4845159071034,181.58569895357772 450.98719462052554,182.23259788124096 451.48388464644177,182.86980582196915 451.9747271619034,183.49811565194477 452.45985817156316,184.12063102254098 452.939409067603,184.73268128131636 453.41350675973445,185.33469335502977 453.8822738768017,185.93003277935145 454.42501931257874,186.6146785755292 455.05729579687033,187.41196888413268 455.6801266752892,188.19257976713624 456.29379001549836,188.95801842603356 456.8985517115236,189.71120049463246 457.4946664671545,190.44660551271113 458.082378000811,191.1691876351291 458.66191993756075,191.88108722375995 459.23351629308604,192.58439734840766 459.7973819258781,193.28084944066512 460.35372329407016,193.96500817797664 460.9027384998481,194.64165041638134 461.4446179867211,195.30645594864717 461.9795448675118,195.95988960068576 462.50769523240604,196.6142969073791 463.0292387516854,197.25777853897807 463.5443386195125,197.8917131434821 464.0531521168276,198.5231582111533 464.55583083540694,199.14406006205905 465.0525208893106,199.75397468821618 465.5433634094207,200.35808629071713 466.0284944236215,200.9546205109863 466.50804532409853,201.5426817477361 466.98214302056675,202.12081047219743 467.45091008553925,202.69317042236355 467.9936555419719,203.3555180926245 468.62593202362933,204.13003402094012 469.24876289949214,204.89620296329386 469.8624262372199,205.65769794708058 470.46718795099207,206.4092259020928 471.06330270399525,207.1476085379088 471.6510142350977,207.87530421941284 472.23055616936404,208.597966862256 472.80215252247325,209.30504233716152 473.3660181717172,210.00320630836416 473.9223595373713,210.68821479119168 474.47137474067773,211.36762445098753 475.013254225143,212.03760902531178 475.54818110358735,212.6954195600338 476.0763314838138,213.34897730515064 476.59787500064385,213.99694721985833 477.11297486608163,214.64583724090318 477.62178836106546,215.29065976245775 478.12446703375866,215.92846269385166 478.6211571456274,216.55751832677424 479.11199966337415,217.174869319107 479.59713067526616,217.78932191632833 480.07668157348706,218.4012179426466 480.55077922660513,219.00122968251338 481.01954634621654,219.59731971953818 481.5622918054268,220.28752849759758 482.19456826716544,221.1074100070395 482.8173991237,221.91379022511347 483.4310624426645,222.71037068498958 484.03582422846233,223.49760608120636 484.63193896247867,224.2812390333183 485.219650475126,225.05561785056818 485.7991923914466,225.81240202744516 486.3707887270988,226.55817770491942 486.9346544435417,227.29368891366832 487.49099579154233,228.0247978267535 488.0400109776571,228.7493993442851 488.58189044537477,229.47059950786004 489.11681730749854,230.19435614565566 489.6449677176217,230.92148980666803 490.1665112510385,231.64162630707793 490.6816111003864,232.35441776426518 491.1904245796709,233.05249650142116 491.6931032806515,233.74003083978016 492.1897933770436,234.42300477559007 492.6806359104346,235.09877918257783 493.16576690720586,235.7764344995063 493.64531779065203,236.4542818055305 494.1194154704746,237.12006300091497 494.5881825755084,237.78161480768176 495.13092803945585,238.54394900009783 495.76320449113473,239.44003296492144 496.3860353660506,240.31826478504652 496.99969870285935,241.19569712819452 497.60446044080965,242.07260980952873 498.20057519258944,242.94997067150462 498.78828669593605,243.82777411122325 499.3678286294128,244.68880968888453 499.93942498175414,245.53713527821355 500.5032906536377,246.3838931912853 501.05963201825426,247.20554584957773 501.6086472205503,248.0262576357548 502.15052667952267,248.85136841701473 502.6854535573204,249.67749713457403 503.21360395883124,250.50027517105445 503.7351474747742,251.29440741722846 504.2502473393465,252.087994187867 504.7590608104638,252.8877805162125 505.2617395262193,253.68448890127502 505.7584296145595,254.50046262200115 506.2492721315422,255.311560362251 506.7344031426878,256.0886873518948 507.2139540184736,256.8380443110393 507.68805171226944,257.5856777189747 508.1568188309639,258.348577932784 508.69956426476824,259.24747659424196 509.33184074018936,259.65792767325934 509.9546716100009,260.6009023177599 510.5683349218263,261.50228296263697 511.1730966825847,262.42858735284904 511.76921142958076,263.35095809614535 512.3569229356576,264.2264112555173 512.9364648645111,265.04432780655816 513.508061212355,265.8340676990433 514.0719269053582,266.59617458056346 514.6282682472067,267.35871160652425 515.1772834452622,268.09002218812634 515.7191629246123,268.8071963224986 516.2540897805973,269.5422030282316 516.7822402019908,270.2919508052778 517.3037837137274,271.0513675920039 517.8188835741969,271.78077297601226 518.3276970477059,272.4148534682042 518.8303757594775,273.0857225309378 519.3270658664048,273.7766233106193 519.8179083632828,274.45402602434376 520.3030393706462,275.0757650457401 520.7825902644422,275.67178863732624 521.2566879388814,276.2760274659678 521.7254550539781,276.9033120877487 522.2682005029291,277.5289210829601 522.9004769701232,278.20110272068666 523.5233078319518,278.86471115495084 524.1369711705196,279.5079744570829 524.7417329232546,280.0610454286834 525.3378476624553,280.61490976267436 525.9255591801418,281.09385813606264 526.5051011013625,281.50150638766905 527.0766974417813,281.8680313843957 527.6405631275591,282.19074514887654 528.1969044936652,282.4328445068195 528.7459196844616,282.71358600920576 529.28779915674,282.8619762636358 529.822726023308,282.9935180637796 530.3508764377635,283.1188490940966 530.8724199427345,283.09378953873636 531.3875197966047,283.09176134388 531.8963332923095,283.11111290630504 532.3990119974528,282.97227888330104 532.8957020979092,282.8504516367034 533.3865446045104,282.73211362453264 533.8716756055147,282.5193557052408 534.3512264930971,282.2752446038148 534.8253241769625,282.0746632882803 535.2940912970166,281.75845431661975 535.8368367450705,281.45260505021577 536.4691132071554,280.9581895590702 537.0919440746269,280.51855651698463 537.7056074042086,279.95294224897987 538.3103691521767,279.4437455560992 538.9064838968952,278.83432607836994 539.4941954199452,278.2343221653003 540.0737373365116,277.6045214509558 540.6453336821384,276.96571010737614 541.2091993729839,276.27436798029964 541.7655407214245,275.6070687816451 542.3145559173206,274.9180137086852 542.8564353945671,274.19726585757064 543.3913622568623,273.54802359293996 543.9195126761525,272.7831135575023 544.4410561858376,272.13108470418047 544.9561560355277,271.3877787446851 545.4649695238179,270.7388362546249 545.9676482335884,270.0307540538141 546.4643383300954,269.34233495588893 546.9551808412077,268.6250896409481 547.4403118466187,267.91400044793284 547.9198627303306,267.2011029073737 548.3939604184967,266.4783033001139 548.8627275316874,265.81680263978404 549.4054729779185,264.9763304608276 550.0377494484865,264.0347238465195 550.6605803135888,263.07632876686193 551.2742436333263,262.14079567687503 551.8790053894645,261.2255447783982 552.4751201319721,260.3339046163014 553.062831652873,259.4701293229398 553.642373577219,258.718196604909 554.2139699206784,257.98476397339226 554.7778356024787,257.388013464829 555.334176958435,256.9494819369971 555.8831921522974,256.6789996701442 556.4250716275626,256.6403331419739 556.9599984970414,256.89331919760724 557.4881489143345,257.4431102697489 558.0096924156537,258.2857828231661 558.5247922723017,259.44894938558923 559.033605758709,260.8155369645149 559.5362844666417,262.27937989081965 560.0329745698212,263.781966515891 560.523817079082,265.1659466658235 561.0089480767112,266.36305338961904 561.4884989669006,267.3160614329837 561.9625966533138,268.08773392918124 562.4313637647907,268.60057295256956 562.9741092147183,268.83646609086117 563.6063856817973,268.8606545370159 564.229216549043,268.7225675603215 564.8428798729574,268.3268373900281 565.4476416257166,267.78254501717726 566.0437563702347,267.1176436442292 566.63146788787,266.3598794372198 567.2110098090409,265.57472030868576 567.782606154489,264.71585358053864 568.3464718401515,263.8317123506964 568.9028131979665,262.9640614467769 569.4518283887603,262.07155924952974 569.9937078610362,261.1229282442708 570.5286347323561,260.2084733768186 571.0567851467498,259.29903428996204 571.5783286562962,258.4050794294469 572.0934285100504,257.5298434405579 572.6022419936342,256.69553597916735 573.10492070328,255.84903497926297 573.6016108037163,255.08936307899984 574.0924533102979,254.38435701270967 574.577584315597,253.64258813195585 575.0571352031111,252.98800117174858 575.5312328911261,252.42393667852232 576.0,251.85825169932355" stroke="black" stroke-linecap="round" stroke-width="2.4000000000000004"/>
  </g>
</svg>
