<?xml version="1.0" encoding="utf-8" ?>
<svg xmlns="http://www.w3.org/2000/svg" xmlns:ev="http://www.w3.org/2001/xml-events" xmlns:xlink="http://www.w3.org/1999/xlink" baseProfile="full" height="576" version="1.1" width="576">
  <defs>
    <clipPath id="plotting-region">
      <polygon fill="white" points="96.0,480.0 96.0,96.0 480.0,96.0 480.0,480.0" stroke="none"/>
    </clipPath>
  </defs>
  <g id="grid">
    <polygon fill="white" points="96.0,480.0 96.0,96.0 480.0,96.0 480.0,480.0" stroke="none"/>
    <line fill="none" stroke="grey" stroke-linecap="round" stroke-width="0.48" x1="96.0" x2="480.0" y1="451.1011204162578" y2="451.1011204162578"/>
    <line fill="none" stroke="grey" stroke-linecap="round" stroke-width="0.48" x1="96.0" x2="480.0" y1="434.1963595469124" y2="434.1963595469124"/>
    <line fill="none" stroke="grey" stroke-linecap="round" stroke-width="0.48" x1="96.0" x2="480.0" y1="422.2022408325156" y2="422.2022408325156"/>
    <line fill="none" stroke="grey" stroke-linecap="round" stroke-width="0.48" x1="96.0" x2="480.0" y1="412.8988795837422" y2="412.8988795837422"/>
    <line fill="none" stroke="grey" stroke-linecap="round" stroke-width="0.48" x1="96.0" x2="480.0" y1="405.2974799631702" y2="405.2974799631702"/>
    <line fill="none" stroke="grey" stroke-linecap="round" stroke-width="0.48" x1="96.0" x2="480.0" y1="398.87058815863134" y2="398.87058815863134"/>
    <line fill="none" stroke="grey" stroke-linecap="round" stroke-width="0.48" x1="96.0" x2="480.0" y1="393.3033612487734" y2="393.3033612487734"/>
    <line fill="none" stroke="grey" stroke-linecap="round" stroke-width="0.48" x1="96.0" x2="480.0" y1="388.3927190938248" y2="388.3927190938248"/>
    <line fill="none" stroke="grey" stroke-linecap="round" stroke-width="0.48" x1="96.0" x2="480.0" y1="355.1011204162578" y2="355.1011204162578"/>
    <line fill="none" stroke="grey" stroke-linecap="round" stroke-width="0.48" x1="96.0" x2="480.0" y1="338.1963595469124" y2="338.1963595469124"/>
    <line fill="none" stroke="grey" stroke-linecap="round" stroke-width="0.48" x1="96.0" x2="480.0" y1="326.2022408325156" y2="326.2022408325156"/>
    <line fill="none" stroke="grey" stroke-linecap="round" stroke-width="0.48" x1="96.0" x2="480.0" y1="316.8988795837422" y2="316.8988795837422"/>
    <line fill="none" stroke="grey" stroke-linecap="round" stroke-width="0.48" x1="96.0" x2="480.0" y1="309.2974799631702" y2="309.2974799631702"/>
    <line fill="none" stroke="grey" stroke-linecap="round" stroke-width="0.48" x1="96.0" x2="480.0" y1="302.87058815863134" y2="302.87058815863134"/>
    <line fill="none" stroke="grey" stroke-linecap="round" stroke-width="0.48" x1="96.0" x2="480.0" y1="297.3033612487734" y2="297.3033612487734"/>
    <line fill="none" stroke="grey" stroke-linecap="round" stroke-width="0.48" x1="96.0" x2="480.0" y1="292.39271909382484" y2="292.39271909382484"/>
    <line fill="none" stroke="grey" stroke-linecap="round" stroke-width="0.48" x1="96.0" x2="480.0" y1="259.1011204162578" y2="259.1011204162578"/>
    <line fill="none" stroke="grey" stroke-linecap="round" stroke-width="0.48" x1="96.0" x2="480.0" y1="242.1963595469124" y2="242.1963595469124"/>
    <line fill="none" stroke="grey" stroke-linecap="round" stroke-width="0.48" x1="96.0" x2="480.0" y1="230.2022408325156" y2="230.2022408325156"/>
    <line fill="none" stroke="grey" stroke-linecap="round" stroke-width="0.48" x1="96.0" x2="480.0" y1="220.8988795837422" y2="220.8988795837422"/>
    <line fill="none" stroke="grey" stroke-linecap="round" stroke-width="0.48" x1="96.0" x2="480.0" y1="213.2974799631702" y2="213.2974799631702"/>
    <line fill="none" stroke="grey" stroke-linecap="round" stroke-width="0.48" x1="96.0" x2="480.0" y1="206.87058815863134" y2="206.87058815863134"/>
    <line fill="none" stroke="grey" stroke-linecap="round" stroke-width="0.48" x1="96.0" x2="480.0" y1="201.3033612487734" y2="201.3033612487734"/>
    <line fill="none" stroke="grey" stroke-linecap="round" stroke-width="0.48" x1="96.0" x2="480.0" y1="196.39271909382484" y2="196.39271909382484"/>
    <line fill="none" stroke="grey" stroke-linecap="round" stroke-width="0.48" x1="96.0" x2="480.0" y1="163.1011204162578" y2="163.1011204162578"/>
    <line fill="none" stroke="grey" stroke-linecap="round" stroke-width="0.48" x1="96.0" x2="480.0" y1="146.1963595469124" y2="146.1963595469124"/>
    <line fill="none" stroke="grey" stroke-linecap="round" stroke-width="0.48" x1="96.0" x2="480.0" y1="134.2022408325156" y2="134.2022408325156"/>
    <line fill="none" stroke="grey" stroke-linecap="round" stroke-width="0.48" x1="96.0" x2="480.0" y1="124.8988795837422" y2="124.8988795837422"/>
    <line fill="none" stroke="grey" stroke-linecap="round" stroke-width="0.48" x1="96.0" x2="480.0" y1="117.29747996317019" y2="117.29747996317019"/>
    <line fill="none" stroke="grey" stroke-linecap="round" stroke-width="0.48" x1="96.0" x2="480.0" y1="110.87058815863134" y2="110.87058815863134"/>
    <line fill="none" stroke="grey" stroke-linecap="round" stroke-width="0.48" x1="96.0" x2="480.0" y1="105.3033612487734" y2="105.3033612487734"/>
    <line fill="none" stroke="grey" stroke-linecap="round" stroke-width="0.48" x1="96.0" x2="480.0" y1="100.39271909382478" y2="100.39271909382478"/>
    <line fill="none" stroke="grey" stroke-linecap="round" stroke-width="0.48" x1="124.8988795837422" x2="124.8988795837422" y1="480.0" y2="96.0"/>
    <line fill="none" stroke="grey" stroke-linecap="round" stroke-width="0.48" x1="141.8036404530876" x2="141.8036404530876" y1="480.0" y2="96.0"/>
    <line fill="none" stroke="grey" stroke-linecap="round" stroke-width="0.48" x1="153.7977591674844" x2="153.7977591674844" y1="480.0" y2="96.0"/>
    <line fill="none" stroke="grey" stroke-linecap="round" stroke-width="0.48" x1="163.1011204162578" x2="163.1011204162578" y1="480.0" y2="96.0"/>
    <line fill="none" stroke="grey" stroke-linecap="round" stroke-width="0.48" x1="170.7025200368298" x2="170.7025200368298" y1="480.0" y2="96.0"/>
    <line fill="none" stroke="grey" stroke-linecap="round" stroke-width="0.48" x1="177.12941184136866" x2="177.12941184136866" y1="480.0" y2="96.0"/>
    <line fill="none" stroke="grey" stroke-linecap="round" stroke-width="0.48" x1="182.6966387512266" x2="182.6966387512266" y1="480.0" y2="96.0"/>
    <line fill="none" stroke="grey" stroke-linecap="round" stroke-width="0.48" x1="187.60728090617522" x2="187.60728090617522" y1="480.0" y2="96.0"/>
    <line fill="none" stroke="grey" stroke-linecap="round" stroke-width="0.48" x1="220.8988795837422" x2="220.8988795837422" y1="480.0" y2="96.0"/>
    <line fill="none" stroke="grey" stroke-linecap="round" stroke-width="0.48" x1="237.8036404530876" x2="237.8036404530876" y1="480.0" y2="96.0"/>
    <line fill="none" stroke="grey" stroke-linecap="round" stroke-width="0.48" x1="249.7977591674844" x2="249.7977591674844" y1="480.0" y2="96.0"/>
    <line fill="none" stroke="grey" stroke-linecap="round" stroke-width="0.48" x1="259.1011204162578" x2="259.1011204162578" y1="480.0" y2="96.0"/>
    <line fill="none" stroke="grey" stroke-linecap="round" stroke-width="0.48" x1="266.7025200368298" x2="266.7025200368298" y1="480.0" y2="96.0"/>
    <line fill="none" stroke="grey" stroke-linecap="round" stroke-width="0.48" x1="273.12941184136866" x2="273.12941184136866" y1="480.0" y2="96.0"/>
    <line fill="none" stroke="grey" stroke-linecap="round" stroke-width="0.48" x1="278.6966387512266" x2="278.6966387512266" y1="480.0" y2="96.0"/>
    <line fill="none" stroke="grey" stroke-linecap="round" stroke-width="0.48" x1="283.6072809061752" x2="283.6072809061752" y1="480.0" y2="96.0"/>
    <line fill="none" stroke="grey" stroke-linecap="round" stroke-width="0.48" x1="316.8988795837422" x2="316.8988795837422" y1="480.0" y2="96.0"/>
    <line fill="none" stroke="grey" stroke-linecap="round" stroke-width="0.48" x1="333.8036404530876" x2="333.8036404530876" y1="480.0" y2="96.0"/>
    <line fill="none" stroke="grey" stroke-linecap="round" stroke-width="0.48" x1="345.7977591674844" x2="345.7977591674844" y1="480.0" y2="96.0"/>
    <line fill="none" stroke="grey" stroke-linecap="round" stroke-width="0.48" x1="355.1011204162578" x2="355.1011204162578" y1="480.0" y2="96.0"/>
    <line fill="none" stroke="grey" stroke-linecap="round" stroke-width="0.48" x1="362.7025200368298" x2="362.7025200368298" y1="480.0" y2="96.0"/>
    <line fill="none" stroke="grey" stroke-linecap="round" stroke-width="0.48" x1="369.12941184136866" x2="369.12941184136866" y1="480.0" y2="96.0"/>
    <line fill="none" stroke="grey" stroke-linecap="round" stroke-width="0.48" x1="374.6966387512266" x2="374.6966387512266" y1="480.0" y2="96.0"/>
    <line fill="none" stroke="grey" stroke-linecap="round" stroke-width="0.48" x1="379.6072809061752" x2="379.6072809061752" y1="480.0" y2="96.0"/>
    <line fill="none" stroke="grey" stroke-linecap="round" stroke-width="0.48" x1="412.8988795837422" x2="412.8988795837422" y1="480.0" y2="96.0"/>
    <line fill="none" stroke="grey" stroke-linecap="round" stroke-width="0.48" x1="429.8036404530876" x2="429.8036404530876" y1="480.0" y2="96.0"/>
    <line fill="none" stroke="grey" stroke-linecap="round" stroke-width="0.48" x1="441.7977591674844" x2="441.7977591674844" y1="480.0" y2="96.0"/>
    <line fill="none" stroke="grey" stroke-linecap="round" stroke-width="0.48" x1="451.1011204162578" x2="451.1011204162578" y1="480.0" y2="96.0"/>
    <line fill="none" stroke="grey" stroke-linecap="round" stroke-width="0.48" x1="458.7025200368298" x2="458.7025200368298" y1="480.0" y2="96.0"/>
    <line fill="none" stroke="grey" stroke-linecap="round" stroke-width="0.48" x1="465.12941184136866" x2="465.12941184136866" y1="480.0" y2="96.0"/>
    <line fill="none" stroke="grey" stroke-linecap="round" stroke-width="0.48" x1="470.6966387512266" x2="470.6966387512266" y1="480.0" y2="96.0"/>
    <line fill="none" stroke="grey" stroke-linecap="round" stroke-width="0.48" x1="475.6072809061752" x2="475.6072809061752" y1="480.0" y2="96.0"/>
    <line fill="none" stroke="grey" stroke-linecap="round" stroke-width="0.96" x1="96.0" x2="480.0" y1="480.0" y2="480.0"/>
    <text fill="black" font-family="sans-serif" font-size="12" text-anchor="end" x="81.6" y="484.2">100 mΩ</text>
    <line fill="none" stroke="grey" stroke-linecap="round" stroke-width="0.96" x1="96.0" x2="480.0" y1="384.0" y2="384.0"/>
    <text fill="black" font-family="sans-serif" font-size="12" text-anchor="end" x="81.6" y="388.2">1 Ω</text>
    <line fill="none" stroke="grey" stroke-linecap="round" stroke-width="0.96" x1="96.0" x2="480.0" y1="288.0" y2="288.0"/>
    <text fill="black" font-family="sans-serif" font-size="12" text-anchor="end" x="81.6" y="292.2">10 Ω</text>
    <line fill="none" stroke="grey" stroke-linecap="round" stroke-width="0.96" x1="96.0" x2="480.0" y1="192.0" y2="192.0"/>
    <text fill="black" font-family="sans-serif" font-size="12" text-anchor="end" x="81.6" y="196.2">100 Ω</text>
    <line fill="none" stroke="grey" stroke-linecap="round" stroke-width="0.96" x1="96.0" x2="480.0" y1="96.0" y2="96.0"/>
    <text fill="black" font-family="sans-serif" font-size="12" text-anchor="end" x="81.6" y="100.2">1 kΩ</text>
    <line fill="none" stroke="grey" stroke-linecap="round" stroke-width="0.96" x1="96.0" x2="96.0" y1="480.0" y2="96.0"/>
    <text fill="black" font-family="sans-serif" font-size="12" text-anchor="middle" x="96.0" y="506.4">100 kHz</text>
    <line fill="none" stroke="grey" stroke-linecap="round" stroke-width="0.96" x1="192.0" x2="192.0" y1="480.0" y2="96.0"/>
    <text fill="black" font-family="sans-serif" font-size="12" text-anchor="middle" x="192.0" y="506.4">1 MHz</text>
    <line fill="none" stroke="grey" stroke-linecap="round" stroke-width="0.96" x1="288.0" x2="288.0" y1="480.0" y2="96.0"/>
    <text fill="black" font-family="sans-serif" font-size="12" text-anchor="middle" x="288.0" y="506.4">10 MHz</text>
    <line fill="none" stroke="grey" stroke-linecap="round" stroke-width="0.96" x1="384.0" x2="384.0" y1="480.0" y2="96.0"/>
    <text fill="black" font-family="sans-serif" font-size="12" text-anchor="middle" x="384.0" y="506.4">100 MHz</text>
    <line fill="none" stroke="grey" stroke-linecap="round" stroke-width="0.96" x1="480.0" x2="480.0" y1="480.0" y2="96.0"/>
    <text fill="black" font-family="sans-serif" font-size="12" text-anchor="middle" x="480.0" y="506.4">1 GHz</text>
    <line fill="none" stroke="grey" stroke-linecap="round" stroke-width="0.48" x1="115.37473263762092" x2="96.0" y1="480.0" y2="460.6252673623791"/>
    <line fill="none" stroke="grey" stroke-linecap="round" stroke-width="0.48" x1="211.37473263762092" x2="96.0" y1="480.0" y2="364.625267362379"/>
    <line fill="none" stroke="grey" stroke-linecap="round" stroke-width="0.48" x1="182.47585305387872" x2="96.0" y1="480.0" y2="393.5241469461213"/>
    <line fill="none" stroke="grey" stroke-linecap="round" stroke-width="0.48" x1="165.5710921845334" x2="96.0" y1="480.0" y2="410.4289078154667"/>
    <line fill="none" stroke="grey" stroke-linecap="round" stroke-width="0.48" x1="153.57697347013652" x2="96.0" y1="480.0" y2="422.4230265298635"/>
    <line fill="none" stroke="grey" stroke-linecap="round" stroke-width="0.48" x1="144.27361222136312" x2="96.0" y1="480.0" y2="431.7263877786369"/>
    <line fill="none" stroke="grey" stroke-linecap="round" stroke-width="0.48" x1="136.6722126007912" x2="96.0" y1="480.0" y2="439.3277873992089"/>
    <line fill="none" stroke="grey" stroke-linecap="round" stroke-width="0.48" x1="130.24532079625234" x2="96.0" y1="480.0" y2="445.75467920374774"/>
    <line fill="none" stroke="grey" stroke-linecap="round" stroke-width="0.48" x1="124.67809388639441" x2="96.0" y1="480.0" y2="451.32190611360556"/>
    <line fill="none" stroke="grey" stroke-linecap="round" stroke-width="0.48" x1="119.76745173144579" x2="96.0" y1="480.0" y2="456.2325482685542"/>
    <line fill="none" stroke="grey" stroke-linecap="round" stroke-width="0.48" x1="307.3747326376209" x2="96.0" y1="480.0" y2="268.625267362379"/>
    <line fill="none" stroke="grey" stroke-linecap="round" stroke-width="0.48" x1="278.4758530538787" x2="96.0" y1="480.0" y2="297.5241469461212"/>
    <line fill="none" stroke="grey" stroke-linecap="round" stroke-width="0.48" x1="261.5710921845334" x2="96.0" y1="480.0" y2="314.42890781546663"/>
    <line fill="none" stroke="grey" stroke-linecap="round" stroke-width="0.48" x1="249.57697347013652" x2="96.0" y1="480.0" y2="326.4230265298634"/>
    <line fill="none" stroke="grey" stroke-linecap="round" stroke-width="0.48" x1="240.27361222136312" x2="96.0" y1="480.0" y2="335.7263877786368"/>
    <line fill="none" stroke="grey" stroke-linecap="round" stroke-width="0.48" x1="232.6722126007912" x2="96.0" y1="480.0" y2="343.32778739920883"/>
    <line fill="none" stroke="grey" stroke-linecap="round" stroke-width="0.48" x1="226.24532079625234" x2="96.0" y1="480.0" y2="349.7546792037477"/>
    <line fill="none" stroke="grey" stroke-linecap="round" stroke-width="0.48" x1="220.6780938863944" x2="96.0" y1="480.0" y2="355.32190611360556"/>
    <line fill="none" stroke="grey" stroke-linecap="round" stroke-width="0.48" x1="215.7674517314458" x2="96.0" y1="480.0" y2="360.2325482685542"/>
    <line fill="none" stroke="grey" stroke-linecap="round" stroke-width="0.48" x1="403.3747326376209" x2="96.0" y1="480.0" y2="172.62526736237908"/>
    <line fill="none" stroke="grey" stroke-linecap="round" stroke-width="0.48" x1="374.4758530538787" x2="96.0" y1="480.0" y2="201.52414694612122"/>
    <line fill="none" stroke="grey" stroke-linecap="round" stroke-width="0.48" x1="357.5710921845334" x2="96.0" y1="480.0" y2="218.42890781546663"/>
    <line fill="none" stroke="grey" stroke-linecap="round" stroke-width="0.48" x1="345.57697347013664" x2="96.0" y1="480.0" y2="230.42302652986342"/>
    <line fill="none" stroke="grey" stroke-linecap="round" stroke-width="0.48" x1="336.2736122213631" x2="96.0" y1="480.0" y2="239.72638777863688"/>
    <line fill="none" stroke="grey" stroke-linecap="round" stroke-width="0.48" x1="328.6722126007912" x2="96.0" y1="480.0" y2="247.3277873992088"/>
    <line fill="none" stroke="grey" stroke-linecap="round" stroke-width="0.48" x1="322.24532079625226" x2="96.0" y1="480.0" y2="253.75467920374768"/>
    <line fill="none" stroke="grey" stroke-linecap="round" stroke-width="0.48" x1="316.67809388639444" x2="96.0" y1="480.0" y2="259.3219061136056"/>
    <line fill="none" stroke="grey" stroke-linecap="round" stroke-width="0.48" x1="311.7674517314458" x2="96.0" y1="480.0" y2="264.2325482685542"/>
    <line fill="none" stroke="grey" stroke-linecap="round" stroke-width="0.48" x1="480.0" x2="115.37473263762092" y1="460.6252673623791" y2="96.0"/>
    <line fill="none" stroke="grey" stroke-linecap="round" stroke-width="0.48" x1="470.4758530538787" x2="96.0" y1="480.0" y2="105.52414694612128"/>
    <line fill="none" stroke="grey" stroke-linecap="round" stroke-width="0.48" x1="453.5710921845333" x2="96.0" y1="480.0" y2="122.42890781546669"/>
    <line fill="none" stroke="grey" stroke-linecap="round" stroke-width="0.48" x1="441.5769734701365" x2="96.0" y1="480.0" y2="134.42302652986348"/>
    <line fill="none" stroke="grey" stroke-linecap="round" stroke-width="0.48" x1="432.2736122213631" x2="96.0" y1="480.0" y2="143.72638777863688"/>
    <line fill="none" stroke="grey" stroke-linecap="round" stroke-width="0.48" x1="424.6722126007911" x2="96.0" y1="480.0" y2="151.3277873992089"/>
    <line fill="none" stroke="grey" stroke-linecap="round" stroke-width="0.48" x1="418.24532079625226" x2="96.0" y1="480.0" y2="157.75467920374774"/>
    <line fill="none" stroke="grey" stroke-linecap="round" stroke-width="0.48" x1="412.6780938863943" x2="96.0" y1="480.0" y2="163.32190611360568"/>
    <line fill="none" stroke="grey" stroke-linecap="round" stroke-width="0.48" x1="407.7674517314457" x2="96.0" y1="480.0" y2="168.2325482685543"/>
    <line fill="none" stroke="grey" stroke-linecap="round" stroke-width="0.48" x1="480.0" x2="211.37473263762092" y1="364.625267362379" y2="96.0"/>
    <line fill="none" stroke="grey" stroke-linecap="round" stroke-width="0.48" x1="480.0" x2="182.4758530538788" y1="393.5241469461213" y2="96.0"/>
    <line fill="none" stroke="grey" stroke-linecap="round" stroke-width="0.48" x1="480.0" x2="165.5710921845334" y1="410.4289078154667" y2="96.0"/>
    <line fill="none" stroke="grey" stroke-linecap="round" stroke-width="0.48" x1="480.0" x2="153.5769734701366" y1="422.4230265298635" y2="96.0"/>
    <line fill="none" stroke="grey" stroke-linecap="round" stroke-width="0.48" x1="480.0" x2="144.27361222136312" y1="431.7263877786369" y2="96.0"/>
    <line fill="none" stroke="grey" stroke-linecap="round" stroke-width="0.48" x1="480.0" x2="136.6722126007912" y1="439.3277873992089" y2="96.0"/>
    <line fill="none" stroke="grey" stroke-linecap="round" stroke-width="0.48" x1="480.0" x2="130.24532079625234" y1="445.75467920374774" y2="96.0"/>
    <line fill="none" stroke="grey" stroke-linecap="round" stroke-width="0.48" x1="480.0" x2="124.67809388639441" y1="451.3219061136057" y2="96.0"/>
    <line fill="none" stroke="grey" stroke-linecap="round" stroke-width="0.48" x1="480.0" x2="119.76745173144579" y1="456.2325482685542" y2="96.0"/>
    <line fill="none" stroke="grey" stroke-linecap="round" stroke-width="0.48" x1="480.0" x2="307.3747326376209" y1="268.625267362379" y2="96.0"/>
    <line fill="none" stroke="grey" stroke-linecap="round" stroke-width="0.48" x1="480.0" x2="278.47585305387884" y1="297.5241469461212" y2="96.0"/>
    <line fill="none" stroke="grey" stroke-linecap="round" stroke-width="0.48" x1="480.0" x2="261.5710921845334" y1="314.42890781546663" y2="96.0"/>
    <line fill="none" stroke="grey" stroke-linecap="round" stroke-width="0.48" x1="480.0" x2="249.5769734701366" y1="326.4230265298634" y2="96.0"/>
    <line fill="none" stroke="grey" stroke-linecap="round" stroke-width="0.48" x1="480.0" x2="240.27361222136312" y1="335.7263877786368" y2="96.0"/>
    <line fill="none" stroke="grey" stroke-linecap="round" stroke-width="0.48" x1="480.0" x2="232.6722126007912" y1="343.32778739920883" y2="96.0"/>
    <line fill="none" stroke="grey" stroke-linecap="round" stroke-width="0.48" x1="480.0" x2="226.24532079625234" y1="349.7546792037477" y2="96.0"/>
    <line fill="none" stroke="grey" stroke-linecap="round" stroke-width="0.48" x1="480.0" x2="220.6780938863944" y1="355.32190611360556" y2="96.0"/>
    <line fill="none" stroke="grey" stroke-linecap="round" stroke-width="0.48" x1="480.0" x2="215.7674517314458" y1="360.2325482685542" y2="96.0"/>
    <line fill="none" stroke="grey" stroke-linecap="round" stroke-width="0.48" x1="480.0" x2="403.3747326376209" y1="172.62526736237908" y2="96.0"/>
    <line fill="none" stroke="grey" stroke-linecap="round" stroke-width="0.48" x1="480.0" x2="374.47585305387884" y1="201.52414694612122" y2="96.0"/>
    <line fill="none" stroke="grey" stroke-linecap="round" stroke-width="0.48" x1="480.0" x2="357.5710921845334" y1="218.42890781546663" y2="96.0"/>
    <line fill="none" stroke="grey" stroke-linecap="round" stroke-width="0.48" x1="480.0" x2="345.57697347013664" y1="230.42302652986342" y2="96.0"/>
    <line fill="none" stroke="grey" stroke-linecap="round" stroke-width="0.48" x1="480.0" x2="336.2736122213631" y1="239.72638777863688" y2="96.0"/>
    <line fill="none" stroke="grey" stroke-linecap="round" stroke-width="0.48" x1="480.0" x2="328.6722126007912" y1="247.3277873992088" y2="96.0"/>
    <line fill="none" stroke="grey" stroke-linecap="round" stroke-width="0.48" x1="480.0" x2="322.2453207962524" y1="253.75467920374768" y2="96.0"/>
    <line fill="none" stroke="grey" stroke-linecap="round" stroke-width="0.48" x1="480.0" x2="316.67809388639444" y1="259.3219061136056" y2="96.0"/>
    <line fill="none" stroke="grey" stroke-linecap="round" stroke-width="0.48" x1="480.0" x2="311.7674517314458" y1="264.2325482685542" y2="96.0"/>
    <line fill="none" stroke="grey" stroke-linecap="round" stroke-width="0.48" x1="480.0" x2="470.4758530538787" y1="105.52414694612128" y2="96.0"/>
    <line fill="none" stroke="grey" stroke-linecap="round" stroke-width="0.48" x1="480.0" x2="453.5710921845333" y1="122.42890781546669" y2="96.0"/>
    <line fill="none" stroke="grey" stroke-linecap="round" stroke-width="0.48" x1="480.0" x2="441.5769734701365" y1="134.42302652986348" y2="96.0"/>
    <line fill="none" stroke="grey" stroke-linecap="round" stroke-width="0.48" x1="480.0" x2="432.2736122213631" y1="143.72638777863688" y2="96.0"/>
    <line fill="none" stroke="grey" stroke-linecap="round" stroke-width="0.48" x1="480.0" x2="424.6722126007911" y1="151.3277873992089" y2="96.0"/>
    <line fill="none" stroke="grey" stroke-linecap="round" stroke-width="0.48" x1="480.0" x2="418.24532079625226" y1="157.75467920374774" y2="96.0"/>
    <line fill="none" stroke="grey" stroke-linecap="round" stroke-width="0.48" x1="480.0" x2="412.6780938863943" y1="163.32190611360568" y2="96.0"/>
    <line fill="none" stroke="grey" stroke-linecap="round" stroke-width="0.48" x1="480.0" x2="407.7674517314457" y1="168.2325482685543" y2="96.0"/>
    <line fill="none" stroke="grey" stroke-linecap="round" stroke-width="0.96" x1="115.37473263762092" x2="96.0" y1="480.0" y2="460.6252673623791"/>
    <text fill="black" font-family="sans-serif" font-size="12" text-anchor="end" transform="rotate(45, 84.0, 454.6252673623791)" x="84.0" y="454.6252673623791">10 µF</text>
    <line fill="none" stroke="grey" stroke-linecap="round" stroke-width="0.96" x1="211.37473263762092" x2="96.0" y1="480.0" y2="364.625267362379"/>
    <text fill="black" font-family="sans-serif" font-size="12" text-anchor="end" transform="rotate(45, 84.0, 358.625267362379)" x="84.0" y="358.625267362379">1 µF</text>
    <line fill="none" stroke="grey" stroke-linecap="round" stroke-width="0.96" x1="307.3747326376209" x2="96.0" y1="480.0" y2="268.625267362379"/>
    <text fill="black" font-family="sans-serif" font-size="12" text-anchor="end" transform="rotate(45, 84.0, 262.625267362379)" x="84.0" y="262.625267362379">100 nF</text>
    <line fill="none" stroke="grey" stroke-linecap="round" stroke-width="0.96" x1="403.3747326376209" x2="96.0" y1="480.0" y2="172.62526736237908"/>
    <text fill="black" font-family="sans-serif" font-size="12" text-anchor="end" transform="rotate(45, 84.0, 166.62526736237908)" x="84.0" y="166.62526736237908">10 nF</text>
    <line fill="none" stroke="grey" stroke-linecap="round" stroke-width="0.96" x1="480.0" x2="115.37473263762092" y1="460.6252673623791" y2="96.0"/>
    <text fill="black" font-family="sans-serif" font-size="12" text-anchor="end" transform="rotate(45, 103.37473263762092, 90.0)" x="103.37473263762092" y="90.0">1 nF</text>
    <line fill="none" stroke="grey" stroke-linecap="round" stroke-width="0.96" x1="480.0" x2="211.37473263762092" y1="364.625267362379" y2="96.0"/>
    <text fill="black" font-family="sans-serif" font-size="12" text-anchor="end" transform="rotate(45, 199.37473263762092, 90.0)" x="199.37473263762092" y="90.0">100 pF</text>
    <line fill="none" stroke="grey" stroke-linecap="round" stroke-width="0.96" x1="480.0" x2="307.3747326376209" y1="268.625267362379" y2="96.0"/>
    <text fill="black" font-family="sans-serif" font-size="12" text-anchor="end" transform="rotate(45, 295.3747326376209, 90.0)" x="295.3747326376209" y="90.0">10 pF</text>
    <line fill="none" stroke="grey" stroke-linecap="round" stroke-width="0.96" x1="480.0" x2="403.3747326376209" y1="172.62526736237908" y2="96.0"/>
    <text fill="black" font-family="sans-serif" font-size="12" text-anchor="end" transform="rotate(45, 391.3747326376209, 90.0)" x="391.3747326376209" y="90.0">1 pF</text>
    <line fill="none" stroke="grey" stroke-linecap="round" stroke-width="0.48" x1="96.0" x2="115.37473263762092" y1="115.37473263762092" y2="96.0"/>
    <line fill="none" stroke="grey" stroke-linecap="round" stroke-width="0.48" x1="96.0" x2="211.37473263762092" y1="211.37473263762098" y2="96.0"/>
    <line fill="none" stroke="grey" stroke-linecap="round" stroke-width="0.48" x1="96.0" x2="182.47585305387872" y1="182.47585305387872" y2="96.0"/>
    <line fill="none" stroke="grey" stroke-linecap="round" stroke-width="0.48" x1="96.0" x2="165.5710921845333" y1="165.5710921845333" y2="96.0"/>
    <line fill="none" stroke="grey" stroke-linecap="round" stroke-width="0.48" x1="96.0" x2="153.57697347013652" y1="153.57697347013652" y2="96.0"/>
    <line fill="none" stroke="grey" stroke-linecap="round" stroke-width="0.48" x1="96.0" x2="144.27361222136312" y1="144.27361222136312" y2="96.0"/>
    <line fill="none" stroke="grey" stroke-linecap="round" stroke-width="0.48" x1="96.0" x2="136.6722126007912" y1="136.6722126007911" y2="96.0"/>
    <line fill="none" stroke="grey" stroke-linecap="round" stroke-width="0.48" x1="96.0" x2="130.24532079625226" y1="130.24532079625226" y2="96.0"/>
    <line fill="none" stroke="grey" stroke-linecap="round" stroke-width="0.48" x1="96.0" x2="124.67809388639441" y1="124.67809388639432" y2="96.0"/>
    <line fill="none" stroke="grey" stroke-linecap="round" stroke-width="0.48" x1="96.0" x2="119.76745173144579" y1="119.76745173144579" y2="96.0"/>
    <line fill="none" stroke="grey" stroke-linecap="round" stroke-width="0.48" x1="96.0" x2="307.3747326376209" y1="307.374732637621" y2="96.0"/>
    <line fill="none" stroke="grey" stroke-linecap="round" stroke-width="0.48" x1="96.0" x2="278.4758530538787" y1="278.4758530538788" y2="96.0"/>
    <line fill="none" stroke="grey" stroke-linecap="round" stroke-width="0.48" x1="96.0" x2="261.5710921845333" y1="261.57109218453337" y2="96.0"/>
    <line fill="none" stroke="grey" stroke-linecap="round" stroke-width="0.48" x1="96.0" x2="249.57697347013652" y1="249.57697347013658" y2="96.0"/>
    <line fill="none" stroke="grey" stroke-linecap="round" stroke-width="0.48" x1="96.0" x2="240.27361222136312" y1="240.27361222136312" y2="96.0"/>
    <line fill="none" stroke="grey" stroke-linecap="round" stroke-width="0.48" x1="96.0" x2="232.6722126007912" y1="232.67221260079117" y2="96.0"/>
    <line fill="none" stroke="grey" stroke-linecap="round" stroke-width="0.48" x1="96.0" x2="226.24532079625226" y1="226.24532079625232" y2="96.0"/>
    <line fill="none" stroke="grey" stroke-linecap="round" stroke-width="0.48" x1="96.0" x2="220.67809388639432" y1="220.67809388639438" y2="96.0"/>
    <line fill="none" stroke="grey" stroke-linecap="round" stroke-width="0.48" x1="96.0" x2="215.7674517314458" y1="215.7674517314458" y2="96.0"/>
    <line fill="none" stroke="grey" stroke-linecap="round" stroke-width="0.48" x1="96.0" x2="403.3747326376209" y1="403.3747326376209" y2="96.0"/>
    <line fill="none" stroke="grey" stroke-linecap="round" stroke-width="0.48" x1="96.0" x2="374.4758530538787" y1="374.4758530538788" y2="96.0"/>
    <line fill="none" stroke="grey" stroke-linecap="round" stroke-width="0.48" x1="96.0" x2="357.5710921845333" y1="357.57109218453337" y2="96.0"/>
    <line fill="none" stroke="grey" stroke-linecap="round" stroke-width="0.48" x1="96.0" x2="345.5769734701365" y1="345.5769734701366" y2="96.0"/>
    <line fill="none" stroke="grey" stroke-linecap="round" stroke-width="0.48" x1="96.0" x2="336.2736122213631" y1="336.2736122213632" y2="96.0"/>
    <line fill="none" stroke="grey" stroke-linecap="round" stroke-width="0.48" x1="96.0" x2="328.6722126007912" y1="328.67221260079117" y2="96.0"/>
    <line fill="none" stroke="grey" stroke-linecap="round" stroke-width="0.48" x1="96.0" x2="322.24532079625226" y1="322.2453207962523" y2="96.0"/>
    <line fill="none" stroke="grey" stroke-linecap="round" stroke-width="0.48" x1="96.0" x2="316.6780938863943" y1="316.6780938863944" y2="96.0"/>
    <line fill="none" stroke="grey" stroke-linecap="round" stroke-width="0.48" x1="96.0" x2="311.7674517314458" y1="311.7674517314458" y2="96.0"/>
    <line fill="none" stroke="grey" stroke-linecap="round" stroke-width="0.48" x1="115.37473263762092" x2="480.0" y1="480.0" y2="115.37473263762092"/>
    <line fill="none" stroke="grey" stroke-linecap="round" stroke-width="0.48" x1="96.0" x2="470.4758530538787" y1="470.4758530538787" y2="96.0"/>
    <line fill="none" stroke="grey" stroke-linecap="round" stroke-width="0.48" x1="96.0" x2="453.5710921845333" y1="453.5710921845333" y2="96.0"/>
    <line fill="none" stroke="grey" stroke-linecap="round" stroke-width="0.48" x1="96.0" x2="441.5769734701365" y1="441.5769734701365" y2="96.0"/>
    <line fill="none" stroke="grey" stroke-linecap="round" stroke-width="0.48" x1="96.0" x2="432.2736122213631" y1="432.2736122213631" y2="96.0"/>
    <line fill="none" stroke="grey" stroke-linecap="round" stroke-width="0.48" x1="96.0" x2="424.6722126007911" y1="424.6722126007911" y2="96.0"/>
    <line fill="none" stroke="grey" stroke-linecap="round" stroke-width="0.48" x1="96.0" x2="418.24532079625226" y1="418.24532079625226" y2="96.0"/>
    <line fill="none" stroke="grey" stroke-linecap="round" stroke-width="0.48" x1="96.0" x2="412.6780938863943" y1="412.67809388639444" y2="96.0"/>
    <line fill="none" stroke="grey" stroke-linecap="round" stroke-width="0.48" x1="96.0" x2="407.7674517314457" y1="407.7674517314458" y2="96.0"/>
    <line fill="none" stroke="grey" stroke-linecap="round" stroke-width="0.48" x1="211.37473263762092" x2="480.0" y1="480.0" y2="211.37473263762098"/>
    <line fill="none" stroke="grey" stroke-linecap="round" stroke-width="0.48" x1="182.4758530538788" x2="480.0" y1="480.0" y2="182.47585305387872"/>
    <line fill="none" stroke="grey" stroke-linecap="round" stroke-width="0.48" x1="165.5710921845334" x2="480.0" y1="480.0" y2="165.5710921845333"/>
    <line fill="none" stroke="grey" stroke-linecap="round" stroke-width="0.48" x1="153.5769734701366" x2="480.0" y1="480.0" y2="153.57697347013652"/>
    <line fill="none" stroke="grey" stroke-linecap="round" stroke-width="0.48" x1="144.27361222136312" x2="480.0" y1="480.0" y2="144.27361222136312"/>
    <line fill="none" stroke="grey" stroke-linecap="round" stroke-width="0.48" x1="136.6722126007912" x2="480.0" y1="480.0" y2="136.6722126007911"/>
    <line fill="none" stroke="grey" stroke-linecap="round" stroke-width="0.48" x1="130.24532079625226" x2="480.0" y1="480.0" y2="130.24532079625226"/>
    <line fill="none" stroke="grey" stroke-linecap="round" stroke-width="0.48" x1="124.67809388639441" x2="480.0" y1="480.0" y2="124.67809388639432"/>
    <line fill="none" stroke="grey" stroke-linecap="round" stroke-width="0.48" x1="119.76745173144579" x2="480.0" y1="480.0" y2="119.76745173144579"/>
    <line fill="none" stroke="grey" stroke-linecap="round" stroke-width="0.48" x1="307.3747326376209" x2="480.0" y1="480.0" y2="307.3747326376209"/>
    <line fill="none" stroke="grey" stroke-linecap="round" stroke-width="0.48" x1="278.4758530538787" x2="480.0" y1="480.0" y2="278.4758530538788"/>
    <line fill="none" stroke="grey" stroke-linecap="round" stroke-width="0.48" x1="261.5710921845334" x2="480.0" y1="480.0" y2="261.57109218453337"/>
    <line fill="none" stroke="grey" stroke-linecap="round" stroke-width="0.48" x1="249.5769734701366" x2="480.0" y1="480.0" y2="249.57697347013658"/>
    <line fill="none" stroke="grey" stroke-linecap="round" stroke-width="0.48" x1="240.27361222136312" x2="480.0" y1="480.0" y2="240.27361222136312"/>
    <line fill="none" stroke="grey" stroke-linecap="round" stroke-width="0.48" x1="232.6722126007912" x2="480.0" y1="480.0" y2="232.67221260079117"/>
    <line fill="none" stroke="grey" stroke-linecap="round" stroke-width="0.48" x1="226.24532079625234" x2="480.0" y1="480.0" y2="226.24532079625232"/>
    <line fill="none" stroke="grey" stroke-linecap="round" stroke-width="0.48" x1="220.6780938863944" x2="480.0" y1="480.0" y2="220.67809388639438"/>
    <line fill="none" stroke="grey" stroke-linecap="round" stroke-width="0.48" x1="215.7674517314458" x2="480.0" y1="480.0" y2="215.7674517314458"/>
    <line fill="none" stroke="grey" stroke-linecap="round" stroke-width="0.48" x1="403.3747326376209" x2="480.0" y1="480.0" y2="403.3747326376209"/>
    <line fill="none" stroke="grey" stroke-linecap="round" stroke-width="0.48" x1="374.4758530538787" x2="480.0" y1="480.0" y2="374.4758530538788"/>
    <line fill="none" stroke="grey" stroke-linecap="round" stroke-width="0.48" x1="357.5710921845333" x2="480.0" y1="480.0" y2="357.57109218453337"/>
    <line fill="none" stroke="grey" stroke-linecap="round" stroke-width="0.48" x1="345.57697347013664" x2="480.0" y1="480.0" y2="345.5769734701366"/>
    <line fill="none" stroke="grey" stroke-linecap="round" stroke-width="0.48" x1="336.2736122213631" x2="480.0" y1="480.0" y2="336.2736122213631"/>
    <line fill="none" stroke="grey" stroke-linecap="round" stroke-width="0.48" x1="328.6722126007912" x2="480.0" y1="480.0" y2="328.67221260079117"/>
    <line fill="none" stroke="grey" stroke-linecap="round" stroke-width="0.48" x1="322.24532079625226" x2="480.0" y1="480.0" y2="322.2453207962523"/>
    <line fill="none" stroke="grey" stroke-linecap="round" stroke-width="0.48" x1="316.67809388639444" x2="480.0" y1="480.0" y2="316.6780938863944"/>
    <line fill="none" stroke="grey" stroke-linecap="round" stroke-width="0.48" x1="311.7674517314458" x2="480.0" y1="480.0" y2="311.7674517314458"/>
    <line fill="none" stroke="grey" stroke-linecap="round" stroke-width="0.48" x1="470.4758530538787" x2="480.0" y1="480.0" y2="470.4758530538787"/>
    <line fill="none" stroke="grey" stroke-linecap="round" stroke-width="0.48" x1="453.5710921845333" x2="480.0" y1="480.0" y2="453.5710921845333"/>
    <line fill="none" stroke="grey" stroke-linecap="round" stroke-width="0.48" x1="441.5769734701365" x2="480.0" y1="480.0" y2="441.5769734701365"/>
    <line fill="none" stroke="grey" stroke-linecap="round" stroke-width="0.48" x1="432.2736122213631" x2="480.0" y1="480.0" y2="432.2736122213631"/>
    <line fill="none" stroke="grey" stroke-linecap="round" stroke-width="0.48" x1="424.6722126007911" x2="480.0" y1="480.0" y2="424.6722126007911"/>
    <line fill="none" stroke="grey" stroke-linecap="round" stroke-width="0.48" x1="418.24532079625226" x2="480.0" y1="480.0" y2="418.24532079625226"/>
    <line fill="none" stroke="grey" stroke-linecap="round" stroke-width="0.48" x1="412.6780938863943" x2="480.0" y1="480.0" y2="412.6780938863943"/>
    <line fill="none" stroke="grey" stroke-linecap="round" stroke-width="0.48" x1="407.7674517314457" x2="480.0" y1="480.0" y2="407.7674517314458"/>
    <line fill="none" stroke="grey" stroke-linecap="round" stroke-width="0.96" x1="96.0" x2="115.37473263762092" y1="115.37473263762092" y2="96.0"/>
    <text fill="black" font-family="sans-serif" font-size="12" text-anchor="start" transform="rotate(-45, 127.37473263762092, 90.0)" x="127.37473263762092" y="90.0">1 mH</text>
    <line fill="none" stroke="grey" stroke-linecap="round" stroke-width="0.96" x1="96.0" x2="211.37473263762092" y1="211.37473263762098" y2="96.0"/>
    <text fill="black" font-family="sans-serif" font-size="12" text-anchor="start" transform="rotate(-45, 223.37473263762092, 90.0)" x="223.37473263762092" y="90.0">100 µH</text>
    <line fill="none" stroke="grey" stroke-linecap="round" stroke-width="0.96" x1="96.0" x2="307.3747326376209" y1="307.374732637621" y2="96.0"/>
    <text fill="black" font-family="sans-serif" font-size="12" text-anchor="start" transform="rotate(-45, 319.3747326376209, 90.0)" x="319.3747326376209" y="90.0">10 µH</text>
    <line fill="none" stroke="grey" stroke-linecap="round" stroke-width="0.96" x1="96.0" x2="403.3747326376209" y1="403.3747326376209" y2="96.0"/>
    <text fill="black" font-family="sans-serif" font-size="12" text-anchor="start" transform="rotate(-45, 415.3747326376209, 90.0)" x="415.3747326376209" y="90.0">1 µH</text>
    <line fill="none" stroke="grey" stroke-linecap="round" stroke-width="0.96" x1="115.37473263762092" x2="480.0" y1="480.0" y2="115.37473263762092"/>
    <text fill="black" font-family="sans-serif" font-size="12" text-anchor="start" transform="rotate(-45, 492.0, 109.37473263762092)" x="492.0" y="109.37473263762092">100 nH</text>
    <line fill="none" stroke="grey" stroke-linecap="round" stroke-width="0.96" x1="211.37473263762092" x2="480.0" y1="480.0" y2="211.37473263762098"/>
    <text fill="black" font-family="sans-serif" font-size="12" text-anchor="start" transform="rotate(-45, 492.0, 205.37473263762098)" x="492.0" y="205.37473263762098">10 nH</text>
    <line fill="none" stroke="grey" stroke-linecap="round" stroke-width="0.96" x1="307.3747326376209" x2="480.0" y1="480.0" y2="307.3747326376209"/>
    <text fill="black" font-family="sans-serif" font-size="12" text-anchor="start" transform="rotate(-45, 492.0, 301.3747326376209)" x="492.0" y="301.3747326376209">1 nH</text>
    <line fill="none" stroke="grey" stroke-linecap="round" stroke-width="0.96" x1="403.3747326376209" x2="480.0" y1="480.0" y2="403.3747326376209"/>
    <text fill="black" font-family="sans-serif" font-size="12" text-anchor="start" transform="rotate(-45, 492.0, 397.3747326376209)" x="492.0" y="397.3747326376209">100 pH</text>
    <line fill="none" stroke="black" stroke-linecap="round" stroke-width="1.44" x1="96.0" x2="480.0" y1="480.0" y2="480.0"/>
    <line fill="none" stroke="black" stroke-linecap="round" stroke-width="1.44" x1="96.0" x2="480.0" y1="96.0" y2="96.0"/>
    <line fill="none" stroke="black" stroke-linecap="round" stroke-width="1.44" x1="96.0" x2="96.0" y1="480.0" y2="96.0"/>
    <line fill="none" stroke="black" stroke-linecap="round" stroke-width="1.44" x1="480.0" x2="480.0" y1="480.0" y2="96.0"/>
  </g>
  <g id="traces">
    <polyline clip-path="url(#plotting-region)" fill="none" points="141.8036404530876,414.09305219087776 142.43588023885164,413.60065668668403 143.05881035992851,412.7505106743902 143.6724371602369,412.00102115816287 144.2771634412889,411.3475320638328 144.87324371590637,410.829173582575 145.46104903632434,410.5552871795047 146.040556625407,409.6263963713313 146.61211956861672,409.0610086281251 147.1759527544371,408.80404227810584 147.73238302180337,408.6677247927605 148.28136582517195,407.4950566108242 148.82321374643757,407.5858256584378 149.35810986641997,406.85163951618944 149.8863447910887,406.3373511068013 150.4078576456024,405.4955778650515 150.9229276016949,405.15632050407316 151.43182222961573,404.71960696076655 151.93447113961824,404.0278192652288 152.4311321506146,403.76385888034787 152.92194624865982,403.1280236987516 153.40715471028963,402.7172622826994 153.8866772781519,402.18635668253864 154.3607472826975,401.82173398195573 154.829487331285,401.3015600071594 155.37228141527657,400.4920519061955 156.00459676744072,400.1790219490131 156.62736796979945,399.6824393656791 157.24106934612715,399.0923977400118 157.84577346900429,398.4199011945572 158.44192545818393,397.8304049281763 159.02967318300244,397.1986585224465 159.60915964252266,396.5442381199178 160.18079146624984,396.2570323719913 160.74460344876172,395.3943532475117 161.30097958589374,395.09449684939807 161.85002865089257,394.3368724347507 162.39185630739323,393.79246126495366 162.92681641322076,393.3596525012747 163.45491655022363,392.70564627745466 163.97649267985312,392.2500913400264 164.49162435717403,391.66569680596285 165.00038922112228,391.07643624926766 165.5030991883926,390.77413218809244 165.9997420263471,390.140445849118 166.49061525057374,389.65554442408603 166.97577625846435,389.2106455001287 167.45528135112372,388.82231120790027 167.92940854182845,388.1908425319937 168.39813106200702,387.8035513637285 168.94094508370597,387.29841127722796 169.5732059624231,386.5632079382885 170.19602169805242,385.8328431157517 170.80967033797194,385.50773086699166 171.4144178296504,384.8637521876542 172.01058605360294,384.2991282102195 172.59828316045045,383.6159808845314 173.17781106869023,382.99177773228075 173.74939377773484,382.55441664427485 174.31324619836596,381.85126981220276 174.8696375156403,381.3924357161459 175.41863930844465,380.67914839293485 175.960505728744,380.18138079445487 176.495419876113,379.75965858006396 177.0236176033379,379.0677364609993 177.5451482753083,378.60849801954953 178.06023561132162,378.2308306774277 178.56903688083753,377.5757500930764 179.071703664702,377.1136473802568 179.56843830229232,376.5083739006974 180.05926878494165,376.1134197118823 180.54438804019009,375.5607319111733 181.02392745066848,375.1648173532576 181.49801391696855,374.68595690259224 181.96682309489566,374.18610576064015 182.5095424359721,373.67810901093685 183.14182001450612,373.0153584926714 183.76465195471698,372.3493916452894 184.37831632569038,371.74329506562987 184.98307909535214,371.06775059760037 185.57919482260652,370.50644117857706 186.1669073006861,369.948510029179 186.7464501557846,369.4264667663765 187.31804740464943,368.7691532348674 187.88191397446602,368.3293374375981 188.43825618805238,367.6415742679431 188.9872722171059,367.0769801688064 189.52915250599247,366.59377590562804 190.06408016834789,366.035457917566 190.5922313585564,365.50018564044495 191.11377561999274,364.9622610308539 191.6288762117512,364.44183959352483 192.13769041543532,363.85656663918894 192.6403698234526,363.3538633625283 193.13706061013517,362.960419014718 193.62790378689957,362.43334405690143 194.11303544256137,361.94184715300787 194.59258696982755,361.49528256236533 195.0666852789108,360.9497455183973 195.5354529991343,360.5104386149742 196.07817645297862,359.8925848997229 196.71044704217235,359.288158326284 197.33330888632045,358.7195086649979 197.9469661373938,358.0158883297553 198.55172199221735,357.4231726204921 199.14783100096204,356.7296588900256 199.7355369486163,356.22582749861976 200.31507345358457,355.6779327502695 200.88669821408104,355.02870019907175 201.450558320107,354.526870602417 202.00689424126188,353.86381284229276 202.55590414251765,353.2836396036489 203.09777846186273,352.8047897182594 203.63270030688028,352.2498783624561 204.16084582620675,351.70342913871787 204.6824153149844,351.1915175827222 205.1975101349967,350.5951299315899 205.70631870695507,350.151736075046 206.20899261823274,349.6185652532723 206.70567803836607,349.1111406893864 207.19651597420048,348.5366772171325 207.68167113251977,348.10885649898245 208.16121732988555,347.6368526757551 208.63531042959772,347.13279033739485 209.10407305693664,346.6076670333956 209.6468274086204,346.0693071919617 210.27910491637635,345.45047590570226 210.9019367879081,344.8606503874158 211.51560109220947,344.2126236755373 212.12036379711944,343.5872480049258 212.71647946146035,342.91743666619647 213.30419187838785,342.3309994854803 213.8837100079444,341.791046334517 214.45530753482691,341.1988126337591 215.0191743751918,340.61227612395305 215.57551685215404,340.0348160052489 216.1245331376924,339.48376507666194 216.66641367643982,338.90959531211365 217.2013415822855,338.36595723597475 217.72949300985414,337.80356107231466 218.25103750274914,337.2644960622659 218.76613832028215,336.7709600263125 219.27495274426366,336.21919769969685 219.77763236729803,335.7123808449694 220.27432336390487,335.2170153086031 220.76516674567972,334.6720537931007 221.2502986016086,334.1983276721174 221.72985032456123,333.68066687306316 222.20394882490567,333.20087696807894 222.67271673211354,332.70665011307267 223.21546211876276,332.15036298662875 223.8477389738174,331.54241620379133 224.47057021200396,330.8634950071558 225.08423390146777,330.22814368758065 225.6889960092484,329.62734624546914 226.285111093414,328.99062070527515 226.87282294640826,328.3933656823858 227.45236519367904,327.774806852923 228.023961851269,327.18140395897296 228.58782784569647,326.59643468137585 229.14416949914772,326.0361856466207 229.69318498272142,325.4731938156973 230.23506474021576,324.8930836218966 230.7699754333776,324.33472982284854 231.29812632586834,323.8011635678607 231.8196702969891,323.26216898340454 232.33477060556143,322.73314499513987 232.8435845329295,322.1792179038212 233.34626367125378,321.66892510895764 233.8429541946309,321.16463630828446 234.3337971142534,320.6552092756427 234.81892851872286,320.15691179548844 235.29847980054203,319.6642837046744 235.77257786972885,319.17706137828253 236.2413453554202,318.6804164149173 236.78408728076258,318.1217525782595 237.4163745825589,317.4566830941865 238.03920213855955,316.80408067986247 238.65286225343863,316.18141357322344 239.25762088958714,315.5450754318667 239.85374583127512,314.91366934125415 240.44145422043954,314.2993412386194 241.02099309951197,313.68916845166336 241.5925864806283,313.1039682240295 242.1564618062684,312.52124306263704 242.7128001898504,311.9290129336349 243.26181248910717,311.3565624700737 243.8036891445227,310.8011675038604 244.33862514728412,310.2348804743462 244.8667727362472,309.6693981570851 245.38831348597537,309.138779274691 245.9034106522645,308.60221391062294 246.41222151358016,308.0567911436923 246.9149088286252,307.52427715327906 247.4115962980467,306.99687385427006 247.90243623520016,306.49236329187465 248.38756472620614,305.9891501824819 248.86712381954374,305.4865039607588 249.34121898577013,304.97485166300027 249.80998363341416,304.4712471774751 250.35272556313097,303.9219498324855 250.98500578963973,303.2619781992797 251.6078402992981,302.6006573705997 252.22149733022582,301.9690071221294 252.82626266403167,301.32599343308596 253.42238088262738,300.6918258921921 254.010086360867,300.08458704881383 254.58963170076137,299.46349482813156 255.1612313667542,298.85360955429996 255.7250912470086,298.25371839720725 256.2814358702761,297.66538953771607 256.8304454407813,297.0885284627286 257.37232812939976,296.51449507118946 257.90725813030144,295.9323821980918 258.43540312751566,295.39806975608417 258.95694971727164,294.84560685583506 259.4720525801717,294.28627957589856 259.9808608355514,293.74800814282094 260.48354250434244,293.21167387090134 260.98023549825183,292.6992950636726 261.47107295289345,292.16412287911237 261.9562068053757,291.64761144983004 262.4357527817144,291.14617186164367 262.9098532758643,290.6374329537895 263.3786231322938,290.13351510535267 263.9213647425887,289.5474866064653 264.55364225270205,288.8816230316229 265.1764741265214,288.2109723279806 265.79013843304335,287.5569929275814 266.39490114011,286.9200638538781 266.9910168065464,286.2749268964468 267.5787224213094,285.64618926457933 268.158265312852,285.0190407888189 268.72986259716845,284.3984902283169 269.2937292014842,283.7947636252163 269.85007144865517,283.20048350696777 270.3990875104146,282.6145819334842 270.94096783116237,282.03169575269015 271.47588932756435,281.4474475892724 272.0040406260474,280.8845081483964 272.52558499306645,280.3215000834489 273.04068568781474,279.76465460283066 273.54949999199016,279.2167549932832 274.05217949809014,278.6765807722086 274.5488703805322,278.1272805392256 275.0397079615183,277.59842338930684 275.52483977435145,277.07988911895256 276.004391455194,276.549080829319 276.4784899143807,276.0426986679432 276.94725778135114,275.5297606250184 277.490005388,274.9514213936304 278.1222773767924,274.26517529321956 278.7451090985064,273.5722627420192 279.3587732573679,272.91221086253404 279.963535821027,272.24836546759207 280.55965134812743,271.5972289631728 281.1473636316565,270.9650860448046 281.72690145138733,270.3252414806118 282.2984985822121,269.6939132718512 282.86236503716015,269.0802020049582 283.41870713892325,268.46587309863537 283.96772305907905,267.869906399245 284.5096032418804,267.2718462167138 285.044526325354,266.69020132462276 285.57267747112223,266.10616820891767 286.0942216892231,265.530799636414 286.6093222387104,264.9617970289768 287.1181364011488,264.40218062593345 287.6208157689091,263.8500159839315 288.11750235879487,263.3014708216118 288.60834554583494,262.7619662129391 289.09347721153455,262.2254080530289 289.57302874860903,261.692688895847 290.0471270672787,261.1669127799332 290.5158947968743,260.6439993514406 291.0586391069676,260.04424208166324 291.69091635885843,259.34680835483437 292.313747982113,258.6519631945714 292.92740834090284,257.9746030159207 293.53217086507976,257.29962368060103 294.12828635381914,256.6365432863148 294.7159986000609,255.9830799142887 295.2955412297224,255.33554234927388 295.8671348070079,254.6988265258517 296.43100120979454,254.06727065782198 296.9873432607792,253.44368838116415 297.53635913148514,252.8321129673892 298.0782392661137,252.22611559112124 298.6131635459181,251.6301502538193 299.1413146302733,251.03648716685117 299.66285878848817,250.45310670559908 300.17795927956,249.8745211968671 300.68677030959975,249.2964943823809 301.189449658585,248.73866468927326 301.6861403876337,248.17534982793458 302.1769835081134,247.62496230165345 302.66211510879276,247.074635923571 303.14166368278893,246.53708833547884 303.61576197214737,245.9993143197985 304.084529673087,245.47091313621374 304.62727521748593,244.85715180259652 305.25955190674324,244.14191869056208 305.8823829840493,243.43434138200413 306.49604651733387,242.74033984961378 307.1008084734334,242.05493485137202 307.6969234102246,241.37734230554835 308.28463511997006,240.7090506875841 308.86417470027703,240.05043377209566 309.43577125678416,239.39808482384277 309.99963715284446,238.75859253466575 310.55597871053646,238.12186941603625 311.1049941008563,237.49533370999052 311.6468737675052,236.87505633384438 312.18180082348806,236.26358765990994 312.7099514225898,235.65863636622333 313.2314951076162,235.06208169034963 313.7465951371198,234.47402007169885 314.2554087921893,233.89007039086925 314.75808766474177,233.3116965670635 315.25477792864206,232.74206467853259 315.74561845177993,232.179806994684 316.23074963350166,231.62507350752975 316.71030069766783,231.07117593182903 317.18439855412373,230.52087083668175 317.65316583184097,229.98498237466916 318.19591101521814,229.35717847701153 318.8281875583907,228.62865543887506 319.45101849394433,227.9106589570658 320.0646818896188,227.2021820558648 320.6694437120716,226.50188272550633 321.2655585190106,225.8117106731153 321.8532701025391,225.13231605187454 322.4328120877838,224.45982920252735 323.00440849048334,223.7952146641366 323.5682742368684,223.14056792367526 324.124615648853,222.49816599677578 324.6736308972779,221.85731184834174 325.2155104256964,221.2263694156373 325.7504373469733,220.6045110692101 326.27858781476044,219.9897435500178 326.80013137173694,219.38065804523865 327.31523127633545,218.78347010530248 327.82404480952994,218.18712619020388 328.32672356312867,217.6025077566915 328.8234137108925,217.01919562129723 329.31425626369395,216.44339008613858 329.7993873098296,215.87854114545988 330.27893824151096,215.3152514427256 330.75303447323614,214.75964690154694 331.2218016410777,214.21193862985274 331.76454755571217,213.57309121651292 332.3968248428272,212.83166668135658 333.0196550841388,212.09853683185904 333.6333178058585,211.3758024937831 334.23808034910354,210.66379521490256 334.83419450055806,209.96251932642457 335.4219067837861,209.26921792874606 336.00144813103304,208.5861301539123 336.57304521353717,207.90976503548353 337.13691033850387,207.24237222133974 337.6932511455445,206.5828166464108 338.2422670542445,205.93048592146945 338.7841459926276,205.2878202279049 339.31907355644927,204.6537821953963 339.84722344839486,204.02419313957364 340.3687676311115,203.40286049244816 340.8838669733969,202.78983740492714 341.3926799579199,202.1813514399848 341.8953593205765,201.57896294787884 342.39204893194903,200.98775127725096 342.88289207870133,200.39756056792984 343.3680226001903,199.81827559385803 343.8475741114447,199.24164403125775 344.3216713250083,198.6691762750466 344.7904390420056,198.1065136746113 345.33318417015613,197.453500408825 345.96977634028167,196.68584633795209 346.596794493861,195.9234762203639 347.2145223457388,195.1718887082687 347.82323118333295,194.43121511561782 348.42318058200505,193.7020615628524 349.01461906968734,192.98099216435213 349.59778474502207,192.26846129295632 350.1729058528645,191.5612755052049 350.7402013206279,190.86482021063884 351.299881258627,190.17481189267357 351.85214742727965,189.49373065886456 352.3971936737686,188.81921457478768 352.9352063405257,188.15252731908112 353.46636464769506,187.49318633336418 353.99084105153725,186.84124506512052 354.5088015805694,186.1935567388524 355.02040615108035,185.55482798649388 355.52580886352035,184.91854519932588 356.0251582811409,184.29160888407347 356.5185976921441,183.66781978737777 357.0062653565002,183.05243565037856 357.48829473849537,182.4412307142974 357.9648147259904,181.8347903017372 358.43594983728894,181.2332072254327 358.90182041644886,180.63646337080223 359.44456549589506,179.94172574937016 360.07684211931985,179.12417182398565 360.6996731327456,178.32102754234586 361.3133366040166,177.52225554567235 361.9180977918202,176.73048457153652 362.5142126801458,175.9476658874851 363.1019243427825,175.17451129007503 363.6814664049514,174.40639567550824 364.25306288248026,173.643792525749 364.8169280411746,172.88667347531594 365.37326953280296,172.13839349584657 365.92228485878763,171.3908409960086 366.464164462763,170.65202066402094 366.9990914576703,169.91915620786625 367.5272413782967,169.19093839927427 368.0487850129596,168.46518019885042 368.5638849933367,167.7428627926115 369.07269860047154,167.02647654166782 369.5753774262381,166.3170062008649 370.0720670621721,165.6101359939249 370.5629096905981,164.90841302298023 371.0480408106084,164.20713729211525 371.5275918144749,163.51056744026175 372.0016896119945,162.81524932571068 372.47045628235645,162.12364851289863 373.01320218088165,161.31891531107024 373.64547855741273,160.36982376650926 374.2683093312666,159.42815827192806 374.8819725699665,158.49008670488826 375.48673423996587,157.55465836894757 376.0828488987799,156.62270567977123 376.6705603383303,155.6966677143472 377.2501026737647,154.77224137495085 377.8216989335991,153.84981161648534 378.3855645409575,152.93264509164618 378.94190581760114,152.01427084343635 379.49092093422587,151.0940973191531 380.0328003342483,150.18110297166214 380.56772758310046,149.26581725023937 381.0958779232168,148.35177323979457 381.6174213556967,147.43937771168814 382.13252113885585,146.52498981923168 382.64133455355716,145.61315778775702 383.1440131915028,144.69670349300617 383.64070364688405,143.78621764618543 384.13154608449287,142.87274585354788 384.6166770181011,141.963644443848 385.09622783982894,141.04781947434526 385.57032545932884,140.12970594983895 386.0390925053887,139.21757842117847 386.58183809798993,138.1439706061353 387.21411445121606,136.8733127814305 387.83694558272214,135.60393478976567 388.45060879391303,134.33319731136174 389.0553704371957,133.06151523941168 389.65148543412243,131.78798505183278 390.2391968433454,130.51147058856742 390.81873865909677,129.2393548896497 391.39033524611756,127.96280876477388 391.95420082736393,126.6871019474204 392.5105420785878,125.41663815292213 393.0595571704578,124.14185907302999 393.6014368775268,122.88287272419367 394.136363645959,121.62016046177231 394.6645139647494,120.3784869704927 395.1860576952453,119.14572337378657 395.70115745420503,117.93180963685283 396.2099708452938,116.73226107144689 396.712649767542,115.55998271208983 397.20933977625174,114.41514071876554 397.7001821932538,113.29823465559225 398.1853131067323,112.2156380674536 398.66486420208,111.17640182603348 399.13896179903907,110.17258926197862 399.60772882306213,109.23065609783606 400.1504743192074,108.19351012033604 400.78275075303054,107.07945689231619 401.4055815824774,106.10836965692381 402.01924514576297,105.27865132052274 402.6240068642793,104.61741127229604 403.22012157023283,104.11700379620032 403.80783305560317,103.79248981369933 404.3873749453995,103.64355964720211 404.9589712552501,103.66739539622989 405.5228369112808,103.85185355003557 406.07917848081354,104.18932832920112 406.6281936403689,104.66258563315634 407.1700730822132,105.26709183844818 407.7049999191232,105.98266617899036 408.2331503046675,106.79011115038753 408.75469378144595,107.67463587516927 409.26979360781576,108.6276776639778 409.7786070646794,109.63283054568743 410.2812859657459,110.68237034687937 410.77797603814423,111.764320234462 411.26881851734464,112.85815544955112 411.75394949158186,113.96709242477215 412.2335003530095,115.08984855596653 412.7075980113115,116.2119683262024 413.17636509530564,117.33360338589073 413.71911067788346,118.63420961197566 414.35138702663863,120.15397514443497 414.97421797187894,121.64949240894575 415.5878811815163,123.12297012804126 416.1926430159165,124.55460456244384 416.78875783446347,125.96346843613281 417.3764692420415,127.33167769741854 417.95601124084243,128.6698864356573 418.5276074745941,129.9721964469306 419.09147323625876,131.24271847066268 419.64781466311786,132.47995611837388 420.19682975104115,133.68581542948897 420.7387092958303,134.85773830319658 421.2736360625354,136.0024244975311 421.8017865480208,137.11600796686707 422.3233301222556,138.1983785358152 422.83842987944485,139.2576852869973 423.3472434310575,140.28665105205323 423.84992204232606,141.28767465670842 424.3466122095394,142.26813807551204 424.83745478133517,143.2241973978131 425.32258569128214,144.1598331538519 425.8021366428635,145.07082475101333 426.2762342380366,145.96463767327825 426.7450014098664,146.8339905850779 427.2877467897414,147.83569809555536 427.9200233277652,148.98527400172867 428.5428542583225,150.10067423259477 429.1565175079985,151.1852892012135 429.7612793277733,152.24332463325698 430.35739399496975,153.27136287130915 430.94510557788885,154.27228636439654 431.5246474291866,155.25221184724884 432.0962438331254,156.2065178577341 432.6601094509449,157.13878816249087 433.2164508658239,158.04900099599496 433.76546599069104,158.93839335300575 434.30734552348713,159.80713097340234 434.84227232587585,160.66000698878253 435.37042279937197,161.49660651071468 435.89196624182335,162.31562089604384 436.40706615332664,163.12059205677627 436.9158796932583,163.9069114033994 437.4185583376585,164.67964614638802 437.91524849321337,165.4406592098234 438.4060909405594,166.186350004598 438.8912219954356,166.91941531275728 439.3707728251796,167.64154606206034 439.8448705617434,168.34821402817175 440.3136376142416,169.04360853905553 440.85638309026854,169.84461007230783 441.4886595682727,170.77407792222394 442.11149044059067,171.35667226319043 442.7251537748773,172.2365143283045 443.32991553771035,173.09900749522757 443.92603028672227,173.94192121503193 444.5137418139455,174.76586736641488 445.0932836481302,175.5790192657877 445.6648799988813,176.37512351134149 446.2287456947136,177.15710222978024 446.7850870574857,177.92508922230877 447.3341022579856,178.682924052734 447.8759817397169,179.4233165248189 448.41090861549674,180.15411775171646 448.9390590389325,180.8715313460813 449.46060255266025,181.57749565118755 449.97570241507213,182.27228923345123 450.4845159071034,182.95747687989393 450.98719462052554,183.62990377242812 451.48388464644177,184.2927770159312 451.9747271619034,184.94589602045932 452.45985817156316,185.5933523316753 452.939409067603,186.22878657669685 453.41350675973445,186.85322033509425 453.8822738768017,187.47059329353593 454.42501931257874,188.18019997789247 455.05729579687033,189.0052689018264 455.6801266752892,189.8121085938069 456.29379001549836,190.60234012852777 456.8985517115236,191.3791193218511 457.4946664671545,192.13561545017527 458.082378000811,192.87707006576045 458.66191993756075,193.6079203070384 459.23351629308604,194.3273969479859 459.7973819258781,195.04043570328167 460.35372329407016,195.7399895056416 460.9027384998481,196.43261352335736 461.4446179867211,197.1126941473251 461.9795448675118,197.77951757306434 462.50769523240604,198.4436886709862 463.0292387516854,199.09589285591545 463.5443386195125,199.73621314613595 464.0531521168276,200.37301456424905 464.55583083540694,200.99634760103817 465.0525208893106,201.60666238121829 465.5433634094207,202.21011314984483 466.0284944236215,202.8025865926544 466.50804532409853,203.38525539050045 466.98214302056675,203.95638823012172 467.45091008553925,204.52042169717416 467.9936555419719,205.16928098157462 468.62593202362933,205.92606790772265 469.24876289949214,206.67215013093653 469.8624262372199,207.4114846743345 470.46718795099207,208.13901749825357 471.06330270399525,208.8506506821652 471.6510142350977,209.5482122283267 472.23055616936404,210.23157549584886 472.80215252247325,210.89547708868582 473.3660181717172,211.54480900788644 473.9223595373713,212.1787833379135 474.47137474067773,212.80347996206422 475.013254225143,213.4142921634072 475.54818110358735,214.01224500863555 476.0763314838138,214.6049379721303 476.59787500064385,215.18865542523062 477.11297486608163,215.76982833558245 477.62178836106546,216.34485332134327 478.12446703375866,216.90927997979085 478.6211571456274,217.4614814558994 479.11199966337415,218.00041558749598 479.59713067526616,218.53118954728956 480.07668157348706,219.05031059467348 480.55077922660513,219.555989491552 481.01954634621654,220.05270896346724 481.5622918054268,220.6297429984718 482.19456826716544,221.31001018656002 482.8173991237,221.97029526102654 483.4310624426645,222.6117530071398 484.03582422846233,223.23676951551641 484.63193896247867,223.852665738913 485.219650475126,224.45315036983473 485.7991923914466,225.02809325933364 486.3707887270988,225.583403413383 486.9346544435417,226.12166334385788 487.49099579154233,226.65139040694538 488.0400109776571,227.17442141697956 488.58189044537477,227.6915740498243 489.11681730749854,228.2082849568963 489.6449677176217,228.72014337043274 490.1665112510385,229.21672899884652 490.6816111003864,229.69623627431108 491.1904245796709,230.15693615892607 491.6931032806515,230.59737384224866 492.1897933770436,231.02592094600786 492.6806359104346,231.44660682252953 493.16576690720586,231.8659992886664 493.64531779065203,232.27682931769328 494.1194154704746,232.6732321185213 494.5881825755084,233.05961144224912 495.13092803945585,233.49099869768787 495.76320449113473,233.98316893959054 496.3860353660506,234.45395215988748 496.99969870285935,234.9182588917546 497.60446044080965,235.37535130656806 498.20057519258944,235.83017153099792 498.78828669593605,236.2669385349439 499.3678286294128,236.67264339350788 499.93942498175414,237.055857460511 500.5032906536377,237.42680059609117 501.05963201825426,237.7692032322428 501.6086472205503,238.10132404653814 502.15052667952267,238.43095374190753 502.6854535573204,238.7641376255359 503.21360395883124,239.07138733024453 503.7351474747742,239.34319793487322 504.2502473393465,239.60890531087406 504.7590608104638,239.87977361917552 505.2617395262193,240.14653330394665 505.7584296145595,240.4128079234161 506.2492721315422,240.6595816544885 506.7344031426878,240.86279691100475 507.2139540184736,241.03694588256522 507.68805171226944,241.20137383044292 508.1568188309639,241.3860377991351 508.69956426476824,241.5938303527929 509.33184074018936,241.77698661434405 509.9546716100009,241.9720301659258 510.5683349218263,242.14383505354272 511.1730966825847,242.32773148721208 511.76921142958076,242.50487087947556 512.3569229356576,242.62130169357005 512.9364648645111,242.69841206116274 513.508061212355,242.77346039604635 514.0719269053582,242.84232147504068 514.6282682472067,242.90226546149285 515.1772834452622,242.95254131301974 515.7191629246123,243.000467632682 516.2540897805973,243.06375929351555 516.7822402019908,243.13081492848707 517.3037837137274,243.1865411750773 517.8188835741969,243.20623419634072 518.3276970477059,243.17084441763876 518.8303757594775,243.16906454839778 519.3270658664048,243.20628621589344 519.8179083632828,243.20654797728724 520.3030393706462,243.17119293767655 520.7825902644422,243.1468639727252 521.2566879388814,243.13905168903224 521.7254550539781,243.12864358643546 522.2682005029291,243.04271720943777 522.9004769701232,242.94138973428852 523.5233078319518,242.85125751671617 524.1369711705196,242.75630243145272 524.7417329232546,242.65007483401791 525.3378476624553,242.53114049305577 525.9255591801418,242.40046169648494 526.5051011013625,242.2572919392127 527.0766974417813,242.0706422294707 527.6405631275591,241.91710191073562 528.1969044936652,241.77149761216623 528.7459196844616,241.60302325364896 529.28779915674,241.41728766606315 529.822726023308,241.26063936448222 530.3508764377635,241.0481375518515 530.8724199427345,240.82813087488728 531.3875197966047,240.6755092573087 531.8963332923095,240.48646446623843 532.3990119974528,240.26142830289882 532.8957020979092,240.08456395915655 533.3865446045104,239.8817949277074 533.8716756055147,239.67622821144772 534.3512264930971,239.44685512046726 534.8253241769625,239.26660227274851 535.2940912970166,239.0576479819189 535.8368367450705,238.7946952014015 536.4691132071554,238.49596190675214 537.0919440746269,238.2214632818291 537.7056074042086,237.90516519846298 538.3103691521767,237.6662434465421 538.9064838968952,237.3308081765187 539.4941954199452,237.06897510687426 540.0737373365116,236.74930521913336 540.6453336821384,236.4669645112403 541.2091993729839,236.1577601259922 541.7655407214245,235.89770015092796 542.3145559173206,235.55310767646475 542.8564353945671,235.2738354268588 543.3913622568623,234.93397780284872 543.9195126761525,234.63191296363772 544.4410561858376,234.36152988784977 544.9561560355277,234.05498642157795 545.4649695238179,233.77444487314253 545.9676482335884,233.4497669456172 546.4643383300954,233.14712233840947 546.9551808412077,232.81826445183773 547.4403118466187,232.4948619726994 547.9198627303306,232.14705058050998 548.3939604184967,231.80874690771205 548.8627275316874,231.44024593256034 549.4054729779185,230.99779826506492 550.0377494484865,230.4620434022901 550.6605803135888,229.88494453582865 551.2742436333263,229.2659976327642 551.8790053894645,228.61724340772707 552.4751201319721,227.91396122645827 553.062831652873,227.1366680711606 553.642373577219,226.29748159370055 554.2139699206784,225.41398484791793 554.7778356024787,224.44370573504793 555.334176958435,223.48574451473937 555.8831921522974,222.43957333139153 556.4250716275626,221.40992727349263 556.9599984970414,220.45940633520237 557.4881489143345,219.57294273065105 558.0096924156537,218.82585128953195 558.5247922723017,218.23360404796443 559.033605758709,217.8178306725987 559.5362844666417,217.5403547041566 560.0329745698212,217.39241239632892 560.523817079082,217.33657377528897 561.0089480767112,217.3272289759016 561.4884989669006,217.35544013558217 561.9625966533138,217.4045875852048 562.4313637647907,217.41440504781698 562.9741092147183,217.41165596912225 563.6063856817973,217.36155656167657 564.229216549043,217.24212395512419 564.8428798729574,217.14147733695603 565.4476416257166,217.03570622433523 566.0437563702347,216.88018247522402 566.63146788787,216.72550084666375 567.2110098090409,216.5728943916677 567.782606154489,216.43091879307195 568.3464718401515,216.33159586859125 568.9028131979665,216.17373667276766 569.4518283887603,216.01487161559294 569.9937078610362,215.87013288636456 570.5286347323561,215.82572394295826 571.0567851467498,215.7224364898682 571.5783286562962,215.60510229044945 572.0934285100504,215.44529910853902 572.6022419936342,215.28291833619227 573.10492070328,215.1415452631925 573.6016108037163,214.9155744380106 574.0924533102979,214.6889100456647 574.577584315597,214.48611945647778 575.0571352031111,214.23850881803645 575.5312328911261,213.87584468193086 576.0,213.56280192217469" stroke="red" stroke-linecap="round" stroke-width="2.4000000000000004"/>
    <polyline clip-path="url(#plotting-region)" fill="none" points="141.8036404530876,414.0809466536655 142.43588023885164,413.593953963652 143.05881035992851,412.74738603881514 143.6724371602369,411.98495594387646 144.2771634412889,411.3463415264283 144.87324371590637,410.8094683171105 145.46104903632434,410.5407164665051 146.040556625407,409.62088138950634 146.61211956861672,409.0491891171314 147.1759527544371,408.7944387851754 147.73238302180337,408.6638334286054 148.28136582517195,407.49971021159223 148.82321374643757,407.57793746099685 149.35810986641997,406.84650267289885 149.8863447910887,406.3224857995107 150.4078576456024,405.4906980772696 150.9229276016949,405.1554822967994 151.43182222961573,404.72514062726566 151.93447113961824,404.0301780270738 152.4311321506146,403.759736747493 152.92194624865982,403.12782693107766 153.40715471028963,402.7086376226896 153.8866772781519,402.18255507354803 154.3607472826975,401.82361638478653 154.829487331285,401.2916794239948 155.37228141527657,400.4904909311153 156.00459676744072,400.17064878177666 156.62736796979945,399.67133493864515 157.24106934612715,399.0919581650114 157.84577346900429,398.4137457347457 158.44192545818393,397.82849045523164 159.02967318300244,397.19587092289305 159.60915964252266,396.5352948258688 160.18079146624984,396.25641567222794 160.74460344876172,395.3898367333853 161.30097958589374,395.0894319380169 161.85002865089257,394.3297382051421 162.39185630739323,393.7872454462282 162.92681641322076,393.3551095772897 163.45491655022363,392.7009632913285 163.97649267985312,392.2481961637402 164.49162435717403,391.6597729527313 165.00038922112228,391.0706903043973 165.5030991883926,390.77839598360396 165.9997420263471,390.129378264646 166.49061525057374,389.6437553563661 166.97577625846435,389.19635245522835 167.45528135112372,388.80755546812077 167.92940854182845,388.1783134064764 168.39813106200702,387.79783511619434 168.94094508370597,387.29150158701276 169.5732059624231,386.5618214687799 170.19602169805242,385.8310321083685 170.80967033797194,385.5031477852798 171.4144178296504,384.8590245478291 172.01058605360294,384.28875762862936 172.59828316045045,383.61468712424625 173.17781106869023,382.99704967607875 173.74939377773484,382.55230176007626 174.31324619836596,381.8421711528365 174.8696375156403,381.3845893148974 175.41863930844465,380.6765905274771 175.960505728744,380.17998184135905 176.495419876113,379.75115406053976 177.0236176033379,379.0586342927485 177.5451482753083,378.6022820879716 178.06023561132162,378.21558236092153 178.56903688083753,377.5781157870191 179.071703664702,377.11399764846186 179.56843830229232,376.499419167743 180.05926878494165,376.11381308493657 180.54438804019009,375.55527900042347 181.02392745066848,375.16341024898946 181.49801391696855,374.6858748137066 181.96682309489566,374.1845274085282 182.5095424359721,373.6772014397184 183.14182001450612,373.00918924991197 183.76465195471698,372.34784142845336 184.37831632569038,371.73249551162814 184.98307909535214,371.07006421644496 185.57919482260652,370.49889343339885 186.1669073006861,369.94378904039206 186.7464501557846,369.42195775232045 187.31804740464943,368.7658485407923 187.88191397446602,368.32151084577026 188.43825618805238,367.6389871426625 188.9872722171059,367.0701607003768 189.52915250599247,366.59164788536225 190.06408016834789,366.03102314128114 190.5922313585564,365.4942609765962 191.11377561999274,364.9574292569694 191.6288762117512,364.43938768574003 192.13769041543532,363.85003356762206 192.6403698234526,363.35022367063425 193.13706061013517,362.95599196607236 193.62790378689957,362.4254063942516 194.11303544256137,361.9322215174259 194.59258696982755,361.48813508810645 195.0666852789108,360.9400582249757 195.5354529991343,360.51168637845353 196.07817645297862,359.8840612322191 196.71044704217235,359.2801110642745 197.33330888632045,358.71318957509163 197.9469661373938,358.0108601646802 198.55172199221735,357.4184111882639 199.14783100096204,356.7248048831624 199.7355369486163,356.2245427785867 200.31507345358457,355.66625077743106 200.88669821408104,355.01887933015536 201.450558320107,354.52788502113754 202.00689424126188,353.85639574943 202.55590414251765,353.27917083909836 203.09777846186273,352.7995234741592 203.63270030688028,352.24299112680234 204.16084582620675,351.6960201506847 204.6824153149844,351.19099566352315 205.1975101349967,350.5895873024223 205.70631870695507,350.14896572518 206.20899261823274,349.61175998349415 206.70567803836607,349.10516023086655 207.19651597420048,348.5334361451157 207.68167113251977,348.1015519748752 208.16121732988555,347.63443150048505 208.63531042959772,347.12639566423087 209.10407305693664,346.6051141091733 209.6468274086204,346.0650844295359 210.27910491637635,345.444196866064 210.9019367879081,344.85880575652106 211.51560109220947,344.20661379686476 212.12036379711944,343.58262774130003 212.71647946146035,342.9104479621791 213.30419187838785,342.32331351237735 213.8837100079444,341.7918704563093 214.45530753482691,341.1901152618832 215.0191743751918,340.61304233969173 215.57551685215404,340.03106262460625 216.1245331376924,339.48234349925497 216.66641367643982,338.8987613233043 217.2013415822855,338.3671230072023 217.72949300985414,337.79023715386006 218.25103750274914,337.2552695018145 218.76613832028215,336.76896746565785 219.27495274426366,336.21412540430725 219.77763236729803,335.7017466425353 220.27432336390487,335.2112750988219 220.76516674567972,334.6733497561736 221.2502986016086,334.19295755757946 221.72985032456123,333.67470080537896 222.20394882490567,333.20224680265744 222.67271673211354,332.7009386355761 223.21546211876276,332.14810982986216 223.8477389738174,331.5392202541134 224.47057021200396,330.86112713317317 225.08423390146777,330.221955013736 225.6889960092484,329.62163640566723 226.285111093414,328.98973592678766 226.87282294640826,328.3885416648511 227.45236519367904,327.76921611137374 228.023961851269,327.1742517747398 228.58782784569647,326.5879885445918 229.14416949914772,326.03430144821704 229.69318498272142,325.4704633329557 230.23506474021576,324.890784276953 230.7699754333776,324.3305342895259 231.29812632586834,323.79342877699366 231.8196702969891,323.26324165600727 232.33477060556143,322.7338969442914 232.8435845329295,322.1786664525055 233.34626367125378,321.6674193084132 233.8429541946309,321.1672225959421 234.3337971142534,320.6488225497346 234.81892851872286,320.1490691412932 235.29847980054203,319.6550862971912 235.77257786972885,319.1753984436963 236.2413453554202,318.6748213011479 236.78408728076258,318.12011827552743 237.4163745825589,317.45873769539526 238.03920213855955,316.8006351389614 238.65286225343863,316.1772458096184 239.25762088958714,315.53925418195723 239.85374583127512,314.9113625036265 240.44145422043954,314.2954287406306 241.02099309951197,313.6932425319608 241.5925864806283,313.09421413622556 242.1564618062684,312.5145667845861 242.7128001898504,311.9269914217361 243.26181248910717,311.35108337906104 243.8036891445227,310.7944400052994 244.33862514728412,310.2285654789203 244.8667727362472,309.6703031502513 245.38831348597537,309.1356032740803 245.9034106522645,308.59757056181036 246.41222151358016,308.0530543474812 246.9149088286252,307.5266939517282 247.4115962980467,306.9902051245905 247.90243623520016,306.488270810706 248.38756472620614,305.97920468278727 248.86712381954374,305.47949781711714 249.34121898577013,304.9659548050234 249.80998363341416,304.4644106292328 250.35272556313097,303.92236435337895 250.98500578963973,303.2633025603816 251.6078402992981,302.59658088899994 252.22149733022582,301.96862344893316 252.82626266403167,301.32100898713594 253.42238088262738,300.6891172431049 254.010086360867,300.0787523525138 254.58963170076137,299.4629915601646 255.1612313667542,298.84517046563064 255.7250912470086,298.24877188227197 256.2814358702761,297.6550848043641 256.8304454407813,297.08356579474975 257.37232812939976,296.5054960371438 257.90725813030144,295.93493501446875 258.43540312751566,295.3936688457141 258.95694971727164,294.8392109168431 259.4720525801717,294.28355570500827 259.9808608355514,293.7440698642741 260.48354250434244,293.212962962663 260.98023549825183,292.6927163784106 261.47107295289345,292.1539501163375 261.9562068053757,291.64666586391786 262.4357527817144,291.1412184528008 262.9098532758643,290.633493720817 263.3786231322938,290.1295446766039 263.9213647425887,289.54225626616017 264.55364225270205,288.88094666278914 265.1764741265214,288.20850530922604 265.79013843304335,287.5616934670023 266.39490114011,286.9197043477767 266.9910168065464,286.273292490521 267.5787224213094,285.64184265229125 268.158265312852,285.0176294361121 268.72986259716845,284.389836445079 269.2937292014842,283.78808975465364 269.85007144865517,283.19750641175307 270.3990875104146,282.61650095849063 270.94096783116237,282.0256254020159 271.47588932756435,281.4495012151532 272.0040406260474,280.88572048507507 272.52558499306645,280.3176329057842 273.04068568781474,279.76800304260064 273.54949999199016,279.2222565218476 274.05217949809014,278.67484223668794 274.5488703805322,278.1228333001073 275.0397079615183,277.595333983319 275.52483977435145,277.0715688773573 276.004391455194,276.54919879212605 276.4784899143807,276.04138269531643 276.94725778135114,275.53037161493455 277.490005388,274.95174298426275 278.1222773767924,274.2607228791753 278.7451090985064,273.572594463982 279.3587732573679,272.9140826279885 279.963535821027,272.2430194938661 280.55965134812743,271.6008502914302 281.1473636316565,270.96060878275637 281.72690145138733,270.3254384941856 282.2984985822121,269.69531917133185 282.86236503716015,269.0809903160161 283.41870713892325,268.46521641212667 283.96772305907905,267.8692816149735 284.5096032418804,267.2691691828985 285.044526325354,266.6877918360086 285.57267747112223,266.10231088273963 286.0942216892231,265.526953386161 286.6093222387104,264.9577118477244 287.1181364011488,264.3961895781435 287.6208157689091,263.8465983446564 288.11750235879487,263.2989639349997 288.60834554583494,262.75607780265693 289.09347721153455,262.224537644544 289.57302874860903,261.6911190574592 290.0471270672787,261.1638216811974 290.5158947968743,260.64325402413397 291.0586391069676,260.0429948570829 291.69091635885843,259.3445232884263 292.313747982113,258.6501066865195 292.92740834090284,257.9718452770247 293.53217086507976,257.29683914623274 294.12828635381914,256.6338807124387 294.7159986000609,255.98074160228737 295.2955412297224,255.3340799277588 295.8671348070079,254.69620953172037 296.43100120979454,254.06261910338264 296.9873432607792,253.44279631663213 297.53635913148514,252.8308363792069 298.0782392661137,252.22470225155246 298.6131635459181,251.62712019498585 299.1413146302733,251.0355452170745 299.66285878848817,250.44913702696195 300.17795927956,249.8706713220711 300.68677030959975,249.29583288219132 301.189449658585,248.73419742170728 301.6861403876337,248.17107557399095 302.1769835081134,247.62005145341303 302.66211510879276,247.07224882753928 303.14166368278893,246.53197664819206 303.61576197214737,245.99461471923485 304.084529673087,245.46409308337536 304.62727521748593,244.85388839866002 305.25955190674324,244.1369021345051 305.8823829840493,243.4299378711957 306.49604651733387,242.73757651350553 307.1008084734334,242.05179845297425 307.6969234102246,241.37371548171612 308.28463511997006,240.7045158341038 308.86417470027703,240.0456435220635 309.43577125678416,239.39408102946697 309.99963715284446,238.75399758364506 310.55597871053646,238.1171813563549 311.1049941008563,237.49320285869675 311.6468737675052,236.87356707859806 312.18180082348806,236.26089671535829 312.7099514225898,235.65551847726772 313.2314951076162,235.05945024285484 313.7465951371198,234.47145372484175 314.2554087921893,233.88833973397095 314.75808766474177,233.31094622517287 315.25477792864206,232.74182211138358 315.74561845177993,232.17647036637965 316.23074963350166,231.6198591126901 316.71030069766783,231.06889407167233 317.18439855412373,230.51928751092254 317.65316583184097,229.98117846523868 318.19591101521814,229.35696312733455 318.8281875583907,228.62772316932526 319.45101849394433,227.908498709881 320.0646818896188,227.19786117341528 320.6694437120716,226.49955354145422 321.2655585190106,225.8095080711927 321.8532701025391,225.129170999235 322.4328120877838,224.4554638131895 323.00440849048334,223.79372907184506 323.5682742368684,223.1388020473306 324.124615648853,222.49544240325264 324.6736308972779,221.85547950728312 325.2155104256964,221.22391186366033 325.7504373469733,220.6007375421898 326.27858781476044,219.98782323931798 326.80013137173694,219.3809658986834 327.31523127633545,218.78054541572482 327.82404480952994,218.18488839611655 328.32672356312867,217.5999888200683 328.8234137108925,217.01851168498553 329.31425626369395,216.44094717592654 329.7993873098296,215.87580336568539 330.27893824151096,215.31547850607285 330.75303447323614,214.7556526211163 331.2218016410777,214.21018900104445 331.76454755571217,213.57197390189253 332.3968248428272,212.83043079624414 333.0196550841388,212.0968601767752 333.6333178058585,211.37486288001617 334.23808034910354,210.66292572794902 334.83419450055806,209.95945081836445 335.4219067837861,209.26782600341522 336.00144813103304,208.58198634796275 336.57304521353717,207.90613011566793 337.13691033850387,207.23672210007035 337.6932511455445,206.57927045199003 338.2422670542445,205.9279504129907 338.7841459926276,205.286500215474 339.31907355644927,204.64965623177875 339.84722344839486,204.02091844041942 340.3687676311115,203.400648924371 340.8838669733969,202.78557996338617 341.3926799579199,202.1780662662746 341.8953593205765,201.5781943772123 342.39204893194903,200.98374162845295 342.88289207870133,200.3954887372312 343.3680226001903,199.81318063702307 343.8475741114447,199.236817338283 344.3216713250083,198.6661349636954 344.7904390420056,198.10196441140056 345.33318417015613,197.4484263568306 345.96977634028167,196.67965790748795 346.596794493861,195.91735742148595 347.2145223457388,195.1663937643306 347.82323118333295,194.4267593070819 348.42318058200505,193.69546565572853 349.01461906968734,192.97541412707577 349.59778474502207,192.26266364474893 350.1729058528645,191.55604169533225 350.7402013206279,190.8587465514209 351.299881258627,190.16927446881868 351.85214742727965,189.48851909122172 352.3971936737686,188.81303955854975 352.9352063405257,188.14773245863864 353.46636464769506,187.48560043328433 353.99084105153725,186.83404022313172 354.5088015805694,186.1870856293156 355.02040615108035,185.54857964592549 355.52580886352035,184.91307186826708 356.0251582811409,184.28496400940546 356.5185976921441,183.6638755335938 357.0062653565002,183.0475662915396 357.48829473849537,182.43522993141545 357.9648147259904,181.82996496861523 358.43594983728894,181.2305732600209 358.90182041644886,180.63401393583342 359.44456549589506,179.93683654623993 360.07684211931985,179.1207037933405 360.6996731327456,178.31622327045693 361.3133366040166,177.51640193823852 361.9180977918202,176.7288061522221 362.5142126801458,175.94744284064527 363.1019243427825,175.1701189800194 363.6814664049514,174.40210734378292 364.25306288248026,173.64061355543544 364.8169280411746,172.88284892017327 365.37326953280296,172.13382652105219 365.92228485878763,171.3882618751864 366.464164462763,170.6495569855837 366.9990914576703,169.9147526229268 367.5272413782967,169.18565075350517 368.0487850129596,168.46145887570117 368.5638849933367,167.739568173871 369.07269860047154,167.02394331364306 369.5753774262381,166.31343854143557 370.0720670621721,165.60721741408508 370.5629096905981,164.9022390902976 371.0480408106084,164.20267892394335 371.5275918144749,163.50738434717456 372.0016896119945,162.81175355886802 372.47045628235645,162.11908208852267 373.01320218088165,161.3156260347705 373.64547855741273,160.36369544108362 374.2683093312666,159.42429989432998 374.8819725699665,158.48495349803278 375.48673423996587,157.5511532063413 376.0828488987799,156.62032420749432 376.6705603383303,155.69226150286 377.2501026737647,154.76731816891035 377.8216989335991,153.84719823425968 378.3855645409575,152.9282989379982 378.94190581760114,152.00779382339823 379.49092093422587,151.09000931764638 380.0328003342483,150.17548540865562 380.56772758310046,149.26114286213033 381.0958779232168,148.34676780612656 381.6174213556967,147.43458921600313 382.13252113885585,146.51813838250894 382.64133455355716,145.60749575191136 383.1440131915028,144.69371464463836 383.64070364688405,143.78215874899848 384.13154608449287,142.86433589284394 384.6166770181011,141.95544038304462 385.09622783982894,141.04133199667254 385.57032545932884,140.126812560431 386.0390925053887,139.21489390170706 386.58183809798993,138.14009573199354 387.21411445121606,136.86997077517307 387.83694558272214,135.60227424456164 388.45060879391303,134.33053303575122 389.0553704371957,133.05882567651008 389.65148543412243,131.7865190132388 390.2391968433454,130.51163899344164 390.81873865909677,129.2376654954955 391.39033524611756,127.96080071632785 391.95420082736393,126.68396854628926 392.5105420785878,125.4132389862712 393.0595571704578,124.14285707052451 393.6014368775268,122.87856491210378 394.136363645959,121.62441116889109 394.6645139647494,120.37826252792867 395.1860576952453,119.14189033739993 395.70115745420503,117.93268640178655 396.2099708452938,116.73545566761396 396.712649767542,115.5610270129397 397.20933977625174,114.41785090495762 397.7001821932538,113.2993225303937 398.1853131067323,112.21763011227637 398.66486420208,111.17560642836256 399.13896179903907,110.17631094044806 399.60772882306213,109.23339629257751 400.1504743192074,108.19582966847702 400.78275075303054,107.08806286197392 401.4055815824774,106.10898432820025 402.01924514576297,105.28718846525818 402.6240068642793,104.61499840816687 403.22012157023283,104.11640638583577 403.80783305560317,103.79655972831193 404.3873749453995,103.64403383415618 404.9589712552501,103.67321109388612 405.5228369112808,103.85452227001653 406.07917848081354,104.19278452512825 406.6281936403689,104.66657453057705 407.1700730822132,105.26934758541489 407.7049999191232,105.98610552023403 408.2331503046675,106.79149837398117 408.75469378144595,107.68262149631082 409.26979360781576,108.63130489741123 409.7786070646794,109.63743847789982 410.2812859657459,110.6861596514044 410.77797603814423,111.76613931259178 411.26881851734464,112.86276613980593 411.75394949158186,113.9699213495045 412.2335003530095,115.09090520284988 412.7075980113115,116.21553151517776 413.17636509530564,117.3316965371424 413.71911067788346,118.63359392697866 414.35138702663863,120.15270757004882 414.97421797187894,121.65325285983727 415.5878811815163,123.1201321367751 416.1926430159165,124.55793956653586 416.78875783446347,125.96397371149736 417.3764692420415,127.33184843633241 417.95601124084243,128.66760317297886 418.5276074745941,129.97085717917417 419.09147323625876,131.24172186586517 419.64781466311786,132.47637310403735 420.19682975104115,133.68290403247417 420.7387092958303,134.85218642417954 421.2736360625354,135.99799802415572 421.8017865480208,137.11124349055814 422.3233301222556,138.19532838493177 422.83842987944485,139.25141985442377 423.3472434310575,140.2796238273893 423.84992204232606,141.28711137992872 424.3466122095394,142.26312619763513 424.83745478133517,143.21901629116203 425.32258569128214,144.15572489578057 425.8021366428635,145.0651882814194 426.2762342380366,145.95676234097886 426.7450014098664,146.82876623340871 427.2877467897414,147.82664884598927 427.9200233277652,148.977334046882 428.5428542583225,150.09413646397303 429.1565175079985,151.17923134945607 429.7612793277733,152.23591326442687 430.35739399496975,153.26365536756305 430.94510557788885,154.26696432055897 431.5246474291866,155.24640181207963 432.0962438331254,156.20055344517039 432.6601094509449,157.13501770886336 433.2164508658239,158.04473912946474 433.76546599069104,158.93156591230684 434.30734552348713,159.8007708524903 434.84227232587585,160.65208167938417 435.37042279937197,161.49006005242654 435.89196624182335,162.3068297385184 436.40706615332664,163.11121372956904 436.9158796932583,163.899340623517 437.4185583376585,164.67255875913582 437.91524849321337,165.43523354035526 438.4060909405594,166.17877371954037 438.8912219954356,166.9109895968291 439.3707728251796,167.63423844029523 439.8448705617434,168.34274161129065 440.3136376142416,169.03743468171126 440.85638309026854,169.84116491574312 441.4886595682727,170.76712275338633 442.11149044059067,171.34903477034774 442.7251537748773,172.23232432157772 443.32991553771035,173.09016761456195 443.92603028672227,173.93419956891302 444.5137418139455,174.75864560329654 445.0932836481302,175.57178685337584 445.6648799988813,176.3684005699071 446.2287456947136,177.15022136126385 446.7850870574857,177.91827979801866 447.3341022579856,178.67310229683903 447.8759817397169,179.41663207712563 448.41090861549674,180.14815001193404 448.9390590389325,180.86442997073073 449.46060255266025,181.5704958159874 449.97570241507213,182.26903193017324 450.4845159071034,182.9518921387067 450.98719462052554,183.62417472050333 451.48388464644177,184.2874966118759 451.9747271619034,184.94087604938534 452.45985817156316,185.58610393378382 452.939409067603,186.22211539876446 453.41350675973445,186.84813822636244 453.8822738768017,187.4625654529312 454.42501931257874,188.17488616201723 455.05729579687033,189.00025024128416 455.6801266752892,189.8051166326171 456.29379001549836,190.596075119347 456.8985517115236,191.3730646618304 457.4946664671545,192.12872055033773 458.082378000811,192.87036928142328 458.66191993756075,193.6018338396022 459.23351629308604,194.3219574447665 459.7973819258781,195.03230859375262 460.35372329407016,195.733382455696 460.9027384998481,196.42453354353216 461.4446179867211,197.10559610548336 461.9795448675118,197.7759885689499 462.50769523240604,198.43717493298877 463.0292387516854,199.08914409123838 463.5443386195125,199.73005888797468 464.0531521168276,200.36372982118974 464.55583083540694,200.9875308794289 465.0525208893106,201.60170818391416 465.5433634094207,202.20303171384433 466.0284944236215,202.7960253224378 466.50804532409853,203.37806658482975 466.98214302056675,203.9513371048519 467.45091008553925,204.51676600716053 467.9936555419719,205.16343070930827 468.62593202362933,205.91895129668364 469.24876289949214,206.6656474199596 469.8624262372199,207.40384336814745 470.46718795099207,208.13187883013592 471.06330270399525,208.8424599082945 471.6510142350977,209.53997113705412 472.23055616936404,210.2218472573893 472.80215252247325,210.88686767878897 473.3660181717172,211.53715512273325 473.9223595373713,212.1709446584354 474.47137474067773,212.79439546355138 475.013254225143,213.40711911458337 475.54818110358735,214.00757409448568 476.0763314838138,214.59738976205003 476.59787500064385,215.1823656320646 477.11297486608163,215.7632527847679 477.62178836106546,216.33734815422363 478.12446703375866,216.90153244557962 478.6211571456274,217.4544310926035 479.11199966337415,217.99395826539126 479.59713067526616,218.52415556465485 480.07668157348706,219.04057799873573 480.55077922660513,219.55019581757279 481.01954634621654,220.0470776042947 481.5622918054268,220.6248107910377 482.19456826716544,221.30256100416773 482.8173991237,221.9627598817964 483.4310624426645,222.60554068477683 484.03582422846233,223.22984200592714 484.63193896247867,223.84493418565998 485.219650475126,224.44699860359822 485.7991923914466,225.02164062970206 486.3707887270988,225.57492231915063 486.9346544435417,226.11582644953472 487.49099579154233,226.64445892020177 488.0400109776571,227.16807090422995 488.58189044537477,227.68560929905527 489.11681730749854,228.20299245793106 489.6449677176217,228.7098369566413 490.1665112510385,229.2090595405671 490.6816111003864,229.6867531917839 491.1904245796709,230.14890861470747 491.6931032806515,230.5899746767239 492.1897933770436,231.01863589080983 492.6806359104346,231.43874081862603 493.16576690720586,231.8595185133612 493.64531779065203,232.27074723655883 494.1194154704746,232.66914535914538 494.5881825755084,233.0548454021931 495.13092803945585,233.48441027277272 495.76320449113473,233.97821696494134 496.3860353660506,234.44762777526222 496.99969870285935,234.91287352147822 497.60446044080965,235.36932359933442 498.20057519258944,235.82469310790412 498.78828669593605,236.26061034992424 499.3678286294128,236.66477464232423 499.93942498175414,237.0500893045617 500.5032906536377,237.42043782339806 501.05963201825426,237.7613392776046 501.6086472205503,238.09296709031295 502.15052667952267,238.42367738306118 502.6854535573204,238.75791451096816 503.21360395883124,239.06301596635794 503.7351474747742,239.337475894127 504.2502473393465,239.60125803647523 504.7590608104638,239.87313749718305 505.2617395262193,240.1405167973978 505.7584296145595,240.40379646918726 506.2492721315422,240.65107027330845 506.7344031426878,240.85552501030128 507.2139540184736,241.02994346234118 507.68805171226944,241.19565094661115 508.1568188309639,241.3785197431705 508.69956426476824,241.58646074025899 509.33184074018936,241.7696570221913 509.9546716100009,241.96490734260988 510.5683349218263,242.13732419346414 511.1730966825847,242.32101406660598 511.76921142958076,242.49841811016563 512.3569229356576,242.6149405440291 512.9364648645111,242.6902307577596 513.508061212355,242.7682304492709 514.0719269053582,242.83417912445665 514.6282682472067,242.89760149797812 515.1772834452622,242.94643023539373 515.7191629246123,242.9930757532729 516.2540897805973,243.05674482970255 516.7822402019908,243.1251880624951 517.3037837137274,243.1801123476878 517.8188835741969,243.20025471180185 518.3276970477059,243.16597877919855 518.8303757594775,243.16421877988893 519.3270658664048,243.1991875912457 519.8179083632828,243.20027003286407 520.3030393706462,243.16615638182074 520.7825902644422,243.14216644954925 521.2566879388814,243.1351287365379 521.7254550539781,243.12433699710212 522.2682005029291,243.0367837698713 522.9004769701232,242.93703517133494 523.5233078319518,242.8444846715178 524.1369711705196,242.75199751513904 524.7417329232546,242.64395841557086 525.3378476624553,242.5265162071161 525.9255591801418,242.3953523046524 526.5051011013625,242.25262136701235 527.0766974417813,242.0630458476861 527.6405631275591,241.91032268245365 528.1969044936652,241.76465887678373 528.7459196844616,241.59603561516747 529.28779915674,241.41376997659927 529.822726023308,241.25540387774072 530.3508764377635,241.03973592779107 530.8724199427345,240.82207643208568 531.3875197966047,240.67107155919805 531.8963332923095,240.48131757276482 532.3990119974528,240.25698721862017 532.8957020979092,240.08113503357447 533.3865446045104,239.87583436787764 533.8716756055147,239.6734859648095 534.3512264930971,239.4434904907937 534.8253241769625,239.2620965607878 535.2940912970166,239.0509596916614 535.8368367450705,238.78729663321866 536.4691132071554,238.4914442127771 537.0919440746269,238.21515792911617 537.7056074042086,237.900764325735 538.3103691521767,237.65973324847673 538.9064838968952,237.3234774097188 539.4941954199452,237.0629185798994 540.0737373365116,236.744412485993 540.6453336821384,236.46057217747543 541.2091993729839,236.15036953593534 541.7655407214245,235.8899100120555 542.3145559173206,235.54291614162724 542.8564353945671,235.26717865582415 543.3913622568623,234.92723024183596 543.9195126761525,234.62189263923722 544.4410561858376,234.35423641848098 544.9561560355277,234.04979336451316 545.4649695238179,233.76748209444014 545.9676482335884,233.44048958588462 546.4643383300954,233.13794038317417 546.9551808412077,232.81098074224485 547.4403118466187,232.48808122875013 547.9198627303306,232.13794336834025 548.3939604184967,231.80080648142734 548.8627275316874,231.4326256584027 549.4054729779185,230.98682977837734 550.0377494484865,230.4544981051131 550.6605803135888,229.87493600932876 551.2742436333263,229.25779151676733 551.8790053894645,228.60837961254498 552.4751201319721,227.91018294419624 553.062831652873,227.13204707843212 553.642373577219,226.2913061207694 554.2139699206784,225.40732072228798 554.7778356024787,224.44222315065724 555.334176958435,223.47951857446577 555.8831921522974,222.43590460770994 556.4250716275626,221.40756638464978 556.9599984970414,220.4577827168808 557.4881489143345,219.57204761164223 558.0096924156537,218.82326559895296 558.5247922723017,218.22775387394674 559.033605758709,217.8129612922696 559.5362844666417,217.53601143241008 560.0329745698212,217.3889679252257 560.523817079082,217.33132762119666 561.0089480767112,217.32317718482352 561.4884989669006,217.35552296816977 561.9625966533138,217.4024179338448 562.4313637647907,217.41113357980547 562.9741092147183,217.408848900416 563.6063856817973,217.35773424315113 564.229216549043,217.2402734686254 564.8428798729574,217.13588455720802 565.4476416257166,217.0274178536457 566.0437563702347,216.8758413418219 566.63146788787,216.7241699360189 567.2110098090409,216.56375310103834 567.782606154489,216.42678475915153 568.3464718401515,216.32667941664727 568.9028131979665,216.163536050809 569.4518283887603,216.01797520764126 569.9937078610362,215.87638142562497 570.5286347323561,215.8264281678504 571.0567851467498,215.73014712003203 571.5783286562962,215.6054223167676 572.0934285100504,215.45632525912785 572.6022419936342,215.29825225500235 573.10492070328,215.16522414084687 573.6016108037163,214.93539659978512 574.0924533102979,214.7103895190451 574.577584315597,214.50662094442043 575.0571352031111,214.24867832877575 575.5312328911261,213.89018502742346 576.0,213.5578510744123" stroke="blue" stroke-linecap="round" stroke-width="2.4000000000000004"/>
  </g>
</svg>
